<?xml version="1.0" standalone="no"?>
<!DOCTYPE svg PUBLIC "-//W3C//DTD SVG 1.1 Tiny//EN" "http://www.w3.org/Graphics/SVG/1.1/DTD/svg11-tiny.dtd">
<svg stroke-width="0.501" stroke-linejoin="bevel" fill-rule="evenodd" xmlns:xlink="http://www.w3.org/1999/xlink" xmlns="http://www.w3.org/2000/svg" version="1.1" overflow="visible" x="0px" y="0px" width="48px" height="48px" viewBox="0 0 48 48">
 <g id="Document" fill="none" stroke="black" transform="scale(1 -1)">
  <g id="Spread" transform="translate(0 -48)">
    <path d="M 3,45 L 3,2.999 L 45.001,2.999 L 45.001,45 L 3,45 Z" stroke="none" fill="#6699ff" stroke-linejoin="miter" marker-start="none" marker-end="none"/>
    <path d="M 30.29,11.994 C 30.29,12.534 30.369,13.068 30.524,13.595 C 30.681,14.122 30.918,14.617 31.237,15.082 C 31.554,15.547 31.951,15.965 32.426,16.336 C 32.9,16.706 33.459,17.005 34.105,17.232 C 33.631,17.459 33.198,17.735 32.809,18.057 C 32.421,18.38 32.088,18.738 31.813,19.133 C 31.538,19.526 31.327,19.954 31.18,20.414 C 31.032,20.874 30.959,21.351 30.959,21.844 C 30.959,22.594 31.094,23.288 31.365,23.922 C 31.635,24.558 32.008,25.109 32.482,25.574 C 32.957,26.039 33.521,26.401 34.176,26.663 C 34.831,26.924 35.538,27.055 36.297,27.055 C 37.066,27.055 37.778,26.921 38.433,26.656 C 39.087,26.39 39.652,26.025 40.127,25.56 C 40.601,25.095 40.97,24.544 41.237,23.908 C 41.503,23.273 41.636,22.584 41.635,21.844 C 41.636,21.342 41.562,20.863 41.415,20.406 C 41.267,19.951 41.061,19.525 40.796,19.125 C 40.529,18.727 40.207,18.368 39.827,18.051 C 39.448,17.733 39.025,17.459 38.56,17.232 C 39.187,17.005 39.733,16.706 40.197,16.336 C 40.663,15.965 41.052,15.547 41.364,15.082 C 41.679,14.617 41.91,14.122 42.062,13.595 C 42.215,13.068 42.291,12.534 42.29,11.994 C 42.291,11.045 42.144,10.197 41.848,9.453 C 41.555,8.708 41.144,8.077 40.618,7.559 C 40.092,7.042 39.46,6.648 38.724,6.378 C 37.989,6.107 37.175,5.971 36.283,5.971 C 35.41,5.971 34.608,6.107 33.877,6.378 C 33.146,6.648 32.515,7.04 31.983,7.552 C 31.452,8.064 31.037,8.694 30.738,9.438 C 30.44,10.183 30.29,11.035 30.29,11.994 Z M 31.642,11.85 C 31.641,11.14 31.756,10.494 31.983,9.915 C 32.212,9.336 32.528,8.84 32.931,8.427 C 33.334,8.014 33.818,7.697 34.382,7.474 C 34.947,7.25 35.571,7.139 36.254,7.139 C 36.928,7.139 37.55,7.25 38.119,7.474 C 38.689,7.697 39.18,8.014 39.592,8.427 C 40.005,8.84 40.326,9.336 40.553,9.915 C 40.781,10.494 40.895,11.14 40.895,11.85 C 40.895,12.488 40.786,13.09 40.568,13.659 C 40.35,14.229 40.039,14.726 39.635,15.153 C 39.231,15.581 38.743,15.92 38.169,16.172 C 37.595,16.423 36.957,16.55 36.254,16.55 C 35.6,16.55 34.989,16.432 34.425,16.2 C 33.86,15.968 33.371,15.645 32.959,15.233 C 32.547,14.82 32.223,14.324 31.992,13.744 C 31.759,13.166 31.641,12.534 31.642,11.85 Z M 32.354,21.802 C 32.354,21.232 32.457,20.703 32.66,20.215 C 32.864,19.726 33.143,19.302 33.5,18.94 C 33.856,18.58 34.274,18.295 34.753,18.086 C 35.232,17.877 35.743,17.773 36.283,17.773 C 36.824,17.773 37.337,17.877 37.82,18.086 C 38.305,18.295 38.724,18.582 39.08,18.947 C 39.436,19.313 39.719,19.74 39.928,20.228 C 40.136,20.717 40.241,21.241 40.241,21.802 C 40.241,22.381 40.138,22.917 39.934,23.41 C 39.73,23.904 39.45,24.333 39.095,24.698 C 38.739,25.064 38.321,25.349 37.842,25.553 C 37.362,25.758 36.843,25.859 36.283,25.859 C 35.695,25.859 35.161,25.752 34.682,25.538 C 34.202,25.325 33.789,25.035 33.442,24.671 C 33.097,24.304 32.829,23.875 32.639,23.382 C 32.449,22.889 32.354,22.362 32.354,21.802 Z" stroke="none" fill-rule="nonzero" stroke-linejoin="round" stroke-linecap="round" stroke-width="0.375" fill="#ffffff" marker-start="none" marker-end="none" stroke-miterlimit="79.8403193612775"/>
    <path d="M 2.999,45 L 2.999,20.999 L 27,45 L 2.999,45 Z" fill="#7f7f7f" stroke-opacity="0.498039" stroke="none" stroke-linejoin="miter" marker-start="none" marker-end="none" fill-opacity="0.498039"/>
    <path d="M 3,45 L 3,21.749 L 26.251,45 L 3,45 Z" fill="#ff8200" stroke="none" stroke-linejoin="miter" marker-start="none" marker-end="none"/>
    <path d="M 7.55,28.696 L 3.465,32.78 L 5.67,34.985 L 6.245,34.41 L 4.718,32.883 L 5.946,31.655 L 7.353,33.062 L 7.925,32.49 L 6.518,31.083 L 8.227,29.374 L 7.55,28.696 Z M 10.481,31.627 L 6.396,35.711 L 7.74,37.056 C 7.932,37.247 8.132,37.401 8.339,37.517 C 8.546,37.633 8.755,37.705 8.967,37.732 C 9.178,37.76 9.387,37.738 9.592,37.668 C 9.797,37.598 9.991,37.471 10.176,37.286 C 10.32,37.142 10.431,36.988 10.509,36.825 C 10.587,36.662 10.633,36.494 10.649,36.321 C 10.664,36.148 10.649,35.973 10.604,35.795 C 10.56,35.618 10.486,35.442 10.384,35.267 L 10.395,35.256 C 10.511,35.288 10.621,35.306 10.727,35.311 C 10.832,35.316 10.936,35.316 11.039,35.312 C 11.141,35.309 11.251,35.297 11.366,35.278 C 11.482,35.259 11.614,35.235 11.762,35.204 L 13.636,34.783 L 12.845,33.991 L 11.099,34.432 C 10.939,34.474 10.796,34.503 10.668,34.518 C 10.541,34.533 10.426,34.534 10.322,34.522 C 10.219,34.51 10.123,34.48 10.033,34.432 C 9.944,34.385 9.857,34.318 9.771,34.233 L 9.498,33.96 L 11.156,32.302 L 10.481,31.627 Z M 8.948,34.509 L 9.512,35.073 C 9.617,35.178 9.697,35.29 9.753,35.411 C 9.809,35.531 9.839,35.654 9.842,35.78 C 9.846,35.905 9.822,36.029 9.771,36.153 C 9.72,36.276 9.64,36.392 9.532,36.5 C 9.336,36.696 9.122,36.787 8.888,36.774 C 8.655,36.76 8.422,36.638 8.19,36.406 L 7.621,35.837 L 8.948,34.509 Z M 14.112,35.258 L 10.028,39.343 L 12.229,41.545 L 12.805,40.969 L 11.281,39.446 L 12.437,38.289 L 13.842,39.693 L 14.414,39.121 L 13.01,37.717 L 14.218,36.509 L 15.833,38.124 L 16.405,37.551 L 14.112,35.258 Z M 17.132,38.278 L 13.047,42.362 L 15.249,44.564 L 15.824,43.989 L 14.3,42.465 L 15.457,41.308 L 16.861,42.713 L 17.433,42.14 L 16.029,40.736 L 17.237,39.528 L 18.852,41.143 L 19.424,40.571 L 17.132,38.278 Z" stroke-linejoin="round" stroke-linecap="round" stroke-width="0.375" stroke="none" fill="#ffffff" fill-rule="nonzero" marker-start="none" marker-end="none" stroke-miterlimit="79.8403193612775"/>
   </g>
 </g>
</svg>
