<?xml version="1.0" standalone="no"?>
<!DOCTYPE svg PUBLIC "-//W3C//DTD SVG 1.1//EN" "http://www.w3.org/Graphics/SVG/1.1/DTD/svg11.dtd">
<svg stroke-width="0.501" stroke-linejoin="bevel" fill-rule="evenodd" xmlns:xlink="http://www.w3.org/1999/xlink" xmlns="http://www.w3.org/2000/svg" version="1.1" overflow="visible" width="56.25pt" height="56.25pt" viewBox="0 0 56.25 56.25">
 <g id="Document" fill="none" stroke="black" font-family="Times New Roman" font-size="16" transform="scale(1 -1)">
  <g id="Spread_1" transform="translate(0 -56.25)">
    <g id="Group_4" stroke="none">
     <path d="M 16.126,12.374 L 16.126,18.376 L 10.876,18.376 L 10.876,43.875 L 45.375,43.875 L 45.375,18.376 L 40.127,18.376 L 40.127,12.374 L 35.626,12.374 L 35.626,18.376 L 20.627,18.376 L 20.627,12.374 L 16.126,12.374 Z M 43.125,20.626 L 43.125,41.625 L 13.126,41.625 L 13.126,20.626 L 43.125,20.626 Z M 31.172,25.026 C 30.396,25.966 30.008,27.246 30.008,28.866 C 30.008,30.602 30.437,31.993 31.295,33.039 C 32.153,34.085 33.297,34.608 34.725,34.608 C 36.14,34.608 37.169,34.041 37.811,32.906 L 37.853,32.906 L 37.853,39.406 L 40.231,39.406 L 40.231,23.862 L 37.853,23.862 L 37.853,25.646 L 37.811,25.646 C 37.046,24.292 35.867,23.616 34.274,23.616 C 32.982,23.616 31.948,24.086 31.172,25.026 Z M 15.212,23.862 L 20.719,38.566 L 23.466,38.566 L 28.932,23.862 L 26.255,23.862 L 24.933,27.605 L 19.15,27.605 L 17.878,23.862 L 15.212,23.862 Z M 37.125,26.4 C 37.63,26.998 37.883,27.752 37.883,28.661 L 37.883,30.035 C 37.883,30.78 37.641,31.412 37.155,31.932 C 36.67,32.451 36.051,32.711 35.299,32.711 C 34.411,32.711 33.712,32.38 33.202,31.716 C 32.693,31.053 32.439,30.134 32.439,28.958 C 32.439,27.892 32.683,27.049 33.172,26.431 C 33.66,25.812 34.318,25.503 35.146,25.503 C 35.959,25.503 36.619,25.802 37.125,26.4 Z M 24.287,29.594 L 22.246,35.459 C 22.185,35.65 22.12,35.958 22.051,36.382 L 22.01,36.382 C 21.949,35.992 21.881,35.684 21.805,35.459 L 19.785,29.594 L 24.287,29.594 Z" stroke-linejoin="round" stroke-linecap="round" stroke-width="0.375" fill="#ffffff" fill-rule="nonzero" marker-start="none" marker-end="none" stroke-miterlimit="79.8403193612775"/>
     <rect x="0.001" y="0" width="56.25" height="56.25" stroke-linejoin="miter" stroke-opacity="0.517647"/>
    </g>
  </g>
 </g>
</svg>
