<?xml version="1.0" standalone="no"?>
<!DOCTYPE svg PUBLIC "-//W3C//DTD SVG 1.1//EN" "http://www.w3.org/Graphics/SVG/1.1/DTD/svg11.dtd">
<!--Generator: Xara Xtreme (www.xara.com), SVG filter version: 1.0.0.13-->
<svg stroke-width="0.501" stroke-linejoin="bevel" fill-rule="evenodd" xmlns:xlink="http://www.w3.org/1999/xlink" xmlns="http://www.w3.org/2000/svg" version="1.1" overflow="visible" width="56.25pt" height="56.25pt" viewBox="0 0 56.25 56.25">
 <g id="Document" fill="none" stroke="black" font-family="Times New Roman" font-size="16" transform="scale(1 -1)">
  <g id="Spread" transform="translate(0 -56.25)">
   <g id="Layer 1">
    <g id="Group" stroke-linejoin="miter" stroke-opacity="0.517647" stroke="none">
     <rect x="0.001" y="0.001" width="56.25" height="56.25"/>
     <path d="M 15.88,13.126 L 15.88,43.126 L 40.371,43.126 L 40.371,13.126 L 15.88,13.126 Z M 23.84,16.188 L 23.84,19.861 L 20.166,19.861 L 20.166,16.188 L 23.84,16.188 Z M 36.085,16.188 L 36.085,19.861 L 32.411,19.861 L 32.411,16.188 L 36.085,16.188 Z M 29.963,16.189 L 29.963,19.861 L 26.289,19.861 L 26.289,16.189 L 29.963,16.189 Z M 23.84,21.698 L 23.84,25.371 L 20.166,25.371 L 20.166,21.698 L 23.84,21.698 Z M 36.085,21.698 L 36.085,25.371 L 32.411,25.371 L 32.411,21.698 L 36.085,21.698 Z M 29.963,21.699 L 29.963,25.372 L 26.289,25.372 L 26.289,21.699 L 29.963,21.699 Z M 23.839,27.208 L 23.839,30.881 L 20.165,30.881 L 20.165,27.208 L 23.839,27.208 Z M 36.084,27.208 L 36.084,30.881 L 32.41,30.881 L 32.41,27.208 L 36.084,27.208 Z M 29.963,27.209 L 29.963,30.882 L 26.288,30.882 L 26.288,27.209 L 29.963,27.209 Z M 37.31,33.944 L 37.31,40.066 L 18.941,40.066 L 18.941,33.944 L 37.31,33.944 Z" fill="#ffffff" marker-start="none" marker-end="none"/>
    </g>
   </g>
  </g>
 </g>
</svg>
