<?xml version="1.0" standalone="no"?>
<!DOCTYPE svg PUBLIC "-//W3C//DTD SVG 1.1//EN" "http://www.w3.org/Graphics/SVG/1.1/DTD/svg11.dtd">
<!--Generator: Xara Xtreme (www.xara.com), SVG filter version: 1.0.0.13-->
<svg stroke-width="0.501" stroke-linejoin="bevel" fill-rule="evenodd" xmlns:xlink="http://www.w3.org/1999/xlink" xmlns="http://www.w3.org/2000/svg" version="1.1" overflow="visible" width="56.25pt" height="56.25pt" viewBox="0 0 56.25 56.25">
 <g id="Document" fill="none" stroke="black" font-family="Times New Roman" font-size="16" transform="scale(1 -1)">
  <g id="Spread" transform="translate(0 -56.25)">
   <g id="MouseOff">
    <g id="Group" stroke="none">
     <g id="Group_1" fill="#ffffff">
      <path d="M 11.251,15.918 L 11.251,38.835 C 11.251,41.41 13.342,43.501 15.917,43.501 L 16.125,43.501 L 16.125,38.945 C 16.125,37.734 17.109,36.75 18.32,36.75 L 19.931,36.75 C 21.142,36.75 22.126,37.734 22.126,38.945 L 22.126,43.501 L 34.125,43.501 L 34.125,38.945 C 34.125,37.734 35.109,36.75 36.32,36.75 L 37.931,36.75 C 39.142,36.75 40.126,37.734 40.126,38.945 L 40.126,43.501 L 40.334,43.501 C 42.909,43.501 45,41.41 45,38.835 L 45,15.918 C 45,13.343 42.909,11.252 40.334,11.252 L 15.917,11.252 C 13.342,11.252 11.251,13.343 11.251,15.918 Z M 41.956,16.699 L 41.956,33.704 L 14.295,33.704 L 14.295,16.699 C 14.295,15.504 15.265,14.534 16.461,14.534 L 39.791,14.534 C 40.985,14.534 41.956,15.504 41.956,16.699 Z" stroke-linejoin="miter" marker-start="none" marker-end="none"/>
      <path d="M 16.875,46.303 L 16.875,39.198 C 16.875,38.262 17.636,37.501 18.572,37.501 L 19.679,37.501 C 20.615,37.501 21.376,38.262 21.376,39.198 L 21.376,46.303 C 21.376,47.239 20.615,48 19.679,48 L 18.572,48 C 17.636,48 16.875,47.239 16.875,46.303 Z" stroke-linejoin="miter" marker-start="none" marker-end="none"/>
      <path d="M 34.875,46.303 L 34.875,39.198 C 34.875,38.262 35.636,37.501 36.572,37.501 L 37.679,37.501 C 38.615,37.501 39.376,38.262 39.376,39.198 L 39.376,46.303 C 39.376,47.239 38.615,48 37.679,48 L 36.572,48 C 35.636,48 34.875,47.239 34.875,46.303 Z" stroke-linejoin="miter" marker-start="none" marker-end="none"/>
      <g id="Group_2" fill-rule="nonzero" stroke-linejoin="round" stroke-linecap="round" stroke-width="0.25" stroke-miterlimit="79.8403193612775">
       <g id="Group_3">
        <path d="M 20.424,20.438 C 21.2,19.847 22.079,19.551 23.061,19.551 C 23.788,19.551 24.369,19.729 24.804,20.082 C 25.238,20.436 25.455,20.916 25.455,21.522 C 25.455,22.855 24.484,23.521 22.541,23.521 L 21.574,23.521 L 21.574,24.905 L 22.482,24.905 C 24.215,24.905 25.082,25.528 25.082,26.773 C 25.082,27.935 24.421,28.516 23.097,28.516 C 22.316,28.516 21.569,28.252 20.856,27.725 L 20.856,29.263 C 21.603,29.688 22.487,29.9 23.507,29.9 C 24.484,29.9 25.283,29.653 25.906,29.157 C 26.529,28.661 26.84,27.994 26.84,27.154 C 26.84,25.665 26.083,24.715 24.569,24.305 L 24.569,24.275 C 25.37,24.197 26.012,23.91 26.496,23.415 C 26.979,22.919 27.221,22.31 27.221,21.588 C 27.221,20.533 26.839,19.7 26.074,19.09 C 25.31,18.48 24.316,18.175 23.09,18.175 C 21.982,18.175 21.093,18.372 20.424,18.768 L 20.424,20.438 Z" marker-start="none" marker-end="none"/>
        <path d="M 28.913,23.821 C 28.913,25.813 29.254,27.325 29.935,28.355 C 30.616,29.385 31.604,29.9 32.898,29.9 C 35.363,29.9 36.596,27.964 36.596,24.092 C 36.596,22.198 36.259,20.738 35.585,19.713 C 34.911,18.687 33.935,18.175 32.656,18.175 C 31.421,18.175 30.488,18.658 29.858,19.625 C 29.228,20.592 28.913,21.99 28.913,23.821 Z M 30.664,23.887 C 30.664,20.997 31.364,19.551 32.766,19.551 C 34.148,19.551 34.838,21.026 34.838,23.975 C 34.838,27.002 34.162,28.516 32.81,28.516 C 31.379,28.516 30.664,26.973 30.664,23.887 Z" marker-start="none" marker-end="none"/>
       </g>
      </g>
     </g>
    </g>
   </g>
   <g id="MouseOver" display="none"/>
  </g>
 </g>
</svg>
