<?xml version="1.0" standalone="no"?>
<!DOCTYPE svg PUBLIC "-//W3C//DTD SVG 1.1//EN" "http://www.w3.org/Graphics/SVG/1.1/DTD/svg11.dtd">
<!--Generator: Xara Xtreme (www.xara.com), SVG filter version: 1.0.0.13-->
<svg stroke-width="0.501" stroke-linejoin="bevel" fill-rule="evenodd" xmlns:xlink="http://www.w3.org/1999/xlink" xmlns="http://www.w3.org/2000/svg" version="1.1" overflow="visible" width="56.25pt" height="56.25pt" viewBox="0 0 56.25 56.25">
 <g id="Document" fill="none" stroke="black" font-family="Times New Roman" font-size="16" transform="scale(1 -1)">
  <g id="Spread" transform="translate(0 -56.25)">
   <g id="Layer 1">
    <g id="Group" stroke-linejoin="miter" stroke="none">
     <rect x="0.001" y="0.001" width="56.25" height="56.25" stroke-opacity="0.517647"/>
     <path d="M 10.126,19.198 L 10.126,30.902 C 10.126,33.282 12.058,35.214 14.437,35.214 L 41.814,35.214 C 44.193,35.214 46.125,33.282 46.125,30.902 L 46.125,19.198 C 46.125,16.818 44.193,14.887 41.814,14.887 L 14.437,14.887 C 12.058,14.887 10.126,16.818 10.126,19.198 Z M 36.816,24.917 C 36.816,29.713 32.922,33.606 28.126,33.606 C 23.33,33.606 19.436,29.713 19.436,24.917 C 19.436,20.121 23.33,16.228 28.126,16.228 C 32.922,16.228 36.816,20.121 36.816,24.917 Z M 20.987,24.917 C 20.987,28.857 24.186,32.053 28.126,32.053 C 32.066,32.053 35.264,28.857 35.264,24.917 C 35.264,20.977 32.066,17.779 28.126,17.779 C 24.186,17.779 20.987,20.977 20.987,24.917 Z M 21.608,36.401 L 21.608,41.365 L 34.643,41.365 L 34.643,36.401 L 21.608,36.401 Z" stroke-linecap="round" stroke-width="1.277" fill="#ffffff" marker-start="none" marker-end="none" stroke-miterlimit="79.8403193612775"/>
    </g>
   </g>
  </g>
 </g>
</svg>
