<?xml version="1.0" standalone="no"?>
<!DOCTYPE svg PUBLIC "-//W3C//DTD SVG 1.1//EN" "http://www.w3.org/Graphics/SVG/1.1/DTD/svg11.dtd">
<!--Generator: Xara Xtreme (www.xara.com), SVG filter version: 1.0.0.13-->
<svg stroke-width="0.501" stroke-linejoin="bevel" fill-rule="evenodd" xmlns:xlink="http://www.w3.org/1999/xlink" xmlns="http://www.w3.org/2000/svg" version="1.1" overflow="visible" width="56.25pt" height="56.25pt" viewBox="0 0 56.25 56.25">
 <g id="Document" fill="none" stroke="black" font-family="Times New Roman" font-size="16" transform="scale(1 -1)">
  <g id="Spread" transform="translate(0 -56.25)">
   <g id="icon">
    <g id="Group">
     <rect x="0.001" y="0" width="56.25" height="56.25" stroke-linejoin="miter" stroke-opacity="0.517647" stroke="none"/>
     <g id="Group_1" fill="#ffffff">
      <path d="M 13.282,26.437 C 13.282,34.716 20.003,41.436 28.282,41.436 C 36.561,41.436 43.282,34.716 43.282,26.437 C 43.282,18.158 36.561,11.438 28.282,11.438 C 20.003,11.438 13.282,18.158 13.282,26.437 Z M 41.452,26.437 C 41.452,33.706 35.551,39.606 28.282,39.606 C 21.013,39.606 15.112,33.706 15.112,26.437 C 15.112,19.168 21.013,13.268 28.282,13.268 C 35.551,13.268 41.452,19.168 41.452,26.437 Z" stroke-linejoin="miter" stroke-opacity="0.517647" stroke="none" marker-start="none" marker-end="none"/>
      <path d="M 30.842,20.95 L 28.281,26.773" fill="none" stroke-linecap="round" stroke="#ffffff" stroke-width="3" stroke-linejoin="round" stroke-miterlimit="79.8403193612775"/>
      <path d="M 19.135,30.461 L 28.281,26.773" fill="none" stroke-linecap="round" stroke="#ffffff" stroke-width="3" stroke-linejoin="round" stroke-miterlimit="79.8403193612775"/>
      <path d="M 12.907,39.187 C 12.907,42.292 15.428,44.812 18.533,44.812 C 20.409,44.812 22.072,43.891 23.094,42.478 C 19.279,41.513 16.044,39.083 14.023,35.824 C 13.322,36.762 12.907,37.926 12.907,39.187 Z" stroke-linejoin="miter" stroke-opacity="0.517647" stroke="none" marker-start="none" marker-end="none"/>
      <path d="M 43.343,39.187 C 43.343,42.292 40.822,44.812 37.717,44.812 C 35.841,44.812 34.178,43.891 33.156,42.478 C 36.971,41.513 40.206,39.083 42.227,35.824 C 42.928,36.762 43.343,37.926 43.343,39.187 Z" stroke-linejoin="miter" stroke-opacity="0.517647" stroke="none" marker-start="none" marker-end="none"/>
     </g>
    </g>
   </g>
  </g>
 </g>
</svg>
