<?xml version="1.0" standalone="no"?>
<!DOCTYPE svg PUBLIC "-//W3C//DTD SVG 1.1//EN" "http://www.w3.org/Graphics/SVG/1.1/DTD/svg11.dtd">
<!--Generator: Xara Xtreme (www.xara.com), SVG filter version: 1.0.0.13-->
<svg stroke-width="0.501" stroke-linejoin="bevel" fill-rule="evenodd" xmlns:xlink="http://www.w3.org/1999/xlink" xmlns="http://www.w3.org/2000/svg" version="1.1" overflow="visible" width="56.25pt" height="56.25pt" viewBox="0 0 56.25 56.25">
 <g id="Document" fill="none" stroke="black" font-family="Times New Roman" font-size="16" transform="scale(1 -1)">
  <g id="Spread" transform="translate(0 -56.25)">
   <g id="MouseOff">
    <g id="Group" stroke-linejoin="miter" stroke="none">
     <g id="Group_1" fill="#ffffff">
      <path d="M 14.626,29.01 C 14.626,37.008 20.674,43.5 28.126,43.5 C 35.578,43.5 41.626,37.008 41.626,29.01 C 41.626,28.585 41.608,28.165 41.575,27.75 L 40.2,27.75 C 40.25,28.23 40.276,28.717 40.276,29.212 C 40.276,36.41 34.833,42.253 28.126,42.253 C 21.419,42.253 15.976,36.41 15.976,29.212 C 15.976,28.717 16.001,28.23 16.051,27.75 L 14.676,27.75 C 14.643,28.165 14.626,28.585 14.626,29.01 Z" marker-start="none" marker-end="none"/>
      <path d="M 17.283,14.158 L 16.953,17.046 C 15.714,20.593 15.001,24.775 15.001,29.25 L 15.585,29.25 C 15.585,29.168 15.585,29.088 15.585,29.007 C 15.585,25.925 15.939,22.99 16.58,20.322 L 16.199,23.666 C 16.1,24.537 16.727,25.326 17.599,25.426 L 18.166,25.49 C 19.037,25.59 19.827,24.962 19.926,24.091 L 21.01,14.583 C 21.109,13.712 20.481,12.923 19.61,12.823 L 19.043,12.759 C 18.171,12.659 17.382,13.287 17.283,14.158 Z M 37.202,12.759 L 36.635,12.823 C 35.764,12.923 35.136,13.712 35.235,14.583 L 36.319,24.091 C 36.418,24.962 37.208,25.59 38.079,25.49 L 38.646,25.426 C 39.518,25.326 40.145,24.537 40.046,23.666 L 39.659,20.273 C 40.307,22.954 40.667,25.906 40.667,29.007 C 40.667,29.088 40.666,29.168 40.666,29.25 L 41.251,29.25 C 41.251,24.762 40.532,20.572 39.288,17.018 L 38.962,14.158 C 38.863,13.287 38.074,12.659 37.202,12.759 Z" marker-start="none" marker-end="none"/>
     </g>
    </g>
   </g>
   <g id="MouseOver" display="none"/>
  </g>
 </g>
</svg>
