<?xml version="1.0" standalone="no"?>
<!DOCTYPE svg PUBLIC "-//W3C//DTD SVG 1.1//EN" "http://www.w3.org/Graphics/SVG/1.1/DTD/svg11.dtd">
<!--Generator: Xara Xtreme (www.xara.com), SVG filter version: 1.0.0.13-->
<svg stroke-width="0.501" stroke-linejoin="bevel" fill-rule="evenodd" xmlns:xlink="http://www.w3.org/1999/xlink" xmlns="http://www.w3.org/2000/svg" version="1.1" overflow="visible" width="56.25pt" height="56.25pt" viewBox="0 0 56.25 56.25">
 <g id="Document" fill="none" stroke="black" font-family="Times New Roman" font-size="16" transform="scale(1 -1)">
  <g id="Spread" transform="translate(0 -56.25)">
   <g id="icon">
    <g id="Group" stroke="none">
     <path d="M 13.126,28.125 C 13.126,36.405 19.846,43.125 28.126,43.125 C 36.406,43.125 43.126,36.405 43.126,28.125 C 43.126,19.845 36.406,13.125 28.126,13.125 C 19.846,13.125 13.126,19.845 13.126,28.125 Z M 41.822,28.125 C 41.822,35.685 35.686,41.821 28.126,41.821 C 20.566,41.821 14.43,35.685 14.43,28.125 C 14.43,20.565 20.566,14.429 28.126,14.429 C 35.686,14.429 41.822,20.565 41.822,28.125 Z M 27.304,20.646 C 27.078,20.865 26.966,21.132 26.966,21.446 C 26.966,21.768 27.078,22.034 27.304,22.246 C 27.529,22.472 27.796,22.585 28.104,22.585 C 28.411,22.585 28.678,22.472 28.904,22.246 C 29.129,22.034 29.242,21.768 29.242,21.446 C 29.242,21.132 29.129,20.865 28.904,20.646 C 28.671,20.428 28.404,20.318 28.104,20.318 C 27.803,20.318 27.536,20.428 27.304,20.646 Z M 27.017,25.276 C 26.969,25.56 26.945,25.842 26.945,26.122 C 26.945,26.56 27.032,26.954 27.207,27.306 C 27.381,27.658 27.598,27.988 27.858,28.296 C 28.117,28.603 28.401,28.899 28.709,29.183 C 29.016,29.466 29.3,29.753 29.56,30.044 C 29.82,30.334 30.037,30.639 30.211,30.957 C 30.385,31.274 30.472,31.624 30.472,32.007 C 30.472,32.336 30.409,32.626 30.283,32.879 C 30.156,33.132 29.984,33.344 29.765,33.515 C 29.546,33.686 29.293,33.814 29.006,33.899 C 28.719,33.985 28.415,34.027 28.093,34.027 C 26.938,34.027 25.937,33.573 25.089,32.664 L 25.089,34.468 C 26.135,35.125 27.218,35.453 28.34,35.453 C 28.859,35.453 29.348,35.384 29.806,35.248 C 30.264,35.111 30.666,34.907 31.011,34.638 C 31.356,34.367 31.627,34.031 31.826,33.628 C 32.024,33.224 32.123,32.756 32.123,32.223 C 32.123,31.717 32.034,31.266 31.857,30.869 C 31.679,30.473 31.455,30.109 31.185,29.777 C 30.915,29.446 30.623,29.137 30.308,28.849 C 29.994,28.562 29.702,28.277 29.432,27.993 C 29.161,27.71 28.937,27.414 28.76,27.106 C 28.582,26.799 28.494,26.46 28.493,26.091 C 28.494,25.777 28.531,25.491 28.606,25.235 C 28.681,24.979 28.757,24.762 28.832,24.584 L 27.181,24.584 C 27.12,24.762 27.065,24.992 27.017,25.276 Z" stroke-linejoin="round" stroke-linecap="round" stroke-width="0.375" fill="#ffffff" fill-rule="nonzero" marker-start="none" marker-end="none" stroke-miterlimit="79.8403193612775"/>
     <rect x="0.001" y="0" width="56.25" height="56.25" stroke-linejoin="miter" stroke-opacity="0.517647"/>
    </g>
   </g>
  </g>
 </g>
</svg>
