<?xml version="1.0" standalone="no"?>
<!DOCTYPE svg PUBLIC "-//W3C//DTD SVG 1.1//EN" "http://www.w3.org/Graphics/SVG/1.1/DTD/svg11.dtd">
<!--Generator: Xara Xtreme (www.xara.com), SVG filter version: 1.0.0.13-->
<svg stroke-width="0.501" stroke-linejoin="bevel" fill-rule="evenodd" xmlns:xlink="http://www.w3.org/1999/xlink" xmlns="http://www.w3.org/2000/svg" version="1.1" overflow="visible" width="56.25pt" height="56.25pt" viewBox="0 0 56.25 56.25">
 <g id="Document" fill="none" stroke="black" font-family="Times New Roman" font-size="16" transform="scale(1 -1)">
  <g id="Spread" transform="translate(0 -56.25)">
   <g id="icon">
    <g id="Group" stroke-linejoin="miter" stroke="none">
     <path d="M 11.962,11.797 C 10.536,14.682 11.351,18.873 13.543,23.343 C 14.389,25.055 19.204,32.989 23.37,37.33 C 17.685,33.484 16.569,31.842 12.933,28.064 C 12.942,32.702 14.385,36.337 17.255,38.966 C 20.134,41.609 23.779,42.929 28.182,42.929 C 29.195,42.929 30.16,42.871 31.083,42.756 C 35.345,45.421 39.149,47.029 42.525,46.185 C 45.906,45.339 45.217,41.013 44.003,38.312 C 45.217,43.224 44.141,45.339 41.68,45.339 C 39.99,45.339 36.167,44.406 33.193,42.374 C 35.846,41.733 38.08,40.535 39.894,38.785 C 42.754,36.017 44.122,31.783 43.997,26.077 L 21.953,26.077 C 22.013,23.87 22.723,22.149 24.081,20.921 C 25.439,19.695 27.13,19.082 29.154,19.082 C 30.53,19.082 31.69,19.399 32.631,20.036 C 33.568,20.672 34.278,21.697 34.759,23.109 L 43.525,23.091 C 42.398,20.373 40.619,17.073 38.189,15.649 C 35.755,14.227 32.713,13.517 29.06,13.517 C 27.804,13.517 26.617,13.591 25.503,13.743 C 22.137,10.86 13.988,7.698 11.962,11.797 Z M 25.343,13.766 C 21.404,14.327 18.365,15.846 16.221,18.314 C 15.789,18.817 15.4,19.349 15.052,19.905 C 13.801,16.917 13.307,14.37 13.904,12.779 C 15.676,9.354 21.646,11.824 25.343,13.766 Z M 33.286,35.548 C 32.035,36.669 30.511,37.231 28.717,37.231 C 26.794,37.231 25.207,36.64 23.955,35.456 C 22.703,34.276 22.086,32.664 22.108,30.633 L 35.26,30.633 C 35.197,32.79 34.538,34.427 33.286,35.548 Z" fill="#ffffff" marker-start="none" marker-end="none"/>
     <rect x="0.001" y="0" width="56.25" height="56.25" stroke-opacity="0.517647"/>
    </g>
   </g>
  </g>
 </g>
</svg>
