<?xml version="1.0" standalone="no"?>
<!DOCTYPE svg PUBLIC "-//W3C//DTD SVG 1.1//EN" "http://www.w3.org/Graphics/SVG/1.1/DTD/svg11.dtd">
<svg stroke-width="0.501" stroke-linejoin="bevel" fill-rule="evenodd" xmlns:xlink="http://www.w3.org/1999/xlink" xmlns="http://www.w3.org/2000/svg" version="1.1" overflow="visible" width="56.25pt" height="56.25pt" viewBox="0 0 56.25 56.25">
 <g id="Document" fill="none" stroke="black" font-family="Times New Roman" font-size="16" transform="scale(1 -1)">
  <g id="Spread_1" transform="translate(0 -56.25)">
    <g id="Group_3" stroke="none">
     <g id="Group_4" stroke-width="0.5" fill="#ffffff" stroke-miterlimit="79.8403193612775">
      <path d="M 11.625,28.124 C 11.625,37.231 19.018,44.624 28.125,44.624 C 37.232,44.624 44.625,37.231 44.625,28.124 C 44.625,19.017 37.232,11.624 28.125,11.624 C 19.018,11.624 11.625,19.017 11.625,28.124 Z M 43.875,28.124 C 43.875,36.817 36.818,43.874 28.125,43.874 C 19.432,43.874 12.375,36.817 12.375,28.124 C 12.375,19.431 19.432,12.374 28.125,12.374 C 36.818,12.374 43.875,19.431 43.875,28.124 Z" marker-start="none" marker-end="none"/>
      <path d="M 24.342,13.807 C 24.349,13.835 24.235,13.867 24.178,13.883 L 24.027,13.488 C 22.889,13.818 21.836,14.274 20.861,14.84 L 20.71,15.118 L 20.785,15.132 L 20.587,15.472 L 20.607,15.61 L 20.519,15.736 L 20.525,15.826 L 20.43,16.054 L 20.313,16.686 L 20.081,17.434 L 19.951,17.753 L 19.321,18.384 L 18.836,18.738 L 18.377,19.252 L 18.398,19.369 L 17.953,20.028 L 17.003,21.519 L 16.756,21.616 L 16.729,21.762 C 16.699,21.907 16.64,22.199 16.654,22.199 C 16.667,22.199 16.809,22.24 16.88,22.261 C 16.853,22.304 16.801,22.388 16.802,22.404 C 16.787,22.398 16.728,22.381 16.695,22.372 L 16.442,22.878 L 16.531,22.892 L 16.544,23.266 L 16.661,23.405 L 16.825,23.419 C 16.836,23.491 16.859,23.635 16.88,23.635 C 16.9,23.635 16.946,23.653 16.968,23.662 L 17.023,23.987 L 16.934,24.722 L 16.681,25.083 L 16.743,25.229 L 16.661,25.257 L 16.524,25.125 L 16.599,24.841 L 16.483,24.813 L 16.278,24.854 L 16.12,24.959 L 15.881,25.174 L 15.696,25.174 L 15.45,25.374 L 15.388,25.52 C 15.302,25.564 15.129,25.652 15.122,25.666 C 15.115,25.679 15.064,25.777 15.04,25.825 L 14.951,25.818 L 14.998,25.701 L 14.8,25.791 L 14.773,26.068 L 14.205,26.623 L 14.308,26.699 L 14.191,26.803 L 14.123,26.741 L 13.192,27.035 C 13.158,27.429 13.138,27.819 13.139,28.202 L 13.329,28.364 C 13.38,28.433 13.48,28.572 13.46,28.572 C 13.439,28.572 13.576,28.711 13.644,28.78 L 14.267,28.752 L 14.376,28.814 L 14.486,28.752 L 14.492,28.641 L 14.212,28.37 L 14.335,28.28 L 14.239,27.996 L 14.157,27.975 L 14.068,27.85 L 14.041,27.49 L 13.802,27.386 L 14.205,27.366 L 14.807,27.275 L 15.272,27.254 L 15.211,27.122 L 15.313,27.171 C 15.363,27.15 15.464,27.108 15.477,27.108 C 15.491,27.108 15.404,26.9 15.361,26.797 L 15.443,26.436 L 15.293,26.283 L 15.279,25.964 L 15.751,25.403 L 16.284,25.298 L 16.49,25.361 L 16.585,25.611 L 16.982,25.34 L 17.003,25.194 L 17.228,25.513 L 17.249,25.833 L 18.152,26.235 L 18.289,26.151 L 18.056,26.006 L 18.124,25.818 L 18.022,25.589 L 18.213,25.285 L 18.295,25.596 L 18.254,25.833 L 18.521,25.985 L 18.528,26.192 L 18.843,25.902 C 18.9,25.82 19.014,25.659 19,25.659 C 18.986,25.659 19.287,25.746 19.438,25.791 L 19.472,25.618 L 19.704,25.548 L 20.094,25.589 L 19.978,25.708 L 20.265,25.853 L 20.409,25.749 L 20.231,25.666 L 20.464,25.396 C 20.464,25.388 20.717,25.347 20.696,25.347 C 20.676,25.347 20.735,25.208 20.765,25.139 L 21.059,25.063 L 21.442,24.639 L 21.613,24.563 L 21.668,24.279 L 21.969,24.272 L 22.324,24.348 L 22.53,24.182 C 22.641,24.164 22.865,24.126 22.885,24.126 C 22.906,24.126 22.897,24.029 22.892,23.981 C 22.983,23.909 23.166,23.765 23.207,23.759 C 23.248,23.752 23.316,23.817 23.35,23.849 L 23.426,23.53 L 23.515,23.384 L 23.384,23.252 C 23.435,23.225 23.535,23.169 23.549,23.169 C 23.562,23.169 23.498,23.068 23.467,23.017 L 23.617,23.017 L 23.658,22.761 L 23.569,22.767 L 23.515,22.6 L 23.296,22.309 L 23.46,22.115 L 23.679,22.49 L 23.774,22.385 L 23.98,22.49 L 24.185,22.372 L 24.616,22.309 L 25.225,21.796 L 26.38,21.72 L 26.777,21.332 L 27.304,21.352 L 27.413,20.805 L 27.304,20.513 L 27.406,20.339 L 27.153,19.841 L 27.078,19.66 L 26.969,19.577 L 26.743,18.939 L 26.524,18.918 L 26.463,18.134 L 26.558,18.121 L 26.456,17.594 L 26.428,17.108 L 26.025,16.088 C 25.984,15.971 25.902,15.736 25.902,15.721 C 25.902,15.707 25.633,15.703 25.498,15.7 L 25.259,15.514 L 24.978,15.521 L 24.493,14.786 L 24.602,14.459 L 24.664,14.078 L 24.424,13.883 L 24.479,13.78 L 24.308,13.426 L 24.199,13.426 C 24.24,13.549 24.335,13.78 24.342,13.807 Z M 35.538,14.702 L 35.559,15.013 L 35.713,15.767 L 35.428,15.767 L 35.735,17.032 L 35.472,18.009 L 36.26,19.895 C 36.231,20.257 36.172,20.982 36.216,21.005 C 36.26,21.027 35.808,21.678 35.581,22.003 L 35.953,23.334 L 35.647,23.778 L 35.472,23.646 L 35.012,23.668 L 34.202,24.311 L 32.758,23.601 L 31.269,23.534 L 30.853,23.734 L 30.7,24.111 L 30.328,24.2 L 30.087,24.6 L 30.219,24.91 L 29.606,25.598 L 29.409,26.841 L 29.759,29.216 L 30.722,30.414 L 31.773,31.191 L 32.32,32.078 L 32.823,32.255 L 32.977,32.677 L 33.458,32.5 L 34.049,32.322 L 34.137,32.633 L 34.771,32.744 L 36.26,32.522 L 36.632,32.722 L 36.807,32.034 L 36.457,31.9 L 37.004,31.368 L 37.332,31.368 L 37.661,31.124 L 38.602,30.547 L 38.799,30.68 L 38.689,31.057 L 39.04,31.301 C 39.266,31.131 39.718,30.791 39.828,30.814 C 39.937,30.836 40.419,30.614 40.659,30.502 L 41.01,30.724 L 41.623,30.525 L 41.907,30.303 L 41.863,30.636 L 41.951,30.879 L 41.754,30.946 L 41.995,31.635 L 41.71,32.034 L 41.535,31.923 L 41.207,31.99 L 40.878,32.278 L 40.878,32.078 L 40.55,32.1 L 40.09,32.345 L 39.959,33.099 L 40.703,33.143 L 41.71,33.033 L 42.345,32.611 L 42.98,29.77 L 43.111,28.461 L 42.87,28.904 L 42.542,29.171 L 42.082,29.948 L 41.754,29.703 L 42.826,28.35 L 42.783,27.928 L 43.045,27.684 C 42.876,24.852 42.22,22.286 40.878,20.095 L 39.893,19.319 L 39.806,18.985 L 38.865,17.92 L 36.698,15.457 L 35.538,14.702 Z M 16.804,22.407 C 16.803,22.407 16.802,22.406 16.802,22.404 C 16.806,22.406 16.807,22.407 16.804,22.407 Z M 18.923,27.561 L 18.255,27.65 L 18.233,27.75 C 18.383,27.757 18.682,27.772 18.704,27.767 C 18.726,27.761 18.693,27.916 18.693,27.933 C 18.693,27.949 18.594,27.954 18.545,27.956 L 18.496,28.183 L 18.813,28.183 L 19.224,28.277 C 19.224,28.272 19.601,28.149 19.629,28.144 C 19.656,28.138 19.82,28.008 19.902,27.944 L 19.995,27.828 L 19.897,27.756 L 19.716,27.734 L 19.536,27.777 L 19.109,27.611 L 18.923,27.561 Z M 17.325,27.589 L 17.161,27.689 L 16.914,27.783 L 16.887,27.788 L 16.986,27.872 L 17.319,27.844 L 17.5,27.678 L 17.325,27.589 Z M 20.455,27.806 L 20.428,27.806 C 20.436,27.806 20.445,27.806 20.455,27.806 C 20.596,27.806 20.833,27.805 20.843,27.794 C 20.854,27.783 20.865,27.736 20.871,27.711 L 20.805,27.639 L 20.356,27.639 C 20.34,27.639 20.455,27.783 20.455,27.806 Z M 17.133,28.277 L 17.287,28.427 C 17.274,28.46 17.248,28.526 17.237,28.532 C 17.226,28.538 17.04,28.544 17.024,28.544 C 17.007,28.544 16.827,28.771 16.789,28.771 C 16.75,28.771 16.438,28.809 16.438,28.815 L 16.433,28.937 L 16.017,28.921 L 15.886,29.065 C 15.811,29.035 15.661,28.976 15.639,28.976 C 15.618,28.976 15.158,28.881 15.158,28.892 L 15.295,29.042 L 15.743,29.186 L 16.241,29.126 C 16.298,29.137 16.404,29.159 16.417,29.163 C 16.416,29.164 16.416,29.165 16.416,29.165 C 16.418,29.165 16.418,29.164 16.417,29.163 C 16.437,29.145 16.986,28.849 17.265,28.699 L 18.129,28.266 C 17.978,28.234 17.675,28.172 17.637,28.172 C 17.598,28.172 17.288,28.241 17.133,28.277 Z M 17.105,29.18 L 17.001,29.301 L 16.897,29.462 L 17.034,29.684 L 17.132,29.485 L 17.116,29.329 L 17.209,29.245 L 17.105,29.18 Z M 16.403,29.461 L 16.266,29.474 L 16.02,29.821 L 16.007,30.14 L 15.61,30.639 L 15.24,30.57 L 14.967,30.778 L 13.982,30.681 L 14.091,30.446 L 13.926,30.36 L 13.297,30.5 C 13.896,34.462 15.874,37.478 18.25,39.655 L 18.537,39.641 L 18.852,39.835 L 19.002,40.14 L 19.331,40.474 L 19.55,40.445 L 19.892,40.64 L 19.536,39.988 L 19.262,39.919 L 19.002,39.614 L 18.743,39.475 L 18.77,39.336 L 18.401,39.072 L 18.223,39.072 L 17.976,38.809 L 18.209,38.781 L 17.238,37.976 L 16.896,37.561 L 17.128,37.63 L 17.019,37.158 L 17.511,37.436 C 17.525,37.436 17.457,37.214 17.498,37.214 C 17.539,37.214 17.648,37.158 17.703,37.131 L 17.99,37.366 L 18.168,37.27 L 17.894,36.797 L 17.963,36.409 L 18.428,36.479 C 18.478,36.604 18.578,36.853 18.537,36.853 C 18.496,36.853 18.569,37.167 18.606,37.325 L 19.112,37.602 L 19.29,38.101 C 19.258,38.227 19.194,38.476 19.235,38.504 C 19.276,38.532 19.404,38.633 19.468,38.684 L 19.495,39.031 L 19.7,39.35 L 19.905,39.378 L 20.165,39.6 L 20.288,39.267 L 20.535,39.419 L 20.398,39.128 L 20.412,38.85 L 20.808,38.753 L 21.055,38.989 L 20.959,39.087 L 21.342,39.447 L 21.492,39.253 L 21.41,39.031 L 21.67,38.906 L 21.506,38.601 L 21.807,38.448 L 22.19,38.421 L 21.875,38.032 L 21.971,37.963 L 22.628,38.393 L 22.6,37.838 L 22.34,37.658 L 22.026,37.283 L 21.479,37.144 L 20.658,36.784 L 20.124,36.465 L 19.714,35.813 L 20.357,36.299 L 21.041,36.576 L 21.013,36.326 L 20.713,36.271 L 20.836,35.979 L 21.041,35.813 L 21.643,35.786 L 21.068,35.314 L 21,35.119 L 20.781,34.995 L 20.658,35.105 L 20.822,35.397 L 21.191,35.605 L 20.644,35.563 L 20.001,35.036 L 19.536,34.662 L 19.536,34.37 L 18.77,33.913 L 18.606,33.483 L 18.428,33.413 L 18.223,33.483 L 18.264,33.109 L 18.113,32.9 L 18.031,33.317 L 17.812,33.109 L 17.949,32.221 L 17.334,31.916 L 16.649,31.417 L 16.39,31.125 L 16.335,30.612 L 16.526,29.835 L 16.403,29.461 Z M 39.315,32.182 L 39.239,32.273 L 39.205,32.397 L 39.068,32.536 L 39.007,32.855 L 38.856,32.91 L 38.836,33.257 L 38.877,33.271 L 38.863,33.376 L 38.774,33.417 L 38.617,33.674 L 38.418,33.75 C 38.402,33.844 38.371,34.034 38.35,34.034 C 38.329,34.034 38.083,34.104 37.96,34.138 C 37.958,34.198 37.953,34.318 37.94,34.318 C 37.926,34.318 37.716,34.364 37.611,34.387 L 37.502,34.651 L 37.413,34.824 L 37.037,34.9 L 36.921,34.859 L 36.79,34.949 L 36.914,34.707 L 37.201,34.512 L 37.297,34.256 L 37.632,33.999 L 37.858,33.979 L 37.885,33.93 L 37.83,33.882 C 37.965,33.8 38.234,33.638 38.248,33.638 C 38.261,33.638 38.453,33.466 38.473,33.459 C 38.494,33.452 38.526,33.373 38.542,33.334 L 38.521,33.291 L 38.425,33.354 L 38.282,33.452 L 38.193,33.542 L 38.104,33.479 L 38.104,33.327 L 38.261,33.223 L 38.343,33.078 L 38.227,33.091 L 38.186,33.015 L 38.22,32.917 L 38.117,32.8 L 38.042,32.8 L 38.001,32.848 L 38.015,32.986 L 38.09,33.063 L 37.858,33.417 L 37.673,33.493 L 37.386,33.771 L 37.064,33.937 L 36.483,34.471 L 36.154,34.9 L 35.833,34.651 L 35.34,34.915 L 35.087,34.824 L 35.128,34.436 L 35.005,34.311 L 34.656,34.201 L 34.513,34.034 L 34.314,33.743 L 34.506,33.403 L 34.355,33.34 L 34.239,33.098 L 34.294,33.029 L 34.13,33.049 L 34,32.939 L 33.925,32.778 L 33.699,32.8 L 33.377,32.855 L 33.158,32.8 L 33.042,32.688 L 32.844,32.709 L 32.734,33 L 32.481,33.112 L 32.379,33.078 L 32.064,33.132 L 32.064,33.625 L 31.934,33.771 L 31.934,33.965 L 32.002,33.992 L 32.173,34.595 L 32.023,35.227 L 32.132,35.345 C 32.178,35.324 32.269,35.283 32.29,35.283 C 32.31,35.283 32.26,35.357 32.235,35.393 L 32.447,35.435 L 32.509,35.345 L 32.816,35.345 C 32.867,35.319 32.967,35.268 32.987,35.268 C 33.008,35.268 33.281,35.209 33.418,35.178 L 33.897,35.061 L 34.034,35.511 L 33.993,36.031 L 33.815,36.121 L 33.555,36.607 L 33.288,36.724 L 33.206,36.968 L 33.487,36.988 L 33.671,36.822 L 33.938,36.815 L 33.856,36.933 L 33.733,37.148 L 33.466,37.107 L 33.241,37.21 L 33.179,37.016 L 33.049,37.078 L 32.867,36.961 L 32.714,37.026 L 32.851,37.157 L 33.042,37.338 L 33.239,37.338 L 33.371,37.56 L 33.195,37.448 L 32.977,37.471 L 32.845,37.448 L 32.714,37.626 L 32.933,37.737 L 32.845,38.004 L 32.758,38.204 L 32.955,38.137 L 33.152,38.137 L 32.911,38.514 L 33.02,38.691 L 32.758,38.624 L 32.583,38.824 L 32.714,39.002 L 32.561,39.202 L 32.473,39.024 L 32.298,39.068 L 32.32,39.268 L 32.32,39.468 L 32.211,39.69 L 32.254,39.801 L 32.386,40.067 L 32.758,40.067 L 32.758,39.957 L 32.626,39.823 L 32.605,39.668 L 32.758,39.69 L 33.13,39.602 L 32.955,39.224 L 32.845,39.113 L 33.042,39.113 L 33.217,38.958 L 33.48,38.514 L 33.633,38.492 L 33.918,38.004 L 33.808,37.937 L 33.896,37.848 L 34.005,37.915 L 34.29,37.825 L 34.268,37.537 L 34.115,37.36 L 34.334,37.271 L 34.115,37.116 L 33.94,37.16 L 33.962,37.005 L 34.246,36.938 L 34.509,37.116 L 34.465,37.405 L 34.662,37.426 L 34.553,37.959 L 34.771,38.425 L 35.384,38.603 L 35.669,38.403 L 35.713,38.603 L 35.384,39.29 L 35.253,39.024 L 34.815,39.423 L 34.64,39.446 L 34.443,39.69 L 34.443,40.112 L 34.925,40.112 L 34.815,39.757 L 35.1,39.468 L 35.45,39.468 L 34.925,40.556 L 34.202,40.644 L 33.918,41.066 L 33.83,41.398 L 33.786,41.909 L 34.224,42.02 C 34.898,41.763 35.571,41.38 36.245,40.913 L 35.932,40.821 L 36.041,40.334 L 36.435,39.823 L 36.326,39.668 L 36.085,39.734 L 36.107,39.113 L 36.326,39.29 L 36.457,38.98 L 36.413,38.691 L 35.8,39.158 L 35.953,38.736 L 36.194,38.558 L 36.216,38.425 L 36.413,38.336 L 36.61,38.469 L 36.938,38.204 L 37.354,37.804 L 37.245,38.092 L 37.442,38.314 L 37.595,38.314 L 37.88,38.004 L 38.011,38.047 L 37.814,38.359 L 38.23,38.381 L 38.011,38.536 L 37.07,39.135 L 36.982,39.49 L 36.654,39.823 L 36.347,40.467 L 36.56,40.691 C 39.234,38.77 41.042,36.25 42.102,33.278 C 42.113,33.264 41.535,33.559 41.244,33.659 L 41.018,33.86 L 40.573,34.27 L 40.231,34.318 L 40.382,33.583 L 39.992,33.674 L 39.978,33.41 L 39.793,33.34 L 39.725,33.597 L 39.54,33.625 C 39.554,33.558 39.581,33.424 39.581,33.403 C 39.581,33.382 39.549,33.354 39.533,33.34 L 39.315,33.424 L 39.13,33.403 L 39.308,33.195 L 39.349,33.056 C 39.401,33.006 39.506,32.903 39.52,32.903 C 39.533,32.903 39.602,32.76 39.636,32.688 L 39.575,32.612 C 39.577,32.554 39.581,32.439 39.602,32.411 C 39.622,32.383 39.558,32.361 39.527,32.349 L 39.356,32.383 C 39.356,32.323 39.356,32.204 39.369,32.204 C 39.383,32.204 39.337,32.189 39.315,32.182 Z M 37.95,32.429 L 37.779,32.472 L 37.709,32.571 L 37.574,32.593 L 37.245,32.774 L 37.175,32.903 L 37.202,32.974 L 37.28,32.93 L 37.307,32.957 L 37.407,32.948 L 37.429,32.912 L 37.683,32.872 L 37.836,32.912 L 37.963,32.916 C 37.943,32.835 37.902,32.672 37.906,32.659 C 37.911,32.646 37.972,32.569 38.003,32.53 L 37.95,32.429 Z M 36.221,33.364 L 36.138,33.37 L 36.059,33.569 L 36.098,33.592 L 36.059,33.663 L 36.046,33.844 L 35.954,33.924 C 35.96,33.94 35.971,33.973 35.976,33.982 L 36.024,33.941 L 36.116,33.964 L 36.221,34.017 L 36.313,33.946 L 36.383,33.76 L 36.33,33.711 L 36.396,33.383 C 36.382,33.386 36.352,33.392 36.339,33.392 C 36.326,33.392 36.276,33.424 36.252,33.44 L 36.221,33.364 Z M 36.221,34.048 L 36.059,34.226 L 36.028,34.417 L 36.125,34.484 L 36.173,34.484 L 36.168,34.563 L 36.239,34.426 L 36.274,34.234 L 36.221,34.048 Z M 21.92,35.872 L 21.749,35.886 L 21.776,36.059 L 21.886,36.163 L 22.043,35.982 L 21.934,35.982 L 21.92,35.872 Z M 22.883,36.568 C 22.911,36.649 22.926,36.853 22.915,36.853 L 22.696,36.84 L 22.532,36.548 L 22.245,36.604 C 22.258,36.604 22.404,37.232 22.477,37.547 L 22.737,37.727 L 22.751,37.187 L 22.97,37.103 L 23.134,37.325 L 23.325,37.158 L 23.462,36.673 L 23.243,36.84 C 23.137,36.763 22.952,36.63 22.883,36.568 C 22.876,36.547 22.869,36.535 22.86,36.535 C 22.85,36.535 22.86,36.547 22.883,36.568 Z M 21.393,36.724 L 21.229,36.787 L 21.202,36.898 L 21.339,36.885 L 21.51,36.856 L 21.674,36.863 L 21.633,36.76 L 21.393,36.724 Z M 31.725,37.652 L 31.576,37.697 L 31.467,37.807 L 31.454,37.963 L 31.603,38.034 L 31.76,38.087 L 31.585,38.087 L 31.751,38.287 L 31.603,38.3 L 31.471,38.425 L 31.611,38.548 L 31.502,38.567 L 31.524,38.722 C 31.613,38.704 31.791,38.669 31.808,38.669 C 31.826,38.669 31.891,38.762 31.896,38.766 L 31.795,38.811 L 31.835,38.869 L 31.835,38.931 L 31.992,38.983 L 32.036,38.912 L 32.04,38.997 L 32.128,38.983 L 32.145,38.912 L 32.277,38.962 L 32.426,38.784 L 32.496,38.664 L 32.491,38.557 L 32.417,38.513 L 32.325,38.492 L 32.426,38.247 L 32.456,38.038 C 32.439,37.967 32.404,37.825 32.404,37.812 C 32.404,37.799 32.296,37.813 32.242,37.821 L 31.979,37.732 L 31.725,37.652 Z M 18.835,39.138 L 19.143,39.672 L 19.348,39.547 L 19.376,39.36 L 19.211,39.374 L 18.835,39.138 Z M 21,39.669 L 20.713,39.724 L 20.261,40.098 L 20.466,40.335 L 20.877,41.028 L 20.576,41.18 L 20.261,40.931 L 19.837,40.806 L 19.919,40.959 C 20.189,41.153 20.528,41.385 20.942,41.58 L 21.15,41.458 L 21.15,41.126 L 21.561,41.126 C 21.643,41.075 21.807,40.972 21.78,40.959 C 21.752,40.945 21.533,40.612 21.533,40.626 L 21.232,40.82 L 21.096,40.598 L 21.164,40.376 L 21.26,40.057 L 20.877,40.044 L 21,39.669 Z M 19.964,39.7 L 19.827,39.783 L 20.121,40.047 L 20.183,39.811 L 19.964,39.7 Z M 24.034,40.636 L 23.904,40.789 L 23.781,40.726 C 23.621,40.733 23.302,40.747 23.274,40.761 C 23.247,40.775 23.242,40.885 23.24,40.941 C 23.199,40.999 23.117,41.114 23.124,41.149 C 23.131,41.184 23.008,41.179 22.946,41.177 L 22.967,41.343 L 22.755,41.593 L 22.857,41.871 L 22.789,42.037 L 22.973,42.155 L 22.953,42.377 L 22.693,42.155 L 22.645,42.342 L 22.873,42.472 C 23.402,42.721 24.053,42.873 24.8,43.063 L 24.807,42.758 L 24.752,42.571 L 24.663,42.557 L 24.629,42.439 L 24.472,42.391 L 24.273,42.106 L 24.335,42.057 L 24.164,41.732 L 24.287,41.627 L 24.218,41.336 L 24.335,41.197 C 24.3,41.158 24.232,41.08 24.232,41.059 C 24.232,41.038 24.264,40.968 24.28,40.934 L 24.273,40.823 L 24.321,40.74 C 24.285,40.703 24.212,40.629 24.198,40.629 C 24.184,40.629 24.084,40.634 24.034,40.636 Z M 30.164,41.664 L 29.791,41.737 L 29.737,41.695 L 29.617,41.72 L 29.555,41.847 L 29.316,41.889 L 29.251,41.986 L 29.121,41.997 L 29.032,42.094 L 28.639,42.125 L 28.683,42.267 L 28.759,42.271 L 28.844,42.306 L 28.834,42.413 L 28.663,42.51 L 28.68,42.923 L 28.724,42.919 L 28.796,43.038 L 28.933,43.009 C 28.955,42.976 28.998,42.909 28.998,42.902 C 28.998,42.895 29.044,42.846 29.066,42.822 L 29.107,42.655 L 29.217,42.677 C 29.217,42.68 29.162,42.826 29.169,42.829 C 29.176,42.833 29.203,42.867 29.217,42.885 L 29.33,42.895 L 29.456,42.75 L 29.501,42.853 L 30.079,42.794 L 30.181,42.638 L 30.226,42.736 L 30.219,42.777 L 30.294,42.77 L 30.38,42.916 L 30.547,42.801 L 30.687,42.718 L 30.708,42.528 L 30.818,42.423 L 30.753,42.23 L 30.797,42.094 L 30.722,42.073 C 30.716,42.04 30.705,41.972 30.698,41.956 C 30.691,41.939 30.513,41.99 30.523,41.99 C 30.534,41.99 30.486,41.904 30.462,41.862 L 30.472,41.747 L 30.263,41.793 L 30.164,41.664 Z" marker-start="none" marker-end="none"/>
     </g>
     <rect x="0.001" y="0" width="56.25" height="56.25" stroke-linejoin="miter" stroke-opacity="0.517647"/>
    </g>
  </g>
 </g>
</svg>
