<?xml version="1.0" standalone="no"?>
<!DOCTYPE svg PUBLIC "-//W3C//DTD SVG 1.1//EN" "http://www.w3.org/Graphics/SVG/1.1/DTD/svg11.dtd">
<!--Generator: Xara Xtreme (www.xara.com), SVG filter version: 1.0.0.13-->
<svg stroke-width="0.501" stroke-linejoin="bevel" fill-rule="evenodd" xmlns:xlink="http://www.w3.org/1999/xlink" xmlns="http://www.w3.org/2000/svg" version="1.1" overflow="visible" width="56.25pt" height="56.25pt" viewBox="0 0 56.25 56.25">
 <g id="Document" fill="none" stroke="black" font-family="Times New Roman" font-size="16" transform="scale(1 -1)">
  <g id="Spread" transform="translate(0 -56.25)">
   <g id="icon">
    <g id="Group" stroke-linejoin="miter" stroke-opacity="0.517647" stroke="none">
     <rect x="0.001" y="0" width="56.25" height="56.25"/>
     <path d="M 8.999,11.624 L 8.999,15.041 L 16.692,21.11 L 17.249,20.471 L 17.249,13.823 L 8.999,11.624 Z M 18.75,14.223 L 18.749,21.339 L 16.829,23.476 L 20.25,26.327 L 20.25,14.624 L 18.75,14.223 Z M 8.999,16.668 L 8.999,19.338 L 14.188,23.879 L 15.838,22.042 L 8.999,16.668 Z M 8.999,20.97 L 8.999,28.037 L 10.03,28.51 L 13.368,24.793 L 8.999,20.97 Z M 16,24.399 L 11.644,29.25 L 20.25,33.198 L 20.25,27.94 L 16,24.399 Z M 8.999,31.147 L 8.999,41.623 L 20.25,44.623 L 20.25,36.307 L 8.999,31.147 Z" fill="#ffffff" marker-start="none" marker-end="none"/>
     <path d="M 32.999,11.624 L 30.572,12.269 C 28.284,15.772 27.045,19.083 26.581,22.624 L 32.998,19.687 L 32.999,11.624 Z M 27.56,13.074 L 21.748,14.624 L 21.748,26.491 L 24.045,25.112 C 24.269,20.959 25.308,17.04 27.56,13.074 Z M 32.999,20.995 L 26.44,23.998 C 26.265,26.33 26.4,28.782 26.769,31.467 L 32.998,29.269 L 32.999,20.995 Z M 23.998,26.756 L 21.748,28.106 L 21.747,33.24 L 24.361,32.317 C 24.122,30.4 23.991,28.553 23.998,26.756 Z M 32.999,32.375 L 21.747,36.346 L 21.748,44.623 L 32.999,41.623 L 32.999,32.375 Z M 24.7,33 L 24.733,32.999 L 24.699,32.999 L 24.7,33 Z" fill="#ffffff" marker-start="none" marker-end="none"/>
     <path d="M 34.497,11.624 L 34.497,19.65 L 38.663,21.245 C 38.965,18.182 40.444,15.248 42.419,13.736 L 34.497,11.624 Z M 39.393,21.523 L 40.566,21.972 C 40.785,20.546 41.512,19.499 42.375,19.499 C 43.41,19.499 44.251,21.011 44.251,22.874 C 44.251,24.382 43.698,25.661 42.938,26.092 L 42.938,31.938 L 45.748,32.826 L 45.748,14.624 L 43.091,13.915 C 41.104,15.981 39.72,18.093 39.393,21.523 Z M 34.497,20.854 L 34.497,29.273 L 41.813,31.583 L 41.812,26.094 C 41.098,25.691 40.568,24.54 40.505,23.154 L 34.497,20.854 Z M 34.497,32.378 L 34.497,41.623 L 45.748,44.623 L 45.748,35.931 L 34.497,32.378 Z" fill="#ffffff" marker-start="none" marker-end="none"/>
    </g>
   </g>
  </g>
 </g>
</svg>
