<?xml version="1.0" standalone="no"?>
<!DOCTYPE svg PUBLIC "-//W3C//DTD SVG 1.1//EN" "http://www.w3.org/Graphics/SVG/1.1/DTD/svg11.dtd">
<!--Generator: Xara Xtreme (www.xara.com), SVG filter version: 1.0.0.13-->
<svg stroke-width="0.501" stroke-linejoin="bevel" fill-rule="evenodd" xmlns:xlink="http://www.w3.org/1999/xlink" xmlns="http://www.w3.org/2000/svg" version="1.1" overflow="visible" width="56.25pt" height="56.25pt" viewBox="0 0 56.25 56.25">
 <g id="Document" fill="none" stroke="black" font-family="Times New Roman" font-size="16" transform="scale(1 -1)">
  <g id="Spread" transform="translate(0 -56.25)">
   <g id="icon">
    <g id="Group" stroke-linejoin="miter" stroke="none">
     <path d="M 14.624,17.016 C 14.624,19.758 17.061,21.985 20.062,21.985 C 21.252,21.985 22.353,21.634 23.249,21.04 L 23.249,35.666 L 23.252,35.666 L 23.252,41.203 L 41.627,44.203 L 41.627,19.266 C 41.627,16.524 39.19,14.297 36.189,14.297 C 33.188,14.297 30.751,16.524 30.751,19.266 C 30.751,22.008 33.188,24.235 36.189,24.235 C 37.379,24.235 38.48,23.884 39.376,23.29 L 39.376,37.086 L 25.499,34.82 L 25.5,17.016 C 25.5,14.274 23.063,12.047 20.062,12.047 C 17.061,12.047 14.624,14.274 14.624,17.016 Z" fill="#ffffff" marker-start="none" marker-end="none"/>
     <rect x="0.001" y="0" width="56.25" height="56.25" stroke-opacity="0.517647"/>
    </g>
   </g>
  </g>
 </g>
</svg>
