<?xml version="1.0" standalone="no"?>
<!DOCTYPE svg PUBLIC "-//W3C//DTD SVG 1.1//EN" "http://www.w3.org/Graphics/SVG/1.1/DTD/svg11.dtd">
<!--Generator: Xara Xtreme (www.xara.com), SVG filter version: 1.0.0.13-->
<svg stroke-width="0.501" stroke-linejoin="bevel" fill-rule="evenodd" xmlns:xlink="http://www.w3.org/1999/xlink" xmlns="http://www.w3.org/2000/svg" version="1.1" overflow="visible" width="56.25pt" height="56.25pt" viewBox="0 0 56.25 56.25">
 <g id="Document" fill="none" stroke="black" font-family="Times New Roman" font-size="16" transform="scale(1 -1)">
  <g id="Spread" transform="translate(0 -56.25)">
   <g id="icon">
    <g id="Group" stroke-linejoin="miter" stroke="none">
     <path d="M 32.251,10.5 L 9.75,13.5 L 9.75,42.749 L 32.251,45.749 L 32.251,10.5 Z M 33.751,12.75 L 33.751,15 L 44.251,15 L 44.251,16.499 L 33.751,16.499 L 33.751,18 L 44.242,18 L 44.242,19.499 L 33.751,19.499 L 33.751,21 L 44.242,21 L 44.242,22.499 L 33.751,22.499 L 33.751,24 L 44.251,24 L 44.251,25.499 L 33.751,25.499 L 33.751,27.001 L 44.251,27.001 L 44.251,28.5 L 33.751,28.5 L 33.751,30 L 44.242,30 L 44.242,31.499 L 33.751,31.499 L 33.751,33 L 44.251,33 L 44.251,34.499 L 33.751,34.499 L 33.751,36 L 36.002,36 L 36.002,39.749 L 33.751,39.749 L 33.751,41.999 L 46.501,41.999 L 46.501,12.75 L 33.751,12.75 Z M 24.637,34.196 C 24.078,34.116 23.506,34.031 22.929,33.944 C 22.928,31.702 22.925,29.641 22.923,27.562 C 22.923,26.792 22.937,26.27 22.967,26.001 C 22.96,26.001 22.951,26.002 22.944,26.004 C 22.819,26.326 22.682,26.646 22.534,26.961 C 21.451,29.339 20.359,31.122 19.293,33.372 C 18.637,33.265 17.99,33.161 17.363,33.059 C 17.363,29.011 17.363,27.472 17.363,23.424 C 17.902,23.33 18.459,23.228 19.029,23.122 C 19.033,25.343 19.036,26.985 19.04,28.685 C 19.042,29.357 19.028,29.872 18.999,30.213 C 19.007,30.215 19.014,30.215 19.021,30.216 C 19.095,30.042 19.23,29.785 19.426,29.442 C 20.534,27.528 21.672,25.205 22.798,22.399 C 23.42,22.279 24.036,22.162 24.637,22.052 C 24.637,26.101 24.637,30.146 24.637,34.196 Z" fill="#ffffff" marker-start="none" marker-end="none"/>
     <rect x="0.001" y="0" width="56.25" height="56.25" stroke-opacity="0.517647"/>
    </g>
   </g>
  </g>
 </g>
</svg>
