<?xml version="1.0" standalone="no"?>
<!DOCTYPE svg PUBLIC "-//W3C//DTD SVG 1.1//EN" "http://www.w3.org/Graphics/SVG/1.1/DTD/svg11.dtd">
<!--Generator: Xara Xtreme (www.xara.com), SVG filter version: 1.0.0.13-->
<svg stroke-width="0.501" stroke-linejoin="bevel" fill-rule="evenodd" xmlns:xlink="http://www.w3.org/1999/xlink" xmlns="http://www.w3.org/2000/svg" version="1.1" overflow="visible" width="56.25pt" height="56.25pt" viewBox="0 0 56.25 56.25">
 <g id="Document" fill="none" stroke="black" font-family="Times New Roman" font-size="16" transform="scale(1 -1)">
  <g id="Spread" transform="translate(0 -56.25)">
   <g id="Layer 1">
    <g id="Group" stroke-linejoin="miter" stroke="none">
     <rect x="0.001" y="0.001" width="56.25" height="56.25" stroke-opacity="0.517647"/>
     <g id="Group_1" stroke-opacity="0.517647" fill="#ffffff">
      <path d="M 34.491,15.968 L 34.188,19.403 C 34.188,22.3 32.26,25.812 29.635,27.42 C 30.932,28.863 32.397,29.716 34.13,29.716 C 38.246,28.749 38.214,28.788 42.003,29.716 C 45.657,29.716 49.121,25.258 49.121,21.604 L 49.618,15.968 L 34.491,15.968 Z" marker-start="none" marker-end="none"/>
      <ellipse rx="6.707" ry="5.714" transform="translate(38.067 37.168) rotate(90)"/>
      <path d="M 10.966,19.511 L 10.469,13.875 L 33.571,13.875 L 33.075,19.511 C 33.075,23.165 29.61,27.623 25.956,27.623 C 22.168,26.695 22.199,26.656 18.084,27.623 C 14.43,27.623 10.966,23.165 10.966,19.511 Z" marker-start="none" marker-end="none"/>
      <ellipse rx="6.707" ry="5.714" transform="translate(22.02 35.075) rotate(90)"/>
     </g>
    </g>
   </g>
  </g>
 </g>
</svg>
