<?xml version="1.0" standalone="no"?>
<!DOCTYPE svg PUBLIC "-//W3C//DTD SVG 1.1//EN" "http://www.w3.org/Graphics/SVG/1.1/DTD/svg11.dtd">
<!--Generator: Xara Xtreme (www.xara.com), SVG filter version: 1.0.0.13-->
<svg stroke-width="0.501" stroke-linejoin="bevel" fill-rule="evenodd" xmlns:xlink="http://www.w3.org/1999/xlink" xmlns="http://www.w3.org/2000/svg" version="1.1" overflow="visible" width="56.25pt" height="56.25pt" viewBox="0 0 56.25 56.25">
 <g id="Document" fill="none" stroke="black" font-family="Times New Roman" font-size="16" transform="scale(1 -1)">
  <g id="Spread" transform="translate(0 -56.25)">
   <g id="Layer 1">
    <g id="Group" stroke-linejoin="miter" stroke-opacity="0.517647" stroke="none">
     <rect x="0.001" y="0.001" width="56.25" height="56.25"/>
     <path d="M 20.465,42.155 C 20.613,42.231 20.687,42.644 20.886,42.77 L 22.277,43.647 C 22.616,43.859 23.21,43.642 23.424,43.305 L 26.348,36.727 C 26.571,36.372 26.444,35.719 26.089,35.497 L 24.832,34.704 C 24.688,34.613 24.412,34.81 24.268,34.719 C 23.226,33.979 22.939,32.333 23.1,31.065 C 24.396,27.82 27.275,23.253 29.252,21.309 C 30.42,20.634 32.152,20.436 33.299,21.147 C 33.443,21.237 33.385,21.571 33.528,21.66 L 34.785,22.454 C 35.141,22.677 35.784,22.512 36.008,22.158 L 40.431,16.328 C 40.644,15.991 40.582,15.359 40.246,15.148 L 38.855,14.27 C 38.655,14.145 38.252,14.256 38.118,14.154 C 34.656,11.531 28.794,12.214 26.185,15.143 C 22.552,19.213 18.232,26.064 16.21,30.962 C 14.708,34.599 16.605,40.163 20.465,42.155 Z" fill="#ffffff" marker-start="none" marker-end="none"/>
    </g>
   </g>
  </g>
 </g>
</svg>
