<?xml version="1.0" standalone="no"?>
<!DOCTYPE svg PUBLIC "-//W3C//DTD SVG 1.1//EN" "http://www.w3.org/Graphics/SVG/1.1/DTD/svg11.dtd">
<!--Generator: Xara Xtreme (www.xara.com), SVG filter version: 1.0.0.13-->
<svg stroke-width="0.501" stroke-linejoin="bevel" fill-rule="evenodd" xmlns:xlink="http://www.w3.org/1999/xlink" xmlns="http://www.w3.org/2000/svg" version="1.1" overflow="visible" width="56.25pt" height="56.25pt" viewBox="0 0 56.25 56.25">
 <g id="Document" fill="none" stroke="black" font-family="Times New Roman" font-size="16" transform="scale(1 -1)">
  <g id="Spread" transform="translate(0 -56.25)">
   <g id="icon">
    <g id="Group" stroke-linejoin="miter" stroke-opacity="0.517647" stroke="none">
     <path d="M 14.659,15.609 L 14.659,28.518 C 14.659,29.922 15.8,31.063 17.204,31.063 L 33.814,31.063 C 33.808,31.122 33.805,31.183 33.805,31.245 L 33.805,36.292 C 33.805,37.052 34.299,37.67 34.906,37.67 L 34.907,37.67 C 35.514,37.67 36.008,37.052 36.008,36.292 L 36.008,31.245 C 36.008,31.183 36.004,31.122 35.998,31.063 L 37.613,31.063 C 39.017,31.063 40.158,29.922 40.158,28.518 L 40.157,28.126 C 40.182,28.129 40.207,28.131 40.233,28.131 L 40.924,28.131 C 41.292,28.131 41.592,27.831 41.592,27.463 L 41.592,24.074 C 41.592,23.706 41.292,23.406 40.924,23.406 L 40.233,23.406 C 40.207,23.406 40.182,23.407 40.157,23.41 L 40.158,15.609 C 40.158,14.205 39.017,13.064 37.613,13.064 L 17.204,13.064 C 15.8,13.064 14.659,14.205 14.659,15.609 Z M 38.659,16.26 L 38.659,27.867 C 38.659,28.803 37.899,29.563 36.963,29.563 L 17.854,29.563 C 16.918,29.563 16.158,28.803 16.158,27.867 L 16.158,16.26 C 16.158,15.324 16.918,14.564 17.854,14.564 L 36.963,14.564 C 37.899,14.564 38.659,15.324 38.659,16.26 Z M 26.25,22.053 C 26.25,24.951 28.602,27.303 31.5,27.303 C 34.398,27.303 36.75,24.951 36.75,22.053 C 36.75,19.155 34.398,16.803 31.5,16.803 C 28.602,16.803 26.25,19.155 26.25,22.053 Z M 17.993,17.603 L 17.993,19.01 C 17.993,19.449 18.351,19.807 18.79,19.807 L 21.697,19.807 C 22.136,19.807 22.494,19.449 22.494,19.01 L 22.494,17.603 C 22.494,17.164 22.136,16.806 21.697,16.806 L 18.79,16.806 C 18.351,16.806 17.993,17.164 17.993,17.603 Z M 35.625,22.053 C 35.625,24.33 33.777,26.178 31.5,26.178 C 29.223,26.178 27.375,24.33 27.375,22.053 C 27.375,19.776 29.223,17.928 31.5,17.928 C 33.777,17.928 35.625,19.776 35.625,22.053 Z M 17.993,21.353 L 17.993,22.76 C 17.993,23.199 18.351,23.557 18.79,23.557 L 21.697,23.557 C 22.136,23.557 22.494,23.199 22.494,22.76 L 22.494,21.353 C 22.494,20.914 22.136,20.556 21.697,20.556 L 18.79,20.556 C 18.351,20.556 17.993,20.914 17.993,21.353 Z M 17.993,25.103 L 17.993,26.51 C 17.993,26.949 18.351,27.307 18.79,27.307 L 21.697,27.307 C 22.136,27.307 22.494,26.949 22.494,26.51 L 22.494,25.103 C 22.494,24.664 22.136,24.306 21.697,24.306 L 18.79,24.306 C 18.351,24.306 17.993,24.664 17.993,25.103 Z M 32.58,38.66 L 30.403,40.837 C 30.114,41.126 30.061,41.544 30.284,41.768 L 30.285,41.768 C 30.509,41.992 30.926,41.939 31.216,41.65 L 33.393,39.472 C 33.682,39.183 33.735,38.765 33.512,38.542 L 33.511,38.541 C 33.287,38.318 32.87,38.371 32.58,38.66 Z M 36.285,38.541 L 36.284,38.542 C 36.061,38.765 36.114,39.183 36.403,39.472 L 38.58,41.65 C 38.87,41.939 39.287,41.992 39.511,41.768 L 39.512,41.768 C 39.735,41.544 39.682,41.126 39.393,40.837 L 37.216,38.66 C 36.926,38.371 36.509,38.318 36.285,38.541 Z M 34.324,39.365 L 34.324,42.444 C 34.324,42.853 34.582,43.186 34.898,43.186 L 34.899,43.186 C 35.215,43.186 35.473,42.853 35.473,42.444 L 35.473,39.365 C 35.473,38.956 35.215,38.623 34.899,38.623 L 34.898,38.623 C 34.582,38.623 34.324,38.956 34.324,39.365 Z" fill="#ffffff" marker-start="none" marker-end="none"/>
     <rect x="0.001" y="0" width="56.25" height="56.25"/>
    </g>
   </g>
  </g>
 </g>
</svg>
