<?xml version="1.0" standalone="no"?>
<!DOCTYPE svg PUBLIC "-//W3C//DTD SVG 1.1//EN" "http://www.w3.org/Graphics/SVG/1.1/DTD/svg11.dtd">
<!--Generator: Xara Xtreme (www.xara.com), SVG filter version: 1.0.0.13-->
<svg stroke-width="0.501" stroke-linejoin="bevel" fill-rule="evenodd" xmlns:xlink="http://www.w3.org/1999/xlink" xmlns="http://www.w3.org/2000/svg" version="1.1" overflow="visible" width="56.25pt" height="56.25pt" viewBox="0 0 56.25 56.25">
 <g id="Document" fill="none" stroke="black" font-family="Times New Roman" font-size="16" transform="scale(1 -1)">
  <g id="Spread" transform="translate(0 -56.25)">
   <g id="MouseOff">
    <g id="Group" stroke-linejoin="miter" stroke="none">
     <g id="Group_1" fill="#ffffff">
      <path d="M 25.831,9.892 L 25.358,11.727 C 24.554,14.844 21.698,15.966 18.985,14.231 L 17.392,13.212 C 15.965,14.24 14.692,15.469 13.613,16.856 L 14.574,18.485 C 16.209,21.259 14.983,24.073 11.838,24.763 L 9.986,25.17 C 9.83,26.132 9.75,27.119 9.75,28.125 C 9.75,28.901 9.798,29.666 9.891,30.417 L 11.728,30.892 C 14.845,31.696 15.967,34.552 14.233,37.264 L 13.212,38.858 C 14.241,40.285 15.47,41.558 16.857,42.636 L 18.486,41.676 C 21.26,40.041 24.073,41.267 24.764,44.412 L 25.17,46.263 C 26.132,46.419 27.119,46.5 28.126,46.5 C 28.902,46.5 29.667,46.451 30.418,46.358 L 30.893,44.522 C 31.697,41.405 34.553,40.283 37.265,42.018 L 38.859,43.037 C 40.286,42.009 41.559,40.78 42.638,39.393 L 41.677,37.763 C 40.042,34.99 41.268,32.176 44.413,31.486 L 46.265,31.078 C 46.421,30.116 46.502,29.13 46.502,28.125 C 46.502,27.348 46.453,26.582 46.36,25.831 L 44.523,25.357 C 41.406,24.553 40.284,21.697 42.019,18.984 L 43.038,17.39 C 42.009,15.963 40.78,14.69 39.393,13.612 L 37.764,14.573 C 34.991,16.208 32.177,14.982 31.487,11.837 L 31.08,9.986 C 30.118,9.83 29.131,9.75 28.126,9.75 C 27.349,9.75 26.583,9.798 25.831,9.892 Z M 37.314,28.125 C 37.314,33.197 33.198,37.313 28.126,37.313 C 23.054,37.313 18.938,33.197 18.938,28.125 C 18.938,23.053 23.054,18.937 28.126,18.937 C 33.198,18.937 37.314,23.053 37.314,28.125 Z" marker-start="none" marker-end="none"/>
      <ellipse rx="4.594" ry="4.594" transform="translate(28.126 28.125) rotate(90)"/>
     </g>
    </g>
   </g>
   <g id="MouseOver" display="none"/>
  </g>
 </g>
</svg>
