<?xml version="1.0" standalone="no"?>
<!DOCTYPE svg PUBLIC "-//W3C//DTD SVG 1.1//EN" "http://www.w3.org/Graphics/SVG/1.1/DTD/svg11.dtd">
<!--Generator: Xara Xtreme (www.xara.com), SVG filter version: 1.0.0.13-->
<svg stroke-width="0.501" stroke-linejoin="bevel" fill-rule="evenodd" xmlns:xlink="http://www.w3.org/1999/xlink" xmlns="http://www.w3.org/2000/svg" version="1.1" overflow="visible" width="56.25pt" height="56.25pt" viewBox="0 0 56.25 56.25">
 <g id="Document" fill="none" stroke="black" font-family="Times New Roman" font-size="16" transform="scale(1 -1)">
  <g id="Spread" transform="translate(0 -56.25)">
   <g id="icon">
    <g id="Group" stroke-linejoin="miter" stroke="none">
     <path d="M 38.997,9.374 L 34.732,9.855 L 30.827,16.07 L 32.228,20.076 L 32.207,20.055 L 20.045,32.216 L 16.071,30.826 L 9.856,34.731 L 9.375,38.996 L 13.781,38.996 L 13.999,37.067 L 16.761,35.331 L 19.841,36.408 L 20.918,39.488 L 19.182,42.251 L 17.253,42.467 L 17.253,46.874 L 21.518,46.393 L 25.423,40.179 L 24.032,36.203 L 36.195,24.042 L 36.173,24.02 L 40.18,25.422 L 46.394,21.517 L 46.875,17.252 L 42.468,17.252 L 42.252,19.181 L 39.489,20.917 L 36.409,19.84 L 35.332,16.76 L 37.068,13.998 L 38.997,13.78 L 38.997,9.374 Z" fill="#ffffff" marker-start="none" marker-end="none"/>
     <rect x="0.001" y="0" width="56.25" height="56.25" stroke-opacity="0.517647"/>
    </g>
   </g>
  </g>
 </g>
</svg>
