<?xml version="1.0" standalone="no"?>
<!DOCTYPE svg PUBLIC "-//W3C//DTD SVG 1.1//EN" "http://www.w3.org/Graphics/SVG/1.1/DTD/svg11.dtd">
<!--Generator: Xara Xtreme (www.xara.com), SVG filter version: 1.0.0.13-->
<svg stroke-width="0.501" stroke-linejoin="bevel" fill-rule="evenodd" xmlns:xlink="http://www.w3.org/1999/xlink" xmlns="http://www.w3.org/2000/svg" version="1.1" overflow="visible" width="56.25pt" height="56.25pt" viewBox="0 0 56.25 56.25">
 <g id="Document" fill="none" stroke="black" font-family="Times New Roman" font-size="16" transform="scale(1 -1)">
  <g id="Spread" transform="translate(0 -56.25)">
   <g id="icon">
    <g id="Group" stroke-linejoin="miter" stroke="none">
     <path d="M 31.516,10.653 C 30.471,10.467 29.393,10.37 28.293,10.37 C 18.408,10.37 10.384,18.25 10.384,27.958 C 10.384,29.194 10.514,30.399 10.761,31.564 C 9.88,33.067 9.375,34.81 9.375,36.669 C 9.375,42.302 14.008,46.874 19.717,46.874 C 21.75,46.874 23.647,46.294 25.247,45.293 C 26.236,45.459 27.255,45.547 28.293,45.547 C 38.179,45.547 46.202,37.667 46.202,27.958 C 46.202,26.651 46.056,25.376 45.781,24.149 C 46.48,22.774 46.875,21.221 46.875,19.579 C 46.875,13.946 42.241,9.374 36.533,9.374 C 34.713,9.374 33.002,9.839 31.516,10.653 Z M 34.995,17.569 C 36.654,18.795 38.151,20.637 38.474,22.657 C 38.728,24.245 38.099,26.007 37.122,27.294 C 36.118,28.615 34.143,29.495 32.884,29.948 C 31.625,30.402 30.261,30.529 28.121,30.992 C 25.981,31.458 23.607,31.902 23.404,33.676 C 23.164,35.757 26.037,36.626 27.81,36.626 C 30.899,36.586 32.076,35.591 32.778,32.979 C 34.599,31.442 36.785,32.272 37.458,33.434 C 37.794,35.591 36.92,37.004 35.256,38.246 C 33.592,39.488 30.393,40.275 27.678,40.275 C 25.095,40.275 22.518,39.494 20.957,38.262 C 19.398,37.031 18.451,35.454 18.45,33.531 C 18.451,31.824 19.05,30.458 20.248,29.43 C 21.447,28.404 24.095,27.271 26.848,26.692 C 29.601,26.115 30.704,26.065 32.166,24.934 C 34.263,23.313 32.749,21.321 31.551,20.461 C 30.691,19.844 29.492,19.687 28.417,19.706 C 27.039,19.731 25.768,19.965 24.438,20.813 C 23.332,21.818 22.996,22.482 22.365,24.244 C 20.742,25.816 18.607,25.16 17.948,23.581 C 18.036,21.227 19.257,19.298 20.937,17.797 C 22.618,16.295 25.154,15.543 28.548,15.543 C 31.198,15.543 33.189,16.236 34.995,17.569 Z" fill="#ffffff" marker-start="none" marker-end="none"/>
     <rect x="0.001" y="0" width="56.25" height="56.25" stroke-opacity="0.517647"/>
    </g>
   </g>
  </g>
 </g>
</svg>
