<?xml version="1.0" standalone="no"?>
<!DOCTYPE svg PUBLIC "-//W3C//DTD SVG 1.1//EN" "http://www.w3.org/Graphics/SVG/1.1/DTD/svg11.dtd">
<!--Generator: Xara Xtreme (www.xara.com), SVG filter version: 1.0.0.13-->
<svg stroke-width="0.501" stroke-linejoin="bevel" fill-rule="evenodd" xmlns:xlink="http://www.w3.org/1999/xlink" xmlns="http://www.w3.org/2000/svg" version="1.1" overflow="visible" width="56.25pt" height="56.25pt" viewBox="0 0 56.25 56.25">
 <g id="Document" fill="none" stroke="black" font-family="Times New Roman" font-size="16" transform="scale(1 -1)">
  <g id="Spread" transform="translate(0 -56.25)">
   <g id="icon">
    <g id="Group" stroke-linejoin="miter" stroke-opacity="0.517647" stroke="none">
     <path d="M 8.251,16.888 L 8.251,28.887 L 15.801,32.637 L 20.25,28.887 L 20.25,16.888 L 16.126,16.888 L 16.126,22.889 L 12.375,22.889 L 12.375,16.888 L 8.251,16.888 Z M 36.75,16.889 L 36.75,29.638 L 48.749,29.638 L 48.749,16.889 L 44.625,16.889 L 44.625,22.889 L 40.874,22.889 L 40.874,16.889 L 36.75,16.889 Z M 21.75,16.89 L 21.75,36.39 L 35.251,36.39 L 35.251,16.89 L 21.75,16.89 Z M 31.125,16.891 L 31.125,25.355 L 25.876,25.355 L 25.876,16.891 L 31.125,16.891 Z M 6.75,29.641 L 6.75,31.141 L 15.801,35.637 L 20.25,31.887 L 20.25,30.387 L 15.801,34.137 L 6.75,29.641 Z M 36.75,31.138 L 36.75,32.611 L 49.501,32.611 L 49.501,31.138 L 36.75,31.138 Z M 21.001,37.89 L 21.001,39.361 L 36,39.361 L 36,37.89 L 21.001,37.89 Z" fill="#ffffff" marker-start="none" marker-end="none"/>
     <rect x="0.001" y="0" width="56.25" height="56.25"/>
    </g>
   </g>
  </g>
 </g>
</svg>
