<?xml version="1.0" standalone="no"?>
<!DOCTYPE svg PUBLIC "-//W3C//DTD SVG 1.1//EN" "http://www.w3.org/Graphics/SVG/1.1/DTD/svg11.dtd">
<!--Generator: Xara Xtreme (www.xara.com), SVG filter version: 1.0.0.13-->
<svg stroke-width="0.501" stroke-linejoin="bevel" fill-rule="evenodd" xmlns:xlink="http://www.w3.org/1999/xlink" xmlns="http://www.w3.org/2000/svg" version="1.1" overflow="visible" width="56.25pt" height="56.25pt" viewBox="0 0 56.25 56.25">
 <g id="Document" fill="none" stroke="black" font-family="Times New Roman" font-size="16" transform="scale(1 -1)">
  <g id="Spread" transform="translate(0 -56.25)">
   <g id="icon">
    <g id="Group" stroke-linejoin="miter" stroke="none">
     <path d="M 12.865,41.169 C 15.519,37.403 21.048,33.415 27.683,33.637 C 27.241,38.732 29.453,40.576 32.327,41.834 C 34.687,42.865 38.077,42.497 39.847,40.061 C 41.594,40.199 42.722,40.725 44.712,42.055 C 43.606,39.175 42.28,38.732 41.395,38.068 C 43.385,37.846 44.491,38.732 45.375,39.175 C 44.712,36.74 42.943,36.296 42.058,35.188 C 42.28,23.004 29.894,7.277 10.875,16.802 C 14.192,16.802 16.845,17.023 21.048,19.902 C 16.625,21.01 15.519,22.339 14.413,24.998 C 15.519,24.998 16.182,24.776 17.288,25.22 C 13.971,26.327 12.201,28.32 11.759,32.087 C 12.422,31.644 13.529,30.979 14.856,31.422 C 12.643,32.529 10.432,38.732 12.865,41.169 Z" fill="#ffffff" marker-start="none" marker-end="none"/>
     <rect x="0.001" y="0" width="56.25" height="56.25" stroke-opacity="0.517647"/>
    </g>
   </g>
  </g>
 </g>
</svg>
