<?xml version="1.0" standalone="no"?>
<!DOCTYPE svg PUBLIC "-//W3C//DTD SVG 1.1//EN" "http://www.w3.org/Graphics/SVG/1.1/DTD/svg11.dtd">
<!--Generator: Xara Xtreme (www.xara.com), SVG filter version: 1.0.0.13-->
<svg stroke-width="0.501" stroke-linejoin="bevel" fill-rule="evenodd" xmlns:xlink="http://www.w3.org/1999/xlink" xmlns="http://www.w3.org/2000/svg" version="1.1" overflow="visible" width="56.25pt" height="56.25pt" viewBox="0 0 56.25 56.25">
 <g id="Document" fill="none" stroke="black" font-family="Times New Roman" font-size="16" transform="scale(1 -1)">
  <g id="Spread" transform="translate(0 -56.25)">
   <g id="icon">
    <g id="Group" stroke-linejoin="miter" stroke="none">
     <path d="M 10.789,8.561 L 10.789,25.655 L 10.783,25.655 L 10.783,30.11 L 42.719,30.11 L 13.682,43.65 L 15.563,47.689 L 45.469,33.744 L 43.774,30.11 L 43.778,30.11 L 43.778,25.706 L 43.79,25.706 L 43.79,8.561 L 10.789,8.561 Z M 22.515,26.394 L 26.1,29.401 L 20.101,29.401 L 16.516,26.394 L 22.515,26.394 Z M 34.515,26.394 L 38.1,29.401 L 32.101,29.401 L 28.516,26.394 L 34.515,26.394 Z M 43.031,26.394 L 43.031,28.502 L 40.516,26.394 L 43.031,26.394 Z M 11.53,27.244 L 14.1,29.401 L 11.53,29.401 L 11.53,27.244 Z M 43.221,30.691 L 44.112,32.602 L 40.942,31.754 L 43.221,30.691 Z M 35.503,34.29 L 40.023,35.501 L 34.586,38.036 L 30.065,36.825 L 35.503,34.29 Z M 24.627,39.362 L 29.148,40.572 L 23.71,43.107 L 19.19,41.897 L 24.627,39.362 Z M 15.031,44.775 L 18.271,45.643 L 15.943,46.729 L 15.031,44.775 Z" fill="#ffffff" marker-start="none" marker-end="none"/>
     <rect x="0.001" y="0" width="56.25" height="56.25" stroke-opacity="0.517647"/>
    </g>
   </g>
  </g>
 </g>
</svg>
