<?xml version="1.0" standalone="no"?>
<!DOCTYPE svg PUBLIC "-//W3C//DTD SVG 1.1//EN" "http://www.w3.org/Graphics/SVG/1.1/DTD/svg11.dtd">
<!--Generator: Xara Xtreme (www.xara.com), SVG filter version: 1.0.0.13-->
<svg stroke-width="0.501" stroke-linejoin="bevel" fill-rule="evenodd" xmlns:xlink="http://www.w3.org/1999/xlink" xmlns="http://www.w3.org/2000/svg" version="1.1" overflow="visible" width="525pt" height="45pt" viewBox="0 0 525 45">
 <defs>
  <marker id="DefaultArrow2" markerUnits="strokeWidth" viewBox="0 0 1 1" markerWidth="1" markerHeight="1" overflow="visible" orient="auto">
   <!-- REF_ARROW_STRAIGHT (-2) -->
   <g transform="scale(0.0092592592)">
    <!-- 1/108 -->
    <path d="M -9 54 L -9 -54 L 117 0 z"/>
   </g>
  </marker>
  <marker id="DefaultArrow3" markerUnits="strokeWidth" viewBox="0 0 1 1" markerWidth="1" markerHeight="1" overflow="visible" orient="auto">
   <!-- REF_ARROW_ANGLED -->
   <g transform="scale(0.0092592592)">
    <path d="M -27 54 L -9 0 L -27 -54 L 135 0 z"/>
   </g>
  </marker>
  <marker id="DefaultArrow4" markerUnits="strokeWidth" viewBox="0 0 1 1" markerWidth="1" markerHeight="1" overflow="visible" orient="auto">
   <!-- REF_ARROW_ROUNDED -->
   <g transform="scale(0.0092592592)">
    <path d="M -9,0 L -9,-45 C -9,-51.708 2.808,-56.580 9,-54 L 117,-9 C 120.916,-7.369 126.000,-4.242 126,0 C 126,4.242 120.916,7.369 117,9 L 9,54 C 2.808,56.580 -9,51.708 -9,45 z"/>
   </g>
  </marker>
  <marker id="DefaultArrow5" markerUnits="strokeWidth" viewBox="0 0 1 1" markerWidth="1" markerHeight="1" overflow="visible" orient="auto">
   <!-- REF_ARROW_SPOT -->
   <g transform="scale(0.0092592592)">
    <path d="M -54, 0 C -54,29.807 -29.807,54 0,54 C 29.807,54 54,29.807 54,0 C 54,-29.807 29.807,-54 0,-54 C -29.807,-54 -54,-29.807 -54,0 z"/>
   </g>
  </marker>
  <marker id="DefaultArrow6" markerUnits="strokeWidth" viewBox="0 0 1 1" markerWidth="1" markerHeight="1" overflow="visible" orient="auto">
   <!-- REF_ARROW_DIAMOND -->
   <g transform="scale(0.0092592592)">
    <path d="M -63,0 L 0,63 L 63,0 L 0,-63 z"/>
   </g>
  </marker>
  <marker id="DefaultArrow7" markerUnits="strokeWidth" viewBox="0 0 1 1" markerWidth="1" markerHeight="1" overflow="visible" orient="auto">
   <!-- REF_ARROW_FEATHER -->
   <g transform="scale(0.0092592592)">
    <path d="M 18,-54 L 108,-54 L 63,0 L 108,54 L 18, 54 L -36,0 z"/>
   </g>
  </marker>
  <marker id="DefaultArrow8" markerUnits="strokeWidth" viewBox="0 0 1 1" markerWidth="1" markerHeight="1" overflow="visible" orient="auto">
   <!-- REF_ARROW_FEATHER2 -->
   <g transform="scale(0.0092592592)">
    <path d="M -36,0 L 18,-54 L 54,-54 L 18,-18 L 27,-18 L 63,-54 L 99,-54 L 63,-18 L 72,-18 L 108,-54 L 144,-54 L 90,0 L 144,54 L 108,54 L 72,18 L 63,18 L 99,54 L 63,54 L 27,18 L 18,18 L 54,54 L 18,54 z"/>
   </g>
  </marker>
  <marker id="DefaultArrow9" markerUnits="strokeWidth" viewBox="0 0 1 1" markerWidth="1" markerHeight="1" overflow="visible" orient="auto">
   <!-- REF_ARROW_HOLLOWDIAMOND -->
   <g transform="scale(0.0092592592)">
    <path d="M 0,45 L -45,0 L 0, -45 L 45, 0 z M 0, 63 L-63, 0 L 0, -63 L 63, 0 z"/>
   </g>
  </marker>
  <filter id="StainedFilter">
   <feBlend mode="multiply" in2="BackgroundImage" in="SourceGraphic" result="blend"/>
   <feComposite in="blend" in2="SourceAlpha" operator="in" result="comp"/>
  </filter>
  <filter id="BleachFilter">
   <feBlend mode="screen" in2="BackgroundImage" in="SourceGraphic" result="blend"/>
   <feComposite in="blend" in2="SourceAlpha" operator="in" result="comp"/>
  </filter>
  <filter id="InvertTransparencyBitmapFilter">
   <feComponentTransfer>
    <feFuncR type="gamma" amplitude="1.055" exponent=".416666666" offset="-0.055"/>
    <feFuncG type="gamma" amplitude="1.055" exponent=".416666666" offset="-0.055"/>
    <feFuncB type="gamma" amplitude="1.055" exponent=".416666666" offset="-0.055"/>
   </feComponentTransfer>
   <feComponentTransfer>
    <feFuncR type="linear" slope="-1" intercept="1"/>
    <feFuncG type="linear" slope="-1" intercept="1"/>
    <feFuncB type="linear" slope="-1" intercept="1"/>
    <feFuncA type="linear" slope="1" intercept="0"/>
   </feComponentTransfer>
   <feComponentTransfer>
    <feFuncR type="gamma" amplitude="1" exponent="2.4" offset="0"/>
    <feFuncG type="gamma" amplitude="1" exponent="2.4" offset="0"/>
    <feFuncB type="gamma" amplitude="1" exponent="2.4" offset="0"/>
   </feComponentTransfer>
  </filter>
 </defs>
 <g id="Document" fill="none" stroke="black" font-family="Times New Roman" font-size="16" transform="scale(1 -1)">
  <g id="Spread" transform="translate(0 -45)">
   <g id="layer">
    <path d="M 17.363,22.156 L 17.101,25.855 L 17.101,27.402 L 18.162,27.402 L 18.162,25.855 L 17.915,22.156 L 17.363,22.156 Z M 17.139,20.423 L 17.139,21.399 L 18.124,21.399 L 18.124,20.423 L 17.139,20.423 Z" fill-rule="nonzero" stroke-linejoin="round" stroke-linecap="round" stroke="none" stroke-width="0.375" fill="#000000" marker-start="none" marker-end="none" stroke-miterlimit="79.8403193612775"/>
    <path d="M 19.441,26.478 L 19.441,27.473 L 20.36,27.473 L 20.36,26.688 C 20.36,26.262 20.311,25.956 20.212,25.769 C 20.076,25.512 19.863,25.318 19.574,25.188 L 19.365,25.526 C 19.536,25.596 19.664,25.706 19.748,25.857 C 19.832,26.008 19.879,26.215 19.889,26.478 L 19.441,26.478 Z M 20.917,26.478 L 20.917,27.473 L 21.836,27.473 L 21.836,26.688 C 21.836,26.262 21.786,25.956 21.688,25.769 C 21.552,25.512 21.339,25.318 21.05,25.188 L 20.841,25.526 C 21.012,25.596 21.14,25.706 21.224,25.857 C 21.308,26.008 21.355,26.215 21.364,26.478 L 20.917,26.478 Z" fill-rule="nonzero" stroke-linejoin="round" stroke-linecap="round" stroke="none" stroke-width="0.375" fill="#000000" marker-start="none" marker-end="none" stroke-miterlimit="79.8403193612775"/>
    <path d="M 22.819,20.304 L 23.234,22.332 L 22.429,22.332 L 22.429,23.041 L 23.376,23.041 L 23.729,24.769 L 22.429,24.769 L 22.429,25.479 L 23.871,25.479 L 24.285,27.521 L 25,27.521 L 24.585,25.479 L 26.085,25.479 L 26.499,27.521 L 27.218,27.521 L 26.804,25.479 L 27.627,25.479 L 27.627,24.769 L 26.661,24.769 L 26.304,23.041 L 27.627,23.041 L 27.627,22.332 L 26.161,22.332 L 25.747,20.304 L 25.033,20.304 L 25.442,22.332 L 23.948,22.332 L 23.533,20.304 L 22.819,20.304 Z M 24.09,23.041 L 25.585,23.041 L 25.942,24.769 L 24.443,24.769 L 24.09,23.041 Z" fill-rule="nonzero" stroke-linejoin="round" stroke-linecap="round" stroke="none" stroke-width="0.375" fill="#000000" marker-start="none" marker-end="none" stroke-miterlimit="79.8403193612775"/>
    <path d="M 30.234,19.419 L 30.234,20.275 C 29.805,20.329 29.457,20.425 29.189,20.563 C 28.921,20.702 28.689,20.924 28.494,21.232 C 28.299,21.54 28.185,21.916 28.153,22.361 L 29.015,22.522 C 29.082,22.062 29.199,21.724 29.367,21.508 C 29.609,21.204 29.897,21.034 30.234,20.999 L 30.234,23.727 C 29.882,23.793 29.521,23.93 29.153,24.136 C 28.88,24.288 28.67,24.499 28.522,24.769 C 28.375,25.039 28.301,25.345 28.301,25.688 C 28.301,26.297 28.517,26.791 28.949,27.168 C 29.237,27.422 29.666,27.578 30.234,27.635 L 30.234,28.044 L 30.738,28.044 L 30.738,27.635 C 31.237,27.587 31.632,27.441 31.924,27.197 C 32.298,26.886 32.524,26.459 32.6,25.916 L 31.714,25.783 C 31.663,26.12 31.558,26.378 31.398,26.557 C 31.237,26.736 31.018,26.854 30.738,26.911 L 30.738,24.441 C 31.17,24.333 31.456,24.249 31.595,24.189 C 31.862,24.071 32.079,23.928 32.247,23.76 C 32.416,23.592 32.545,23.392 32.635,23.16 C 32.726,22.929 32.771,22.678 32.771,22.408 C 32.771,21.815 32.582,21.32 32.205,20.923 C 31.827,20.526 31.338,20.313 30.738,20.285 L 30.738,19.419 L 30.234,19.419 Z M 30.234,26.921 C 29.901,26.87 29.638,26.737 29.446,26.521 C 29.254,26.305 29.158,26.05 29.158,25.755 C 29.158,25.463 29.24,25.218 29.403,25.022 C 29.567,24.825 29.843,24.668 30.234,24.55 L 30.234,26.921 Z M 30.738,20.999 C 31.072,21.04 31.347,21.185 31.564,21.432 C 31.782,21.68 31.89,21.986 31.89,22.351 C 31.89,22.662 31.813,22.912 31.66,23.101 C 31.506,23.29 31.199,23.459 30.738,23.608 L 30.738,20.999 Z" fill-rule="nonzero" stroke-linejoin="round" stroke-linecap="round" stroke="none" stroke-width="0.375" fill="#000000" marker-start="none" marker-end="none" stroke-miterlimit="79.8403193612775"/>
    <path d="M 33.85,25.726 C 33.85,26.224 33.975,26.648 34.226,26.997 C 34.476,27.346 34.84,27.521 35.316,27.521 C 35.754,27.521 36.116,27.364 36.403,27.052 C 36.691,26.739 36.834,26.28 36.834,25.674 C 36.834,25.083 36.689,24.629 36.399,24.31 C 36.108,23.991 35.75,23.831 35.325,23.831 C 34.903,23.831 34.552,23.989 34.271,24.303 C 33.99,24.617 33.85,25.091 33.85,25.726 Z M 35.34,26.931 C 35.127,26.931 34.95,26.838 34.809,26.654 C 34.668,26.47 34.597,26.132 34.597,25.64 C 34.597,25.193 34.668,24.878 34.811,24.695 C 34.954,24.513 35.13,24.422 35.34,24.422 C 35.555,24.422 35.734,24.514 35.875,24.698 C 36.016,24.882 36.087,25.218 36.087,25.707 C 36.087,26.158 36.016,26.474 35.873,26.657 C 35.73,26.839 35.552,26.931 35.34,26.931 Z M 35.344,20.166 L 39.162,27.521 L 39.857,27.521 L 36.054,20.166 L 35.344,20.166 Z M 38.362,22.061 C 38.362,22.562 38.488,22.987 38.738,23.334 C 38.989,23.681 39.354,23.855 39.833,23.855 C 40.271,23.855 40.634,23.699 40.921,23.386 C 41.208,23.074 41.352,22.614 41.352,22.008 C 41.352,21.418 41.207,20.963 40.916,20.644 C 40.626,20.325 40.267,20.166 39.838,20.166 C 39.416,20.166 39.064,20.324 38.784,20.64 C 38.503,20.955 38.362,21.429 38.362,22.061 Z M 39.857,23.265 C 39.641,23.265 39.463,23.173 39.322,22.989 C 39.18,22.805 39.11,22.467 39.11,21.975 C 39.11,21.53 39.181,21.216 39.324,21.032 C 39.467,20.848 39.643,20.756 39.852,20.756 C 40.071,20.756 40.251,20.848 40.393,21.032 C 40.534,21.216 40.604,21.553 40.604,22.042 C 40.604,22.492 40.533,22.809 40.39,22.991 C 40.247,23.174 40.07,23.265 39.857,23.265 Z" fill-rule="nonzero" stroke-linejoin="round" stroke-linecap="round" stroke="none" stroke-width="0.375" fill="#000000" marker-start="none" marker-end="none" stroke-miterlimit="79.8403193612775"/>
    <path d="M 46.639,21.247 C 46.356,20.932 46.049,20.697 45.715,20.54 C 45.382,20.383 45.022,20.304 44.635,20.304 C 43.921,20.304 43.354,20.545 42.935,21.028 C 42.596,21.421 42.426,21.861 42.426,22.346 C 42.426,22.778 42.565,23.167 42.842,23.515 C 43.12,23.862 43.535,24.168 44.087,24.431 C 43.773,24.793 43.564,25.087 43.459,25.312 C 43.354,25.537 43.302,25.755 43.302,25.964 C 43.302,26.383 43.466,26.747 43.795,27.057 C 44.123,27.366 44.536,27.521 45.035,27.521 C 45.511,27.521 45.9,27.375 46.203,27.083 C 46.506,26.791 46.658,26.44 46.658,26.031 C 46.658,25.368 46.218,24.801 45.339,24.331 L 46.591,22.737 C 46.734,23.016 46.845,23.34 46.924,23.708 L 47.815,23.517 C 47.662,22.908 47.456,22.406 47.196,22.013 C 47.516,21.588 47.88,21.231 48.286,20.942 L 47.71,20.261 C 47.364,20.483 47.007,20.812 46.639,21.247 Z M 44.897,24.883 C 45.268,25.102 45.508,25.294 45.618,25.459 C 45.727,25.625 45.782,25.807 45.782,26.007 C 45.782,26.245 45.707,26.439 45.556,26.59 C 45.405,26.741 45.217,26.816 44.992,26.816 C 44.76,26.816 44.567,26.742 44.413,26.593 C 44.259,26.443 44.182,26.261 44.182,26.045 C 44.182,25.937 44.21,25.824 44.266,25.705 C 44.321,25.586 44.405,25.459 44.516,25.326 L 44.897,24.883 Z M 46.101,21.922 L 44.53,23.87 C 44.067,23.593 43.754,23.337 43.592,23.101 C 43.43,22.864 43.349,22.63 43.349,22.399 C 43.349,22.116 43.462,21.823 43.687,21.518 C 43.913,21.213 44.232,21.061 44.644,21.061 C 44.901,21.061 45.167,21.141 45.442,21.301 C 45.716,21.462 45.936,21.669 46.101,21.922 Z" fill-rule="nonzero" stroke-linejoin="round" stroke-linecap="round" stroke="none" stroke-width="0.375" fill="#000000" marker-start="none" marker-end="none" stroke-miterlimit="79.8403193612775"/>
    <path d="M 49.155,26.478 L 49.155,27.473 L 50.074,27.473 L 50.074,26.688 C 50.074,26.262 50.025,25.956 49.927,25.769 C 49.79,25.512 49.577,25.318 49.289,25.188 L 49.079,25.526 C 49.251,25.596 49.378,25.706 49.462,25.857 C 49.546,26.008 49.593,26.215 49.603,26.478 L 49.155,26.478 Z" fill-rule="nonzero" stroke-linejoin="round" stroke-linecap="round" stroke="none" stroke-width="0.375" fill="#000000" marker-start="none" marker-end="none" stroke-miterlimit="79.8403193612775"/>
    <path d="M 53.066,18.371 C 52.593,18.968 52.193,19.666 51.867,20.466 C 51.54,21.265 51.376,22.094 51.376,22.951 C 51.376,23.706 51.498,24.43 51.743,25.121 C 52.028,25.924 52.47,26.724 53.066,27.521 L 53.68,27.521 C 53.296,26.861 53.042,26.389 52.919,26.107 C 52.725,25.669 52.573,25.212 52.462,24.736 C 52.325,24.142 52.257,23.546 52.257,22.946 C 52.257,21.419 52.731,19.895 53.68,18.371 L 53.066,18.371 Z" fill-rule="nonzero" stroke-linejoin="round" stroke-linecap="round" stroke="none" stroke-width="0.375" fill="#000000" marker-start="none" marker-end="none" stroke-miterlimit="79.8403193612775"/>
    <path d="M 55.292,18.371 L 54.678,18.371 C 55.627,19.895 56.102,21.419 56.102,22.946 C 56.102,23.543 56.033,24.134 55.897,24.722 C 55.789,25.198 55.638,25.655 55.445,26.093 C 55.321,26.378 55.065,26.854 54.678,27.521 L 55.292,27.521 C 55.889,26.724 56.33,25.924 56.616,25.121 C 56.86,24.43 56.982,23.706 56.982,22.951 C 56.982,22.094 56.818,21.265 56.49,20.466 C 56.161,19.666 55.762,18.968 55.292,18.371 Z" fill-rule="nonzero" stroke-linejoin="round" stroke-linecap="round" stroke="none" stroke-width="0.375" fill="#000000" marker-start="none" marker-end="none" stroke-miterlimit="79.8403193612775"/>
    <path d="M 57.695,26.121 L 57.914,26.797 C 58.418,26.619 58.785,26.466 59.013,26.335 C 58.953,26.91 58.921,27.305 58.918,27.521 L 59.608,27.521 C 59.599,27.207 59.562,26.813 59.499,26.34 C 59.826,26.505 60.2,26.658 60.622,26.797 L 60.841,26.121 C 60.438,25.988 60.043,25.899 59.656,25.855 C 59.85,25.686 60.123,25.386 60.475,24.955 L 59.904,24.55 C 59.72,24.801 59.502,25.142 59.251,25.574 C 59.017,25.126 58.81,24.785 58.632,24.55 L 58.071,24.955 C 58.439,25.409 58.702,25.709 58.861,25.855 C 58.452,25.934 58.063,26.023 57.695,26.121 Z" fill-rule="nonzero" stroke-linejoin="round" stroke-linecap="round" stroke="none" stroke-width="0.375" fill="#000000" marker-start="none" marker-end="none" stroke-miterlimit="79.8403193612775"/>
    <path d="M 63.681,21.551 L 63.681,23.465 L 61.782,23.465 L 61.782,24.265 L 63.681,24.265 L 63.681,26.164 L 64.49,26.164 L 64.49,24.265 L 66.39,24.265 L 66.39,23.465 L 64.49,23.465 L 64.49,21.551 L 63.681,21.551 Z" fill-rule="nonzero" stroke-linejoin="round" stroke-linecap="round" stroke="none" stroke-width="0.375" fill="#000000" marker-start="none" marker-end="none" stroke-miterlimit="79.8403193612775"/>
    <path d="M 67.854,20.423 L 67.854,21.399 L 68.83,21.399 L 68.83,20.423 C 68.83,20.064 68.767,19.775 68.64,19.554 C 68.513,19.334 68.311,19.163 68.035,19.043 L 67.797,19.409 C 67.978,19.488 68.111,19.605 68.197,19.759 C 68.283,19.913 68.33,20.134 68.34,20.423 L 67.854,20.423 Z" fill-rule="nonzero" stroke-linejoin="round" stroke-linecap="round" stroke="none" stroke-width="0.375" fill="#000000" marker-start="none" marker-end="none" stroke-miterlimit="79.8403193612775"/>
    <path d="M 70.061,22.518 L 70.061,23.379 L 72.694,23.379 L 72.694,22.518 L 70.061,22.518 Z" fill-rule="nonzero" stroke-linejoin="round" stroke-linecap="round" stroke="none" stroke-width="0.375" fill="#000000" marker-start="none" marker-end="none" stroke-miterlimit="79.8403193612775"/>
    <path d="M 73.939,20.423 L 73.939,21.399 L 74.915,21.399 L 74.915,20.423 L 73.939,20.423 Z" fill-rule="nonzero" stroke-linejoin="round" stroke-linecap="round" stroke="none" stroke-width="0.375" fill="#000000" marker-start="none" marker-end="none" stroke-miterlimit="79.8403193612775"/>
    <path d="M 75.818,20.304 L 77.841,27.521 L 78.527,27.521 L 76.508,20.304 L 75.818,20.304 Z" fill-rule="nonzero" stroke-linejoin="round" stroke-linecap="round" stroke="none" stroke-width="0.375" fill="#000000" marker-start="none" marker-end="none" stroke-miterlimit="79.8403193612775"/>
    <path d="M 78.987,23.865 C 78.987,24.69 79.071,25.354 79.241,25.857 C 79.411,26.36 79.663,26.748 79.998,27.021 C 80.333,27.294 80.754,27.43 81.262,27.43 C 81.637,27.43 81.965,27.355 82.247,27.204 C 82.53,27.053 82.763,26.836 82.947,26.552 C 83.131,26.268 83.276,25.922 83.381,25.514 C 83.485,25.106 83.537,24.557 83.538,23.865 C 83.537,23.046 83.453,22.385 83.285,21.882 C 83.117,21.379 82.866,20.99 82.531,20.716 C 82.196,20.441 81.773,20.304 81.262,20.304 C 80.589,20.304 80.061,20.545 79.677,21.028 C 79.217,21.608 78.987,22.554 78.987,23.865 Z M 79.867,23.865 C 79.867,22.719 80.001,21.957 80.27,21.577 C 80.538,21.198 80.869,21.008 81.262,21.008 C 81.656,21.008 81.987,21.199 82.255,21.58 C 82.523,21.961 82.657,22.722 82.657,23.865 C 82.657,25.014 82.523,25.777 82.255,26.154 C 81.987,26.532 81.652,26.721 81.253,26.721 C 80.859,26.721 80.545,26.554 80.31,26.221 C 80.015,25.796 79.867,25.01 79.867,23.865 Z" fill-rule="nonzero" stroke-linejoin="round" stroke-linecap="round" stroke="none" stroke-width="0.375" fill="#000000" marker-start="none" marker-end="none" stroke-miterlimit="79.8403193612775"/>
    <path d="M 87.691,20.423 L 86.834,20.423 L 86.834,25.883 C 86.628,25.686 86.358,25.49 86.023,25.293 C 85.688,25.096 85.387,24.948 85.121,24.85 L 85.121,25.679 C 85.6,25.904 86.019,26.177 86.377,26.497 C 86.736,26.818 86.99,27.129 87.139,27.43 L 87.691,27.43 L 87.691,20.423 Z" fill-rule="nonzero" stroke-linejoin="round" stroke-linecap="round" stroke="none" stroke-width="0.375" fill="#000000" marker-start="none" marker-end="none" stroke-miterlimit="79.8403193612775"/>
    <path d="M 94.444,21.247 L 94.444,20.423 L 89.831,20.423 C 89.825,20.629 89.858,20.828 89.931,21.018 C 90.049,21.332 90.237,21.642 90.495,21.946 C 90.754,22.251 91.128,22.603 91.616,23.003 C 92.375,23.625 92.887,24.118 93.154,24.481 C 93.42,24.845 93.554,25.188 93.554,25.512 C 93.554,25.851 93.432,26.138 93.19,26.371 C 92.947,26.604 92.63,26.721 92.24,26.721 C 91.827,26.721 91.497,26.597 91.25,26.35 C 91.002,26.102 90.877,25.76 90.874,25.321 L 89.993,25.412 C 90.053,26.069 90.28,26.57 90.674,26.914 C 91.067,27.258 91.596,27.43 92.259,27.43 C 92.929,27.43 93.459,27.245 93.849,26.873 C 94.239,26.502 94.434,26.042 94.434,25.493 C 94.434,25.213 94.377,24.939 94.263,24.669 C 94.149,24.399 93.959,24.115 93.694,23.817 C 93.429,23.519 92.989,23.109 92.373,22.589 C 91.859,22.157 91.529,21.865 91.383,21.711 C 91.237,21.557 91.116,21.402 91.021,21.247 L 94.444,21.247 Z" fill-rule="nonzero" stroke-linejoin="round" stroke-linecap="round" stroke="none" stroke-width="0.375" fill="#000000" marker-start="none" marker-end="none" stroke-miterlimit="79.8403193612775"/>
    <path d="M 95.422,22.265 L 96.279,22.379 C 96.378,21.894 96.545,21.544 96.782,21.33 C 97.018,21.116 97.306,21.008 97.645,21.008 C 98.049,21.008 98.389,21.148 98.667,21.427 C 98.944,21.707 99.083,22.053 99.083,22.465 C 99.083,22.859 98.955,23.183 98.698,23.439 C 98.44,23.694 98.114,23.822 97.717,23.822 C 97.555,23.822 97.354,23.79 97.112,23.727 L 97.208,24.479 C 97.265,24.472 97.311,24.469 97.346,24.469 C 97.711,24.469 98.039,24.565 98.331,24.755 C 98.623,24.945 98.769,25.239 98.769,25.636 C 98.769,25.95 98.663,26.21 98.45,26.416 C 98.237,26.623 97.963,26.726 97.626,26.726 C 97.293,26.726 97.016,26.621 96.793,26.412 C 96.571,26.202 96.428,25.888 96.365,25.469 L 95.508,25.621 C 95.613,26.196 95.851,26.641 96.222,26.957 C 96.593,27.272 97.055,27.43 97.607,27.43 C 97.988,27.43 98.339,27.349 98.659,27.185 C 98.98,27.022 99.225,26.799 99.395,26.516 C 99.565,26.234 99.65,25.934 99.65,25.617 C 99.65,25.315 99.569,25.041 99.407,24.793 C 99.245,24.546 99.005,24.349 98.688,24.203 C 99.101,24.108 99.421,23.91 99.65,23.61 C 99.878,23.31 99.992,22.935 99.992,22.484 C 99.992,21.875 99.77,21.358 99.326,20.935 C 98.882,20.511 98.32,20.299 97.641,20.299 C 97.028,20.299 96.52,20.482 96.115,20.847 C 95.71,21.212 95.48,21.684 95.422,22.265 Z" fill-rule="nonzero" stroke-linejoin="round" stroke-linecap="round" stroke="none" stroke-width="0.375" fill="#000000" marker-start="none" marker-end="none" stroke-miterlimit="79.8403193612775"/>
    <path d="M 103.641,20.423 L 103.641,22.094 L 100.614,22.094 L 100.614,22.879 L 103.799,27.402 L 104.498,27.402 L 104.498,22.879 L 105.441,22.879 L 105.441,22.094 L 104.498,22.094 L 104.498,20.423 L 103.641,20.423 Z M 103.641,22.879 L 103.641,26.026 L 101.456,22.879 L 103.641,22.879 Z" fill-rule="nonzero" stroke-linejoin="round" stroke-linecap="round" stroke="none" stroke-width="0.375" fill="#000000" marker-start="none" marker-end="none" stroke-miterlimit="79.8403193612775"/>
    <path d="M 106.372,22.251 L 107.271,22.327 C 107.338,21.889 107.493,21.56 107.736,21.339 C 107.978,21.119 108.271,21.008 108.614,21.008 C 109.026,21.008 109.375,21.164 109.661,21.475 C 109.947,21.786 110.089,22.199 110.089,22.713 C 110.089,23.202 109.952,23.587 109.678,23.87 C 109.403,24.152 109.044,24.293 108.599,24.293 C 108.323,24.293 108.074,24.23 107.852,24.105 C 107.63,23.98 107.456,23.817 107.329,23.617 L 106.524,23.722 L 107.2,27.307 L 110.67,27.307 L 110.67,26.488 L 107.885,26.488 L 107.509,24.612 C 107.928,24.904 108.368,25.05 108.828,25.05 C 109.437,25.05 109.951,24.839 110.37,24.417 C 110.789,23.995 110.999,23.452 110.999,22.789 C 110.999,22.157 110.815,21.611 110.447,21.151 C 109.999,20.586 109.388,20.304 108.614,20.304 C 107.979,20.304 107.461,20.482 107.059,20.837 C 106.658,21.193 106.429,21.664 106.372,22.251 Z" fill-rule="nonzero" stroke-linejoin="round" stroke-linecap="round" stroke="none" stroke-width="0.375" fill="#000000" marker-start="none" marker-end="none" stroke-miterlimit="79.8403193612775"/>
    <path d="M 116.295,25.693 L 115.443,25.626 C 115.367,25.963 115.259,26.207 115.119,26.359 C 114.887,26.603 114.602,26.726 114.262,26.726 C 113.989,26.726 113.75,26.65 113.543,26.497 C 113.274,26.3 113.061,26.013 112.905,25.636 C 112.75,25.258 112.669,24.72 112.663,24.022 C 112.869,24.336 113.121,24.569 113.42,24.722 C 113.718,24.874 114.031,24.95 114.357,24.95 C 114.929,24.95 115.415,24.74 115.816,24.319 C 116.218,23.899 116.419,23.355 116.419,22.689 C 116.419,22.251 116.324,21.844 116.135,21.468 C 115.947,21.092 115.687,20.804 115.357,20.604 C 115.027,20.404 114.652,20.304 114.234,20.304 C 113.52,20.304 112.937,20.567 112.486,21.092 C 112.036,21.617 111.811,22.483 111.811,23.689 C 111.811,25.037 112.06,26.018 112.558,26.631 C 112.993,27.164 113.578,27.43 114.314,27.43 C 114.864,27.43 115.314,27.276 115.664,26.969 C 116.015,26.661 116.225,26.235 116.295,25.693 Z M 112.796,22.684 C 112.796,22.389 112.859,22.107 112.984,21.837 C 113.109,21.567 113.285,21.362 113.51,21.22 C 113.735,21.079 113.972,21.008 114.219,21.008 C 114.581,21.008 114.892,21.155 115.152,21.447 C 115.413,21.738 115.543,22.135 115.543,22.637 C 115.543,23.119 115.414,23.499 115.157,23.777 C 114.9,24.054 114.576,24.193 114.186,24.193 C 113.799,24.193 113.47,24.054 113.201,23.777 C 112.931,23.499 112.796,23.135 112.796,22.684 Z" fill-rule="nonzero" stroke-linejoin="round" stroke-linecap="round" stroke="none" stroke-width="0.375" fill="#000000" marker-start="none" marker-end="none" stroke-miterlimit="79.8403193612775"/>
    <path d="M 117.383,26.488 L 117.383,27.311 L 121.9,27.311 L 121.9,26.645 C 121.456,26.172 121.016,25.544 120.579,24.76 C 120.143,23.976 119.806,23.17 119.568,22.341 C 119.397,21.758 119.287,21.118 119.239,20.423 L 118.359,20.423 C 118.368,20.972 118.476,21.635 118.682,22.413 C 118.889,23.19 119.184,23.94 119.57,24.662 C 119.956,25.384 120.366,25.993 120.801,26.488 L 117.383,26.488 Z" fill-rule="nonzero" stroke-linejoin="round" stroke-linecap="round" stroke="none" stroke-width="0.375" fill="#000000" marker-start="none" marker-end="none" stroke-miterlimit="79.8403193612775"/>
    <path d="M 124.121,24.207 C 123.766,24.338 123.502,24.523 123.331,24.765 C 123.16,25.006 123.074,25.294 123.074,25.631 C 123.074,26.139 123.256,26.566 123.621,26.911 C 123.986,27.257 124.472,27.43 125.078,27.43 C 125.687,27.43 126.178,27.253 126.549,26.899 C 126.92,26.546 127.106,26.115 127.106,25.607 C 127.106,25.283 127.021,25.002 126.851,24.762 C 126.682,24.523 126.424,24.338 126.078,24.207 C 126.506,24.068 126.832,23.843 127.056,23.532 C 127.28,23.22 127.392,22.849 127.392,22.418 C 127.392,21.821 127.181,21.32 126.758,20.913 C 126.336,20.507 125.781,20.304 125.092,20.304 C 124.404,20.304 123.848,20.508 123.426,20.916 C 123.004,21.324 122.793,21.832 122.793,22.441 C 122.793,22.895 122.908,23.275 123.138,23.581 C 123.368,23.888 123.696,24.096 124.121,24.207 Z M 123.95,25.659 C 123.95,25.329 124.056,25.06 124.269,24.85 C 124.481,24.641 124.758,24.536 125.097,24.536 C 125.427,24.536 125.698,24.64 125.909,24.848 C 126.12,25.056 126.225,25.31 126.225,25.612 C 126.225,25.926 126.117,26.19 125.899,26.404 C 125.682,26.619 125.411,26.726 125.088,26.726 C 124.761,26.726 124.489,26.621 124.274,26.412 C 124.058,26.202 123.95,25.952 123.95,25.659 Z M 123.674,22.437 C 123.674,22.192 123.732,21.956 123.848,21.727 C 123.963,21.499 124.136,21.322 124.364,21.197 C 124.593,21.071 124.838,21.008 125.102,21.008 C 125.511,21.008 125.849,21.14 126.116,21.404 C 126.382,21.667 126.516,22.002 126.516,22.408 C 126.516,22.821 126.378,23.162 126.104,23.432 C 125.829,23.701 125.486,23.836 125.073,23.836 C 124.67,23.836 124.336,23.703 124.071,23.436 C 123.806,23.17 123.674,22.836 123.674,22.437 Z" fill-rule="nonzero" stroke-linejoin="round" stroke-linecap="round" stroke="none" stroke-width="0.375" fill="#000000" marker-start="none" marker-end="none" stroke-miterlimit="79.8403193612775"/>
    <path d="M 128.408,22.037 L 129.232,22.113 C 129.302,21.726 129.435,21.445 129.632,21.27 C 129.828,21.096 130.081,21.008 130.389,21.008 C 130.652,21.008 130.883,21.069 131.081,21.189 C 131.28,21.31 131.442,21.471 131.569,21.673 C 131.696,21.874 131.802,22.146 131.888,22.489 C 131.974,22.832 132.017,23.181 132.017,23.536 C 132.017,23.574 132.015,23.631 132.012,23.708 C 131.841,23.435 131.606,23.213 131.31,23.044 C 131.013,22.874 130.692,22.789 130.346,22.789 C 129.768,22.789 129.279,22.998 128.879,23.417 C 128.48,23.836 128.28,24.388 128.28,25.074 C 128.28,25.782 128.488,26.351 128.906,26.783 C 129.323,27.214 129.846,27.43 130.474,27.43 C 130.928,27.43 131.343,27.308 131.719,27.064 C 132.095,26.819 132.381,26.471 132.576,26.019 C 132.771,25.567 132.869,24.912 132.869,24.055 C 132.869,23.163 132.772,22.453 132.578,21.925 C 132.385,21.396 132.097,20.994 131.714,20.718 C 131.332,20.442 130.884,20.304 130.369,20.304 C 129.824,20.304 129.378,20.455 129.032,20.759 C 128.686,21.062 128.478,21.488 128.408,22.037 Z M 131.917,25.117 C 131.916,25.609 131.786,25.999 131.524,26.288 C 131.262,26.577 130.947,26.721 130.579,26.721 C 130.198,26.721 129.866,26.565 129.584,26.254 C 129.302,25.943 129.16,25.54 129.16,25.045 C 129.16,24.601 129.294,24.24 129.563,23.962 C 129.831,23.685 130.162,23.546 130.555,23.546 C 130.952,23.546 131.278,23.685 131.533,23.962 C 131.789,24.24 131.916,24.625 131.917,25.117 Z" fill-rule="nonzero" stroke-linejoin="round" stroke-linecap="round" stroke="none" stroke-width="0.375" fill="#000000" marker-start="none" marker-end="none" stroke-miterlimit="79.8403193612775"/>
    <path d="M 134.233,24.503 L 134.233,25.479 L 135.209,25.479 L 135.209,24.503 L 134.233,24.503 Z M 134.233,20.423 L 134.233,21.399 L 135.209,21.399 L 135.209,20.423 L 134.233,20.423 Z" fill-rule="nonzero" stroke-linejoin="round" stroke-linecap="round" stroke="none" stroke-width="0.375" fill="#000000" marker-start="none" marker-end="none" stroke-miterlimit="79.8403193612775"/>
    <path d="M 136.982,24.503 L 136.982,25.479 L 137.958,25.479 L 137.958,24.503 L 136.982,24.503 Z M 136.982,20.423 L 136.982,21.399 L 137.958,21.399 L 137.958,20.423 C 137.958,20.064 137.895,19.775 137.768,19.554 C 137.641,19.334 137.439,19.163 137.163,19.043 L 136.925,19.409 C 137.106,19.488 137.239,19.605 137.325,19.759 C 137.411,19.913 137.458,20.134 137.468,20.423 L 136.982,20.423 Z" fill-rule="nonzero" stroke-linejoin="round" stroke-linecap="round" stroke="none" stroke-width="0.375" fill="#000000" marker-start="none" marker-end="none" stroke-miterlimit="79.8403193612775"/>
    <path d="M 139.413,23.474 L 139.413,24.274 L 144.035,26.226 L 144.035,25.374 L 140.37,23.87 L 144.035,22.351 L 144.035,21.499 L 139.413,23.474 Z" fill-rule="nonzero" stroke-linejoin="round" stroke-linecap="round" stroke="none" stroke-width="0.375" fill="#000000" marker-start="none" marker-end="none" stroke-miterlimit="79.8403193612775"/>
    <path d="M 149.78,24.526 L 145.172,24.526 L 145.172,25.326 L 149.78,25.326 L 149.78,24.526 Z M 149.78,22.408 L 145.172,22.408 L 145.172,23.208 L 149.78,23.208 L 149.78,22.408 Z" fill-rule="nonzero" stroke-linejoin="round" stroke-linecap="round" stroke="none" stroke-width="0.375" fill="#000000" marker-start="none" marker-end="none" stroke-miterlimit="79.8403193612775"/>
    <path d="M 155.533,23.474 L 150.911,21.499 L 150.911,22.351 L 154.572,23.87 L 150.911,25.374 L 150.911,26.226 L 155.533,24.274 L 155.533,23.474 Z" fill-rule="nonzero" stroke-linejoin="round" stroke-linecap="round" stroke="none" stroke-width="0.375" fill="#000000" marker-start="none" marker-end="none" stroke-miterlimit="79.8403193612775"/>
    <path d="M 158.374,22.141 C 158.371,22.256 158.369,22.341 158.369,22.399 C 158.369,22.735 158.417,23.025 158.512,23.27 C 158.582,23.454 158.694,23.639 158.85,23.827 C 158.964,23.963 159.17,24.162 159.466,24.424 C 159.763,24.686 159.956,24.895 160.045,25.05 C 160.134,25.206 160.178,25.375 160.178,25.56 C 160.178,25.893 160.048,26.185 159.788,26.438 C 159.528,26.69 159.209,26.816 158.831,26.816 C 158.466,26.816 158.161,26.702 157.917,26.474 C 157.673,26.245 157.512,25.888 157.436,25.402 L 156.555,25.507 C 156.635,26.158 156.87,26.656 157.262,27.002 C 157.654,27.348 158.172,27.521 158.817,27.521 C 159.499,27.521 160.043,27.335 160.449,26.964 C 160.856,26.593 161.059,26.143 161.059,25.617 C 161.059,25.312 160.987,25.031 160.845,24.774 C 160.702,24.517 160.423,24.204 160.007,23.836 C 159.727,23.589 159.545,23.406 159.459,23.289 C 159.374,23.171 159.31,23.036 159.269,22.884 C 159.228,22.732 159.204,22.484 159.197,22.141 L 158.374,22.141 Z M 158.322,20.423 L 158.322,21.399 L 159.297,21.399 L 159.297,20.423 L 158.322,20.423 Z" fill-rule="nonzero" stroke-linejoin="round" stroke-linecap="round" stroke="none" stroke-width="0.375" fill="#000000" marker-start="none" marker-end="none" stroke-miterlimit="79.8403193612775"/>
    <path d="M 167.131,21.199 C 166.925,20.961 166.694,20.77 166.438,20.625 C 166.183,20.481 165.926,20.409 165.669,20.409 C 165.387,20.409 165.112,20.491 164.846,20.656 C 164.579,20.821 164.363,21.075 164.196,21.418 C 164.029,21.761 163.946,22.137 163.946,22.546 C 163.946,23.051 164.075,23.556 164.334,24.062 C 164.593,24.568 164.914,24.949 165.298,25.202 C 165.682,25.456 166.055,25.583 166.417,25.583 C 166.693,25.583 166.956,25.511 167.207,25.367 C 167.458,25.222 167.674,25.002 167.854,24.707 L 168.016,25.445 L 168.868,25.445 L 168.183,22.251 C 168.088,21.807 168.04,21.561 168.04,21.513 C 168.04,21.427 168.073,21.354 168.138,21.292 C 168.203,21.23 168.281,21.199 168.373,21.199 C 168.541,21.199 168.762,21.296 169.035,21.489 C 169.397,21.743 169.683,22.084 169.894,22.51 C 170.105,22.937 170.211,23.378 170.211,23.831 C 170.211,24.361 170.075,24.856 169.804,25.317 C 169.532,25.777 169.128,26.145 168.59,26.421 C 168.052,26.697 167.458,26.835 166.807,26.835 C 166.065,26.835 165.386,26.661 164.772,26.314 C 164.158,25.967 163.682,25.468 163.344,24.819 C 163.006,24.17 162.837,23.475 162.837,22.732 C 162.837,21.954 163.006,21.285 163.344,20.723 C 163.682,20.161 164.171,19.746 164.81,19.478 C 165.45,19.21 166.158,19.076 166.936,19.076 C 167.767,19.076 168.464,19.215 169.025,19.495 C 169.587,19.774 170.008,20.114 170.287,20.513 L 171.149,20.513 C 170.987,20.18 170.709,19.841 170.316,19.495 C 169.922,19.149 169.454,18.875 168.911,18.674 C 168.369,18.472 167.715,18.371 166.95,18.371 C 166.245,18.371 165.596,18.462 165.001,18.643 C 164.405,18.823 163.898,19.096 163.48,19.459 C 163.061,19.822 162.745,20.24 162.532,20.713 C 162.266,21.313 162.132,21.961 162.132,22.656 C 162.132,23.43 162.291,24.168 162.608,24.869 C 162.996,25.729 163.545,26.388 164.258,26.845 C 164.97,27.302 165.834,27.53 166.85,27.53 C 167.637,27.53 168.344,27.369 168.971,27.047 C 169.597,26.725 170.092,26.245 170.453,25.607 C 170.761,25.058 170.915,24.461 170.915,23.817 C 170.915,22.897 170.592,22.08 169.944,21.366 C 169.367,20.724 168.735,20.404 168.05,20.404 C 167.831,20.404 167.654,20.437 167.519,20.504 C 167.384,20.571 167.285,20.666 167.221,20.79 C 167.18,20.869 167.15,21.005 167.131,21.199 Z M 164.827,22.489 C 164.827,22.054 164.93,21.716 165.136,21.475 C 165.342,21.234 165.579,21.113 165.845,21.113 C 166.023,21.113 166.21,21.166 166.407,21.273 C 166.604,21.379 166.792,21.537 166.971,21.746 C 167.151,21.956 167.297,22.222 167.412,22.544 C 167.526,22.866 167.583,23.189 167.583,23.512 C 167.583,23.944 167.476,24.279 167.262,24.517 C 167.047,24.755 166.786,24.874 166.479,24.874 C 166.276,24.874 166.084,24.822 165.905,24.719 C 165.726,24.616 165.552,24.45 165.384,24.222 C 165.216,23.993 165.081,23.716 164.979,23.389 C 164.878,23.062 164.827,22.762 164.827,22.489 Z" fill-rule="nonzero" stroke-linejoin="round" stroke-linecap="round" stroke="none" stroke-width="0.375" fill="#000000" marker-start="none" marker-end="none" stroke-miterlimit="79.8403193612775"/>
    <path d="M 171.543,20.423 L 174.223,27.402 L 175.218,27.402 L 178.074,20.423 L 177.022,20.423 L 176.208,22.537 L 173.29,22.537 L 172.523,20.423 L 171.543,20.423 Z M 173.556,23.289 L 175.922,23.289 L 175.194,25.222 C 174.972,25.809 174.807,26.291 174.699,26.669 C 174.61,26.221 174.485,25.777 174.323,25.336 L 173.556,23.289 Z" fill-rule="nonzero" stroke-linejoin="round" stroke-linecap="round" stroke="none" stroke-width="0.375" fill="#000000" marker-start="none" marker-end="none" stroke-miterlimit="79.8403193612775"/>
    <path d="M 178.829,20.423 L 178.829,27.402 L 181.447,27.402 C 181.98,27.402 182.408,27.331 182.73,27.19 C 183.052,27.049 183.305,26.831 183.487,26.538 C 183.67,26.244 183.761,25.937 183.761,25.617 C 183.761,25.318 183.68,25.037 183.518,24.774 C 183.356,24.511 183.112,24.298 182.785,24.136 C 183.207,24.012 183.532,23.801 183.758,23.503 C 183.985,23.205 184.099,22.852 184.099,22.446 C 184.099,22.119 184.03,21.815 183.892,21.535 C 183.754,21.254 183.583,21.037 183.38,20.885 C 183.177,20.732 182.922,20.617 182.616,20.54 C 182.31,20.462 181.934,20.423 181.49,20.423 L 178.829,20.423 Z M 179.753,24.469 L 181.262,24.469 C 181.671,24.469 181.965,24.496 182.142,24.55 C 182.377,24.62 182.554,24.736 182.673,24.898 C 182.792,25.06 182.852,25.263 182.852,25.507 C 182.852,25.739 182.796,25.943 182.685,26.119 C 182.574,26.295 182.415,26.416 182.209,26.481 C 182.003,26.546 181.649,26.578 181.147,26.578 L 179.753,26.578 L 179.753,24.469 Z M 179.753,21.247 L 181.49,21.247 C 181.788,21.247 181.998,21.258 182.118,21.28 C 182.331,21.318 182.509,21.381 182.652,21.47 C 182.795,21.559 182.912,21.689 183.004,21.858 C 183.096,22.028 183.142,22.224 183.142,22.446 C 183.142,22.706 183.075,22.932 182.942,23.124 C 182.809,23.317 182.624,23.451 182.387,23.529 C 182.151,23.607 181.811,23.646 181.366,23.646 L 179.753,23.646 L 179.753,21.247 Z" fill-rule="nonzero" stroke-linejoin="round" stroke-linecap="round" stroke="none" stroke-width="0.375" fill="#000000" marker-start="none" marker-end="none" stroke-miterlimit="79.8403193612775"/>
    <path d="M 190.404,22.87 L 191.328,22.637 C 191.134,21.878 190.786,21.3 190.283,20.901 C 189.78,20.503 189.165,20.304 188.439,20.304 C 187.686,20.304 187.075,20.457 186.603,20.763 C 186.132,21.07 185.773,21.513 185.528,22.094 C 185.282,22.675 185.159,23.298 185.159,23.965 C 185.159,24.692 185.297,25.325 185.575,25.866 C 185.853,26.408 186.248,26.819 186.76,27.099 C 187.273,27.38 187.837,27.521 188.453,27.521 C 189.151,27.521 189.738,27.343 190.214,26.988 C 190.69,26.632 191.022,26.132 191.209,25.488 L 190.3,25.274 C 190.138,25.782 189.903,26.151 189.595,26.383 C 189.287,26.615 188.9,26.731 188.434,26.731 C 187.897,26.731 187.449,26.602 187.089,26.345 C 186.729,26.088 186.476,25.743 186.33,25.31 C 186.184,24.876 186.111,24.43 186.111,23.969 C 186.111,23.376 186.197,22.858 186.37,22.415 C 186.543,21.972 186.812,21.642 187.177,21.423 C 187.542,21.204 187.937,21.094 188.362,21.094 C 188.88,21.094 189.317,21.243 189.676,21.542 C 190.035,21.84 190.277,22.283 190.404,22.87 Z" fill-rule="nonzero" stroke-linejoin="round" stroke-linecap="round" stroke="none" stroke-width="0.375" fill="#000000" marker-start="none" marker-end="none" stroke-miterlimit="79.8403193612775"/>
    <path d="M 192.521,20.423 L 192.521,27.402 L 194.925,27.402 C 195.468,27.402 195.882,27.368 196.168,27.302 C 196.567,27.21 196.909,27.043 197.191,26.802 C 197.559,26.491 197.835,26.093 198.017,25.609 C 198.199,25.126 198.291,24.573 198.291,23.95 C 198.291,23.42 198.229,22.951 198.105,22.541 C 197.981,22.132 197.823,21.793 197.629,21.525 C 197.435,21.257 197.224,21.046 196.994,20.892 C 196.763,20.738 196.486,20.621 196.161,20.542 C 195.835,20.463 195.462,20.423 195.039,20.423 L 192.521,20.423 Z M 193.445,21.247 L 194.935,21.247 C 195.395,21.247 195.756,21.289 196.018,21.375 C 196.28,21.461 196.488,21.581 196.644,21.737 C 196.863,21.956 197.033,22.25 197.155,22.62 C 197.278,22.99 197.339,23.438 197.339,23.965 C 197.339,24.695 197.219,25.256 196.979,25.648 C 196.74,26.039 196.449,26.302 196.106,26.435 C 195.858,26.531 195.46,26.578 194.911,26.578 L 193.445,26.578 L 193.445,21.247 Z" fill-rule="nonzero" stroke-linejoin="round" stroke-linecap="round" stroke="none" stroke-width="0.375" fill="#000000" marker-start="none" marker-end="none" stroke-miterlimit="79.8403193612775"/>
    <path d="M 199.636,20.423 L 199.636,27.402 L 204.682,27.402 L 204.682,26.578 L 200.56,26.578 L 200.56,24.441 L 204.42,24.441 L 204.42,23.622 L 200.56,23.622 L 200.56,21.247 L 204.844,21.247 L 204.844,20.423 L 199.636,20.423 Z" fill-rule="nonzero" stroke-linejoin="round" stroke-linecap="round" stroke="none" stroke-width="0.375" fill="#000000" marker-start="none" marker-end="none" stroke-miterlimit="79.8403193612775"/>
    <path d="M 206.223,20.423 L 206.223,27.402 L 210.931,27.402 L 210.931,26.578 L 207.146,26.578 L 207.146,24.417 L 210.421,24.417 L 210.421,23.593 L 207.146,23.593 L 207.146,20.423 L 206.223,20.423 Z" fill-rule="nonzero" stroke-linejoin="round" stroke-linecap="round" stroke="none" stroke-width="0.375" fill="#000000" marker-start="none" marker-end="none" stroke-miterlimit="79.8403193612775"/>
    <path d="M 215.452,23.16 L 215.452,23.979 L 218.408,23.984 L 218.408,21.394 C 217.954,21.032 217.486,20.76 217.004,20.578 C 216.521,20.395 216.026,20.304 215.518,20.304 C 214.833,20.304 214.21,20.451 213.65,20.744 C 213.09,21.038 212.667,21.462 212.381,22.018 C 212.096,22.573 211.953,23.194 211.953,23.879 C 211.953,24.558 212.095,25.192 212.379,25.781 C 212.663,26.37 213.072,26.807 213.605,27.092 C 214.138,27.378 214.752,27.521 215.447,27.521 C 215.952,27.521 216.408,27.439 216.816,27.276 C 217.223,27.112 217.543,26.884 217.775,26.593 C 218.006,26.301 218.183,25.92 218.303,25.45 L 217.47,25.222 C 217.365,25.577 217.235,25.856 217.08,26.059 C 216.924,26.262 216.702,26.425 216.413,26.547 C 216.125,26.669 215.804,26.731 215.452,26.731 C 215.03,26.731 214.665,26.666 214.357,26.538 C 214.049,26.409 213.801,26.24 213.612,26.031 C 213.423,25.821 213.276,25.591 213.172,25.34 C 212.994,24.909 212.905,24.441 212.905,23.936 C 212.905,23.314 213.012,22.794 213.226,22.375 C 213.44,21.956 213.752,21.645 214.162,21.442 C 214.571,21.239 215.006,21.137 215.466,21.137 C 215.866,21.137 216.256,21.214 216.637,21.368 C 217.018,21.522 217.307,21.686 217.503,21.861 L 217.503,23.16 L 215.452,23.16 Z" fill-rule="nonzero" stroke-linejoin="round" stroke-linecap="round" stroke="none" stroke-width="0.375" fill="#000000" marker-start="none" marker-end="none" stroke-miterlimit="79.8403193612775"/>
    <path d="M 219.854,20.423 L 219.854,27.402 L 220.777,27.402 L 220.777,24.536 L 224.405,24.536 L 224.405,27.402 L 225.328,27.402 L 225.328,20.423 L 224.405,20.423 L 224.405,23.712 L 220.777,23.712 L 220.777,20.423 L 219.854,20.423 Z" fill-rule="nonzero" stroke-linejoin="round" stroke-linecap="round" stroke="none" stroke-width="0.375" fill="#000000" marker-start="none" marker-end="none" stroke-miterlimit="79.8403193612775"/>
    <path d="M 227.078,20.423 L 227.078,27.402 L 228.002,27.402 L 228.002,20.423 L 227.078,20.423 Z" fill-rule="nonzero" stroke-linejoin="round" stroke-linecap="round" stroke="none" stroke-width="0.375" fill="#000000" marker-start="none" marker-end="none" stroke-miterlimit="79.8403193612775"/>
    <path d="M 229.214,22.403 L 230.047,22.518 C 230.069,21.984 230.169,21.619 230.347,21.423 C 230.524,21.226 230.77,21.128 231.085,21.128 C 231.316,21.128 231.516,21.181 231.684,21.287 C 231.853,21.393 231.969,21.538 232.032,21.72 C 232.096,21.903 232.127,22.194 232.127,22.594 L 232.127,27.402 L 233.051,27.402 L 233.051,22.646 C 233.051,22.062 232.98,21.61 232.839,21.289 C 232.698,20.969 232.474,20.724 232.168,20.556 C 231.861,20.388 231.502,20.304 231.089,20.304 C 230.477,20.304 230.008,20.48 229.683,20.832 C 229.357,21.185 229.201,21.708 229.214,22.403 Z" fill-rule="nonzero" stroke-linejoin="round" stroke-linecap="round" stroke="none" stroke-width="0.375" fill="#000000" marker-start="none" marker-end="none" stroke-miterlimit="79.8403193612775"/>
    <path d="M 234.577,20.423 L 234.577,27.402 L 235.501,27.402 L 235.501,23.941 L 238.966,27.402 L 240.218,27.402 L 237.291,24.574 L 240.347,20.423 L 239.128,20.423 L 236.643,23.955 L 235.501,22.841 L 235.501,20.423 L 234.577,20.423 Z" fill-rule="nonzero" stroke-linejoin="round" stroke-linecap="round" stroke="none" stroke-width="0.375" fill="#000000" marker-start="none" marker-end="none" stroke-miterlimit="79.8403193612775"/>
    <path d="M 241.135,20.423 L 241.135,27.402 L 242.059,27.402 L 242.059,21.247 L 245.496,21.247 L 245.496,20.423 L 241.135,20.423 Z" fill-rule="nonzero" stroke-linejoin="round" stroke-linecap="round" stroke="none" stroke-width="0.375" fill="#000000" marker-start="none" marker-end="none" stroke-miterlimit="79.8403193612775"/>
    <path d="M 246.622,20.423 L 246.622,27.402 L 248.012,27.402 L 249.664,22.46 C 249.816,22 249.927,21.656 249.997,21.427 C 250.076,21.681 250.2,22.054 250.368,22.546 L 252.039,27.402 L 253.281,27.402 L 253.281,20.423 L 252.391,20.423 L 252.391,26.264 L 250.363,20.423 L 249.53,20.423 L 247.512,26.364 L 247.512,20.423 L 246.622,20.423 Z" fill-rule="nonzero" stroke-linejoin="round" stroke-linecap="round" stroke="none" stroke-width="0.375" fill="#000000" marker-start="none" marker-end="none" stroke-miterlimit="79.8403193612775"/>
    <path d="M 254.818,20.423 L 254.818,27.402 L 255.765,27.402 L 259.43,21.922 L 259.43,27.402 L 260.316,27.402 L 260.316,20.423 L 259.369,20.423 L 255.703,25.907 L 255.703,20.423 L 254.818,20.423 Z" fill-rule="nonzero" stroke-linejoin="round" stroke-linecap="round" stroke="none" stroke-width="0.375" fill="#000000" marker-start="none" marker-end="none" stroke-miterlimit="79.8403193612775"/>
    <path d="M 261.642,23.822 C 261.642,24.98 261.953,25.887 262.575,26.542 C 263.197,27.198 264,27.525 264.984,27.525 C 265.628,27.525 266.209,27.372 266.726,27.064 C 267.244,26.756 267.638,26.327 267.909,25.776 C 268.181,25.225 268.316,24.601 268.316,23.903 C 268.316,23.195 268.174,22.562 267.888,22.003 C 267.602,21.445 267.198,21.022 266.674,20.735 C 266.15,20.448 265.586,20.304 264.979,20.304 C 264.322,20.304 263.735,20.463 263.218,20.78 C 262.701,21.097 262.309,21.531 262.042,22.08 C 261.776,22.629 261.642,23.209 261.642,23.822 Z M 262.594,23.808 C 262.594,22.967 262.821,22.304 263.273,21.82 C 263.725,21.336 264.292,21.094 264.975,21.094 C 265.669,21.094 266.242,21.339 266.691,21.827 C 267.14,22.316 267.364,23.009 267.364,23.908 C 267.364,24.476 267.268,24.972 267.076,25.395 C 266.884,25.819 266.603,26.147 266.234,26.381 C 265.864,26.614 265.449,26.731 264.989,26.731 C 264.335,26.731 263.773,26.506 263.301,26.057 C 262.83,25.608 262.594,24.858 262.594,23.808 Z" fill-rule="nonzero" stroke-linejoin="round" stroke-linecap="round" stroke="none" stroke-width="0.375" fill="#000000" marker-start="none" marker-end="none" stroke-miterlimit="79.8403193612775"/>
    <path d="M 269.562,20.423 L 269.562,27.402 L 272.195,27.402 C 272.658,27.402 273.012,27.38 273.256,27.335 C 273.599,27.278 273.886,27.169 274.118,27.009 C 274.349,26.849 274.536,26.624 274.677,26.335 C 274.818,26.047 274.889,25.729 274.889,25.383 C 274.889,24.79 274.7,24.288 274.323,23.877 C 273.945,23.466 273.263,23.26 272.276,23.26 L 270.486,23.26 L 270.486,20.423 L 269.562,20.423 Z M 270.486,24.084 L 272.29,24.084 C 272.886,24.084 273.31,24.195 273.561,24.417 C 273.812,24.639 273.937,24.952 273.937,25.355 C 273.937,25.647 273.863,25.897 273.716,26.105 C 273.568,26.312 273.374,26.45 273.132,26.516 C 272.977,26.558 272.69,26.578 272.271,26.578 L 270.486,26.578 L 270.486,24.084 Z" fill-rule="nonzero" stroke-linejoin="round" stroke-linecap="round" stroke="none" stroke-width="0.375" fill="#000000" marker-start="none" marker-end="none" stroke-miterlimit="79.8403193612775"/>
    <path d="M 281.409,21.17 C 281.837,20.875 282.232,20.659 282.594,20.523 L 282.323,19.88 C 281.821,20.061 281.322,20.347 280.823,20.737 C 280.306,20.448 279.735,20.304 279.11,20.304 C 278.478,20.304 277.905,20.456 277.391,20.761 C 276.877,21.066 276.481,21.494 276.203,22.046 C 275.926,22.598 275.787,23.22 275.787,23.912 C 275.787,24.601 275.927,25.228 276.206,25.793 C 276.485,26.358 276.883,26.788 277.398,27.083 C 277.914,27.378 278.491,27.525 279.129,27.525 C 279.773,27.525 280.354,27.372 280.871,27.066 C 281.388,26.76 281.783,26.331 282.054,25.781 C 282.325,25.23 282.461,24.609 282.461,23.917 C 282.461,23.343 282.374,22.826 282.199,22.368 C 282.025,21.909 281.761,21.51 281.409,21.17 Z M 279.376,22.351 C 279.909,22.202 280.349,21.98 280.695,21.684 C 281.237,22.179 281.509,22.924 281.509,23.917 C 281.509,24.482 281.413,24.976 281.221,25.398 C 281.029,25.82 280.748,26.147 280.378,26.381 C 280.009,26.614 279.594,26.731 279.134,26.731 C 278.445,26.731 277.874,26.495 277.42,26.024 C 276.966,25.552 276.739,24.849 276.739,23.912 C 276.739,23.005 276.963,22.308 277.413,21.823 C 277.862,21.337 278.435,21.094 279.134,21.094 C 279.464,21.094 279.775,21.156 280.066,21.28 C 279.778,21.467 279.473,21.6 279.152,21.68 L 279.376,22.351 Z" fill-rule="nonzero" stroke-linejoin="round" stroke-linecap="round" stroke="none" stroke-width="0.375" fill="#000000" marker-start="none" marker-end="none" stroke-miterlimit="79.8403193612775"/>
    <path d="M 283.773,20.423 L 283.773,27.402 L 286.868,27.402 C 287.49,27.402 287.963,27.339 288.286,27.214 C 288.61,27.088 288.869,26.867 289.062,26.55 C 289.256,26.232 289.353,25.882 289.353,25.498 C 289.353,25.002 289.192,24.585 288.872,24.246 C 288.551,23.906 288.056,23.69 287.387,23.598 C 287.631,23.481 287.817,23.365 287.944,23.251 C 288.213,23.003 288.469,22.694 288.71,22.322 L 289.924,20.423 L 288.762,20.423 L 287.839,21.875 C 287.569,22.294 287.347,22.614 287.172,22.836 C 286.998,23.059 286.842,23.214 286.703,23.303 C 286.565,23.392 286.425,23.454 286.282,23.489 C 286.178,23.511 286.006,23.522 285.768,23.522 L 284.697,23.522 L 284.697,20.423 L 283.773,20.423 Z M 284.697,24.322 L 286.682,24.322 C 287.104,24.322 287.434,24.365 287.672,24.453 C 287.91,24.54 288.091,24.68 288.215,24.872 C 288.339,25.064 288.401,25.272 288.401,25.498 C 288.401,25.828 288.281,26.099 288.041,26.312 C 287.802,26.524 287.423,26.631 286.906,26.631 L 284.697,26.631 L 284.697,24.322 Z" fill-rule="nonzero" stroke-linejoin="round" stroke-linecap="round" stroke="none" stroke-width="0.375" fill="#000000" marker-start="none" marker-end="none" stroke-miterlimit="79.8403193612775"/>
    <path d="M 290.541,22.665 L 291.412,22.741 C 291.453,22.392 291.549,22.106 291.7,21.882 C 291.851,21.658 292.085,21.477 292.402,21.339 C 292.72,21.201 293.077,21.132 293.473,21.132 C 293.826,21.132 294.137,21.185 294.406,21.289 C 294.676,21.394 294.877,21.538 295.009,21.72 C 295.14,21.903 295.206,22.102 295.206,22.318 C 295.206,22.537 295.143,22.728 295.016,22.891 C 294.889,23.055 294.679,23.192 294.387,23.303 C 294.2,23.376 293.786,23.49 293.145,23.643 C 292.504,23.797 292.055,23.942 291.798,24.079 C 291.465,24.254 291.216,24.47 291.053,24.729 C 290.889,24.987 290.808,25.277 290.808,25.598 C 290.808,25.95 290.908,26.279 291.107,26.585 C 291.307,26.892 291.599,27.124 291.983,27.283 C 292.367,27.441 292.794,27.521 293.264,27.521 C 293.781,27.521 294.237,27.437 294.632,27.271 C 295.028,27.104 295.332,26.859 295.544,26.535 C 295.757,26.212 295.871,25.845 295.887,25.436 L 295.001,25.369 C 294.954,25.81 294.793,26.143 294.518,26.369 C 294.244,26.594 293.838,26.707 293.302,26.707 C 292.743,26.707 292.336,26.604 292.081,26.4 C 291.826,26.195 291.698,25.948 291.698,25.659 C 291.698,25.409 291.788,25.202 291.969,25.041 C 292.147,24.879 292.611,24.713 293.361,24.543 C 294.112,24.373 294.627,24.225 294.906,24.098 C 295.312,23.911 295.612,23.674 295.806,23.386 C 296,23.099 296.096,22.768 296.096,22.394 C 296.096,22.023 295.99,21.673 295.777,21.344 C 295.565,21.016 295.259,20.76 294.861,20.578 C 294.463,20.395 294.014,20.304 293.516,20.304 C 292.885,20.304 292.355,20.396 291.929,20.58 C 291.502,20.764 291.167,21.041 290.924,21.411 C 290.681,21.781 290.554,22.199 290.541,22.665 Z" fill-rule="nonzero" stroke-linejoin="round" stroke-linecap="round" stroke="none" stroke-width="0.375" fill="#000000" marker-start="none" marker-end="none" stroke-miterlimit="79.8403193612775"/>
    <path d="M 299.189,20.423 L 299.189,26.578 L 296.89,26.578 L 296.89,27.402 L 302.421,27.402 L 302.421,26.578 L 300.112,26.578 L 300.112,20.423 L 299.189,20.423 Z" fill-rule="nonzero" stroke-linejoin="round" stroke-linecap="round" stroke="none" stroke-width="0.375" fill="#000000" marker-start="none" marker-end="none" stroke-miterlimit="79.8403193612775"/>
    <path d="M 308.004,27.402 L 308.927,27.402 L 308.927,23.37 C 308.927,22.668 308.848,22.111 308.689,21.699 C 308.53,21.286 308.244,20.951 307.83,20.692 C 307.416,20.433 306.872,20.304 306.199,20.304 C 305.546,20.304 305.011,20.417 304.595,20.642 C 304.179,20.867 303.883,21.193 303.705,21.62 C 303.527,22.047 303.438,22.63 303.438,23.37 L 303.438,27.402 L 304.362,27.402 L 304.362,23.374 C 304.362,22.768 304.418,22.322 304.531,22.034 C 304.644,21.747 304.837,21.526 305.112,21.37 C 305.386,21.215 305.722,21.137 306.119,21.137 C 306.798,21.137 307.282,21.291 307.57,21.599 C 307.859,21.907 308.004,22.499 308.004,23.374 L 308.004,27.402 Z" fill-rule="nonzero" stroke-linejoin="round" stroke-linecap="round" stroke="none" stroke-width="0.375" fill="#000000" marker-start="none" marker-end="none" stroke-miterlimit="79.8403193612775"/>
    <path d="M 312.515,20.423 L 309.811,27.402 L 310.81,27.402 L 312.624,22.332 C 312.77,21.926 312.893,21.545 312.991,21.189 C 313.099,21.57 313.224,21.951 313.367,22.332 L 315.252,27.402 L 316.195,27.402 L 313.462,20.423 L 312.515,20.423 Z" fill-rule="nonzero" stroke-linejoin="round" stroke-linecap="round" stroke="none" stroke-width="0.375" fill="#000000" marker-start="none" marker-end="none" stroke-miterlimit="79.8403193612775"/>
    <path d="M 318.297,20.423 L 316.445,27.402 L 317.392,27.402 L 318.454,22.827 C 318.568,22.348 318.667,21.872 318.749,21.399 C 318.927,22.145 319.031,22.575 319.063,22.689 L 320.391,27.402 L 321.505,27.402 L 322.505,23.87 C 322.756,22.994 322.937,22.17 323.048,21.399 C 323.137,21.84 323.252,22.346 323.395,22.917 L 324.49,27.402 L 325.418,27.402 L 323.505,20.423 L 322.614,20.423 L 321.143,25.74 C 321.02,26.185 320.947,26.458 320.925,26.559 C 320.852,26.239 320.783,25.966 320.72,25.74 L 319.239,20.423 L 318.297,20.423 Z" fill-rule="nonzero" stroke-linejoin="round" stroke-linecap="round" stroke="none" stroke-width="0.375" fill="#000000" marker-start="none" marker-end="none" stroke-miterlimit="79.8403193612775"/>
    <path d="M 325.627,20.423 L 328.326,24.06 L 325.946,27.402 L 327.045,27.402 L 328.312,25.612 C 328.575,25.24 328.762,24.955 328.873,24.755 C 329.029,25.009 329.213,25.274 329.426,25.55 L 330.83,27.402 L 331.834,27.402 L 329.383,24.112 L 332.025,20.423 L 330.882,20.423 L 329.126,22.913 C 329.027,23.056 328.926,23.211 328.821,23.379 C 328.666,23.125 328.554,22.951 328.488,22.856 L 326.736,20.423 L 325.627,20.423 Z" fill-rule="nonzero" stroke-linejoin="round" stroke-linecap="round" stroke="none" stroke-width="0.375" fill="#000000" marker-start="none" marker-end="none" stroke-miterlimit="79.8403193612775"/>
    <path d="M 334.86,20.423 L 334.86,23.379 L 332.171,27.402 L 333.294,27.402 L 334.67,25.298 C 334.924,24.904 335.16,24.511 335.379,24.117 C 335.589,24.482 335.842,24.893 336.141,25.35 L 337.493,27.402 L 338.569,27.402 L 335.784,23.379 L 335.784,20.423 L 334.86,20.423 Z" fill-rule="nonzero" stroke-linejoin="round" stroke-linecap="round" stroke="none" stroke-width="0.375" fill="#000000" marker-start="none" marker-end="none" stroke-miterlimit="79.8403193612775"/>
    <path d="M 338.895,20.423 L 338.895,21.28 L 342.47,25.75 C 342.724,26.067 342.965,26.343 343.194,26.578 L 339.3,26.578 L 339.3,27.402 L 344.298,27.402 L 344.298,26.578 L 340.38,21.737 L 339.957,21.247 L 344.413,21.247 L 344.413,20.423 L 338.895,20.423 Z" fill-rule="nonzero" stroke-linejoin="round" stroke-linecap="round" stroke="none" stroke-width="0.375" fill="#000000" marker-start="none" marker-end="none" stroke-miterlimit="79.8403193612775"/>
    <path d="M 345.373,18.485 L 345.373,27.402 L 347.263,27.402 L 347.263,26.692 L 346.23,26.692 L 346.23,19.195 L 347.263,19.195 L 347.263,18.485 L 345.373,18.485 Z" fill-rule="nonzero" stroke-linejoin="round" stroke-linecap="round" stroke="none" stroke-width="0.375" fill="#000000" marker-start="none" marker-end="none" stroke-miterlimit="79.8403193612775"/>
    <path d="M 349.498,20.304 L 347.475,27.521 L 348.165,27.521 L 350.184,20.304 L 349.498,20.304 Z" fill-rule="nonzero" stroke-linejoin="round" stroke-linecap="round" stroke="none" stroke-width="0.375" fill="#000000" marker-start="none" marker-end="none" stroke-miterlimit="79.8403193612775"/>
    <path d="M 352.315,18.485 L 350.425,18.485 L 350.425,19.195 L 351.458,19.195 L 351.458,26.692 L 350.425,26.692 L 350.425,27.402 L 352.315,27.402 L 352.315,18.485 Z" fill-rule="nonzero" stroke-linejoin="round" stroke-linecap="round" stroke="none" stroke-width="0.375" fill="#000000" marker-start="none" marker-end="none" stroke-miterlimit="79.8403193612775"/>
    <path d="M 354.141,23.708 L 353.26,23.708 L 354.941,27.521 L 355.631,27.521 L 357.321,23.708 L 356.459,23.708 L 355.283,26.55 L 354.141,23.708 Z" fill-rule="nonzero" stroke-linejoin="round" stroke-linecap="round" stroke="none" stroke-width="0.375" fill="#000000" marker-start="none" marker-end="none" stroke-miterlimit="79.8403193612775"/>
    <path d="M 357.485,18.485 L 357.485,19.104 L 363.165,19.104 L 363.165,18.485 L 357.485,18.485 Z" fill-rule="nonzero" stroke-linejoin="round" stroke-linecap="round" stroke="none" stroke-width="0.375" fill="#000000" marker-start="none" marker-end="none" stroke-miterlimit="79.8403193612775"/>
    <path d="M 365.324,26.107 L 364.633,26.107 L 363.534,27.44 L 364.681,27.44 L 365.324,26.107 Z" fill-rule="nonzero" stroke-linejoin="round" stroke-linecap="round" stroke="none" stroke-width="0.375" fill="#000000" marker-start="none" marker-end="none" stroke-miterlimit="79.8403193612775"/>
    <path d="M 370.354,21.047 C 370.036,20.777 369.731,20.586 369.437,20.475 C 369.144,20.364 368.829,20.309 368.492,20.309 C 367.937,20.309 367.51,20.444 367.212,20.716 C 366.913,20.987 366.764,21.334 366.764,21.756 C 366.764,22.003 366.821,22.23 366.933,22.434 C 367.046,22.639 367.193,22.803 367.376,22.927 C 367.558,23.051 367.764,23.144 367.992,23.208 C 368.161,23.252 368.415,23.295 368.754,23.336 C 369.446,23.419 369.955,23.517 370.282,23.631 C 370.285,23.749 370.287,23.823 370.287,23.855 C 370.287,24.204 370.206,24.45 370.044,24.593 C 369.825,24.787 369.5,24.883 369.068,24.883 C 368.665,24.883 368.368,24.813 368.176,24.672 C 367.984,24.53 367.842,24.28 367.75,23.922 L 366.912,24.036 C 366.988,24.395 367.113,24.684 367.288,24.905 C 367.462,25.125 367.715,25.295 368.045,25.414 C 368.375,25.533 368.757,25.593 369.192,25.593 C 369.624,25.593 369.974,25.542 370.244,25.44 C 370.514,25.339 370.712,25.211 370.839,25.057 C 370.966,24.903 371.055,24.709 371.106,24.474 C 371.134,24.328 371.149,24.065 371.149,23.684 L 371.149,22.541 C 371.149,21.745 371.167,21.241 371.203,21.03 C 371.24,20.819 371.312,20.617 371.42,20.423 L 370.525,20.423 C 370.436,20.601 370.379,20.809 370.354,21.047 Z M 370.282,22.96 C 369.971,22.833 369.505,22.725 368.883,22.637 C 368.53,22.586 368.281,22.529 368.135,22.465 C 367.989,22.402 367.877,22.309 367.797,22.187 C 367.718,22.065 367.678,21.929 367.678,21.78 C 367.678,21.551 367.765,21.361 367.938,21.208 C 368.111,21.056 368.364,20.98 368.697,20.98 C 369.027,20.98 369.321,21.052 369.578,21.197 C 369.835,21.341 370.024,21.538 370.144,21.789 C 370.236,21.983 370.282,22.268 370.282,22.646 L 370.282,22.96 Z" fill-rule="nonzero" stroke-linejoin="round" stroke-linecap="round" stroke="none" stroke-width="0.375" fill="#000000" marker-start="none" marker-end="none" stroke-miterlimit="79.8403193612775"/>
    <path d="M 373.322,20.423 L 372.527,20.423 L 372.527,27.402 L 373.384,27.402 L 373.384,24.912 C 373.746,25.366 374.207,25.593 374.769,25.593 C 375.08,25.593 375.374,25.53 375.652,25.405 C 375.93,25.279 376.158,25.103 376.338,24.876 C 376.517,24.649 376.657,24.376 376.759,24.055 C 376.86,23.735 376.911,23.392 376.911,23.027 C 376.911,22.161 376.697,21.491 376.269,21.018 C 375.84,20.545 375.326,20.309 374.726,20.309 C 374.13,20.309 373.661,20.558 373.322,21.056 L 373.322,20.423 Z M 373.312,22.989 C 373.312,22.383 373.395,21.945 373.56,21.675 C 373.83,21.234 374.195,21.013 374.655,21.013 C 375.029,21.013 375.353,21.176 375.626,21.501 C 375.899,21.826 376.035,22.311 376.035,22.956 C 376.035,23.616 375.904,24.103 375.643,24.417 C 375.381,24.731 375.064,24.888 374.693,24.888 C 374.318,24.888 373.995,24.726 373.722,24.4 C 373.449,24.075 373.312,23.605 373.312,22.989 Z" fill-rule="nonzero" stroke-linejoin="round" stroke-linecap="round" stroke="none" stroke-width="0.375" fill="#000000" marker-start="none" marker-end="none" stroke-miterlimit="79.8403193612775"/>
    <path d="M 381.308,22.275 L 382.15,22.165 C 382.058,21.585 381.822,21.13 381.443,20.801 C 381.064,20.473 380.598,20.309 380.046,20.309 C 379.354,20.309 378.798,20.535 378.378,20.987 C 377.957,21.439 377.747,22.088 377.747,22.932 C 377.747,23.478 377.837,23.955 378.018,24.365 C 378.199,24.774 378.474,25.081 378.844,25.286 C 379.214,25.49 379.616,25.593 380.051,25.593 C 380.6,25.593 381.049,25.454 381.398,25.176 C 381.747,24.899 381.971,24.504 382.069,23.993 L 381.236,23.865 C 381.157,24.204 381.016,24.46 380.815,24.631 C 380.613,24.802 380.37,24.888 380.084,24.888 C 379.652,24.888 379.302,24.734 379.032,24.424 C 378.762,24.115 378.627,23.625 378.627,22.956 C 378.627,22.276 378.758,21.783 379.018,21.475 C 379.278,21.167 379.618,21.013 380.037,21.013 C 380.373,21.013 380.654,21.116 380.879,21.323 C 381.104,21.529 381.247,21.846 381.308,22.275 Z" fill-rule="nonzero" stroke-linejoin="round" stroke-linecap="round" stroke="none" stroke-width="0.375" fill="#000000" marker-start="none" marker-end="none" stroke-miterlimit="79.8403193612775"/>
    <path d="M 386.219,20.423 L 386.219,21.061 C 385.898,20.559 385.427,20.309 384.805,20.309 C 384.402,20.309 384.031,20.42 383.693,20.642 C 383.355,20.864 383.093,21.174 382.908,21.573 C 382.722,21.971 382.629,22.429 382.629,22.946 C 382.629,23.451 382.713,23.908 382.881,24.319 C 383.05,24.73 383.302,25.045 383.638,25.264 C 383.975,25.483 384.351,25.593 384.767,25.593 C 385.071,25.593 385.343,25.529 385.581,25.4 C 385.819,25.272 386.012,25.104 386.161,24.898 L 386.161,27.402 L 387.014,27.402 L 387.014,20.423 L 386.219,20.423 Z M 383.51,22.946 C 383.51,22.299 383.646,21.815 383.919,21.494 C 384.192,21.174 384.514,21.013 384.886,21.013 C 385.26,21.013 385.578,21.166 385.84,21.473 C 386.102,21.779 386.233,22.246 386.233,22.875 C 386.233,23.566 386.1,24.074 385.833,24.398 C 385.566,24.722 385.238,24.883 384.848,24.883 C 384.467,24.883 384.149,24.728 383.893,24.417 C 383.638,24.106 383.51,23.616 383.51,22.946 Z" fill-rule="nonzero" stroke-linejoin="round" stroke-linecap="round" stroke="none" stroke-width="0.375" fill="#000000" marker-start="none" marker-end="none" stroke-miterlimit="79.8403193612775"/>
    <path d="M 391.876,22.051 L 392.762,21.942 C 392.622,21.424 392.364,21.023 391.986,20.737 C 391.608,20.451 391.126,20.309 390.539,20.309 C 389.799,20.309 389.213,20.536 388.78,20.992 C 388.347,21.447 388.13,22.086 388.13,22.908 C 388.13,23.758 388.349,24.419 388.787,24.888 C 389.225,25.358 389.793,25.593 390.491,25.593 C 391.167,25.593 391.719,25.363 392.148,24.903 C 392.576,24.442 392.79,23.795 392.79,22.96 C 392.79,22.909 392.789,22.833 392.786,22.732 L 389.015,22.732 C 389.047,22.177 389.204,21.751 389.487,21.456 C 389.769,21.161 390.121,21.013 390.544,21.013 C 390.858,21.013 391.126,21.096 391.348,21.261 C 391.57,21.426 391.746,21.689 391.876,22.051 Z M 389.063,23.436 L 391.886,23.436 C 391.848,23.862 391.74,24.181 391.562,24.393 C 391.289,24.723 390.936,24.888 390.501,24.888 C 390.107,24.888 389.776,24.757 389.508,24.493 C 389.24,24.23 389.092,23.877 389.063,23.436 Z" fill-rule="nonzero" stroke-linejoin="round" stroke-linecap="round" stroke="none" stroke-width="0.375" fill="#000000" marker-start="none" marker-end="none" stroke-miterlimit="79.8403193612775"/>
    <path d="M 394.097,20.423 L 394.097,24.812 L 393.34,24.812 L 393.34,25.479 L 394.097,25.479 L 394.097,26.017 C 394.097,26.356 394.128,26.608 394.188,26.773 C 394.27,26.995 394.416,27.176 394.623,27.314 C 394.831,27.452 395.122,27.521 395.497,27.521 C 395.738,27.521 396.005,27.492 396.297,27.435 L 396.168,26.688 C 395.99,26.719 395.822,26.735 395.663,26.735 C 395.403,26.735 395.219,26.68 395.111,26.569 C 395.003,26.458 394.949,26.25 394.949,25.945 L 394.949,25.479 L 395.935,25.479 L 395.935,24.812 L 394.949,24.812 L 394.949,20.423 L 394.097,20.423 Z" fill-rule="nonzero" stroke-linejoin="round" stroke-linecap="round" stroke="none" stroke-width="0.375" fill="#000000" marker-start="none" marker-end="none" stroke-miterlimit="79.8403193612775"/>
    <path d="M 396.5,20.004 L 397.333,19.88 C 397.368,19.623 397.464,19.436 397.623,19.319 C 397.836,19.16 398.126,19.081 398.494,19.081 C 398.891,19.081 399.197,19.16 399.413,19.319 C 399.629,19.477 399.775,19.699 399.851,19.985 C 399.895,20.16 399.916,20.526 399.913,21.085 C 399.538,20.644 399.072,20.423 398.513,20.423 C 397.818,20.423 397.28,20.674 396.899,21.175 C 396.519,21.677 396.328,22.278 396.328,22.979 C 396.328,23.462 396.415,23.907 396.59,24.315 C 396.765,24.722 397.018,25.037 397.349,25.26 C 397.681,25.482 398.07,25.593 398.518,25.593 C 399.115,25.593 399.606,25.352 399.994,24.869 L 399.994,25.479 L 400.784,25.479 L 400.784,21.109 C 400.784,20.321 400.704,19.764 400.543,19.435 C 400.383,19.107 400.129,18.847 399.782,18.657 C 399.434,18.466 399.007,18.371 398.499,18.371 C 397.896,18.371 397.409,18.507 397.038,18.778 C 396.666,19.05 396.487,19.458 396.5,20.004 Z M 397.209,23.041 C 397.209,22.378 397.341,21.894 397.604,21.589 C 397.867,21.285 398.197,21.132 398.594,21.132 C 398.988,21.132 399.318,21.284 399.584,21.587 C 399.851,21.89 399.984,22.365 399.984,23.013 C 399.984,23.631 399.847,24.098 399.572,24.412 C 399.298,24.726 398.967,24.883 398.58,24.883 C 398.199,24.883 397.875,24.729 397.609,24.419 C 397.342,24.11 397.209,23.651 397.209,23.041 Z" fill-rule="nonzero" stroke-linejoin="round" stroke-linecap="round" stroke="none" stroke-width="0.375" fill="#000000" marker-start="none" marker-end="none" stroke-miterlimit="79.8403193612775"/>
    <path d="M 402.134,20.423 L 402.134,27.402 L 402.99,27.402 L 402.99,24.898 C 403.39,25.361 403.895,25.593 404.504,25.593 C 404.879,25.593 405.204,25.519 405.48,25.371 C 405.756,25.224 405.954,25.02 406.073,24.76 C 406.192,24.5 406.251,24.122 406.251,23.627 L 406.251,20.423 L 405.394,20.423 L 405.394,23.627 C 405.394,24.055 405.302,24.367 405.116,24.562 C 404.93,24.757 404.668,24.855 404.328,24.855 C 404.074,24.855 403.836,24.789 403.612,24.657 C 403.388,24.526 403.229,24.347 403.133,24.122 C 403.038,23.896 402.99,23.586 402.99,23.189 L 402.99,20.423 L 402.134,20.423 Z" fill-rule="nonzero" stroke-linejoin="round" stroke-linecap="round" stroke="none" stroke-width="0.375" fill="#000000" marker-start="none" marker-end="none" stroke-miterlimit="79.8403193612775"/>
    <path d="M 407.615,26.416 L 407.615,27.402 L 408.472,27.402 L 408.472,26.416 L 407.615,26.416 Z M 407.615,20.423 L 407.615,25.479 L 408.472,25.479 L 408.472,20.423 L 407.615,20.423 Z" fill-rule="nonzero" stroke-linejoin="round" stroke-linecap="round" stroke="none" stroke-width="0.375" fill="#000000" marker-start="none" marker-end="none" stroke-miterlimit="79.8403193612775"/>
    <path d="M 409.827,26.407 L 409.827,27.402 L 410.684,27.402 L 410.684,26.407 L 409.827,26.407 Z M 408.741,18.462 L 408.903,19.19 C 409.075,19.146 409.21,19.124 409.308,19.123 C 409.483,19.124 409.613,19.181 409.698,19.297 C 409.784,19.413 409.827,19.703 409.827,20.166 L 409.827,25.479 L 410.684,25.479 L 410.684,20.147 C 410.684,19.525 410.603,19.092 410.441,18.847 C 410.235,18.53 409.892,18.371 409.413,18.371 C 409.181,18.371 408.957,18.401 408.741,18.462 Z" fill-rule="nonzero" stroke-linejoin="round" stroke-linecap="round" stroke="none" stroke-width="0.375" fill="#000000" marker-start="none" marker-end="none" stroke-miterlimit="79.8403193612775"/>
    <path d="M 412.057,20.423 L 412.057,27.402 L 412.914,27.402 L 412.914,23.422 L 414.942,25.479 L 416.051,25.479 L 414.119,23.603 L 416.247,20.423 L 415.19,20.423 L 413.519,23.008 L 412.914,22.427 L 412.914,20.423 L 412.057,20.423 Z" fill-rule="nonzero" stroke-linejoin="round" stroke-linecap="round" stroke="none" stroke-width="0.375" fill="#000000" marker-start="none" marker-end="none" stroke-miterlimit="79.8403193612775"/>
    <path d="M 416.964,20.423 L 416.964,27.402 L 417.821,27.402 L 417.821,20.423 L 416.964,20.423 Z" fill-rule="nonzero" stroke-linejoin="round" stroke-linecap="round" stroke="none" stroke-width="0.375" fill="#000000" marker-start="none" marker-end="none" stroke-miterlimit="79.8403193612775"/>
    <path d="M 419.204,20.423 L 419.204,25.479 L 419.97,25.479 L 419.97,24.769 C 420.129,25.017 420.34,25.216 420.603,25.367 C 420.867,25.517 421.166,25.593 421.503,25.593 C 421.877,25.593 422.184,25.515 422.424,25.36 C 422.664,25.204 422.833,24.987 422.931,24.707 C 423.331,25.298 423.851,25.593 424.492,25.593 C 424.994,25.593 425.379,25.454 425.649,25.176 C 425.919,24.899 426.054,24.471 426.054,23.893 L 426.054,20.423 L 425.202,20.423 L 425.202,23.608 C 425.202,23.95 425.174,24.197 425.118,24.348 C 425.063,24.499 424.962,24.62 424.816,24.712 C 424.67,24.804 424.499,24.85 424.302,24.85 C 423.947,24.85 423.651,24.732 423.417,24.495 C 423.182,24.259 423.064,23.881 423.064,23.36 L 423.064,20.423 L 422.207,20.423 L 422.207,23.708 C 422.207,24.088 422.138,24.374 421.998,24.565 C 421.858,24.755 421.63,24.85 421.312,24.85 C 421.071,24.85 420.848,24.787 420.644,24.66 C 420.439,24.533 420.291,24.347 420.199,24.103 C 420.107,23.859 420.06,23.506 420.06,23.046 L 420.06,20.423 L 419.204,20.423 Z" fill-rule="nonzero" stroke-linejoin="round" stroke-linecap="round" stroke="none" stroke-width="0.375" fill="#000000" marker-start="none" marker-end="none" stroke-miterlimit="79.8403193612775"/>
    <path d="M 427.381,20.423 L 427.381,25.479 L 428.152,25.479 L 428.152,24.76 C 428.523,25.315 429.059,25.593 429.761,25.593 C 430.065,25.593 430.346,25.538 430.601,25.429 C 430.857,25.319 431.048,25.175 431.175,24.998 C 431.302,24.82 431.39,24.609 431.441,24.365 C 431.473,24.206 431.489,23.928 431.489,23.532 L 431.489,20.423 L 430.632,20.423 L 430.632,23.498 C 430.632,23.847 430.599,24.108 430.532,24.281 C 430.465,24.454 430.347,24.592 430.177,24.695 C 430.008,24.799 429.808,24.85 429.58,24.85 C 429.215,24.85 428.9,24.734 428.635,24.503 C 428.37,24.271 428.237,23.831 428.237,23.184 L 428.237,20.423 L 427.381,20.423 Z" fill-rule="nonzero" stroke-linejoin="round" stroke-linecap="round" stroke="none" stroke-width="0.375" fill="#000000" marker-start="none" marker-end="none" stroke-miterlimit="79.8403193612775"/>
    <path d="M 432.539,22.951 C 432.539,23.887 432.799,24.58 433.319,25.031 C 433.754,25.406 434.284,25.593 434.909,25.593 C 435.604,25.593 436.172,25.365 436.614,24.91 C 437.055,24.454 437.275,23.825 437.275,23.022 C 437.275,22.371 437.178,21.86 436.983,21.487 C 436.787,21.114 436.503,20.824 436.13,20.618 C 435.758,20.412 435.35,20.309 434.909,20.309 C 434.202,20.309 433.63,20.536 433.193,20.99 C 432.757,21.443 432.539,22.097 432.539,22.951 Z M 433.419,22.951 C 433.419,22.303 433.561,21.819 433.843,21.497 C 434.126,21.174 434.481,21.013 434.909,21.013 C 435.335,21.013 435.688,21.175 435.971,21.499 C 436.253,21.823 436.395,22.316 436.395,22.979 C 436.395,23.605 436.253,24.078 435.969,24.4 C 435.685,24.722 435.332,24.883 434.909,24.883 C 434.481,24.883 434.126,24.723 433.843,24.403 C 433.561,24.082 433.419,23.598 433.419,22.951 Z" fill-rule="nonzero" stroke-linejoin="round" stroke-linecap="round" stroke="none" stroke-width="0.375" fill="#000000" marker-start="none" marker-end="none" stroke-miterlimit="79.8403193612775"/>
    <path d="M 438.335,18.485 L 438.335,25.479 L 439.115,25.479 L 439.115,24.822 C 439.299,25.079 439.507,25.272 439.739,25.4 C 439.971,25.529 440.251,25.593 440.582,25.593 C 441.013,25.593 441.394,25.482 441.724,25.26 C 442.054,25.037 442.303,24.724 442.471,24.319 C 442.64,23.915 442.724,23.471 442.724,22.989 C 442.724,22.472 442.631,22.006 442.445,21.592 C 442.26,21.177 441.99,20.86 441.636,20.64 C 441.282,20.419 440.91,20.309 440.52,20.309 C 440.234,20.309 439.978,20.369 439.751,20.49 C 439.524,20.61 439.337,20.763 439.191,20.947 L 439.191,18.485 L 438.335,18.485 Z M 439.111,22.922 C 439.111,22.272 439.242,21.791 439.506,21.48 C 439.769,21.169 440.088,21.013 440.463,21.013 C 440.843,21.013 441.17,21.174 441.441,21.497 C 441.712,21.819 441.848,22.318 441.848,22.994 C 441.848,23.638 441.715,24.12 441.45,24.441 C 441.185,24.761 440.869,24.921 440.501,24.922 C 440.136,24.921 439.813,24.751 439.532,24.41 C 439.251,24.069 439.111,23.573 439.111,22.922 Z" fill-rule="nonzero" stroke-linejoin="round" stroke-linecap="round" stroke="none" stroke-width="0.375" fill="#000000" marker-start="none" marker-end="none" stroke-miterlimit="79.8403193612775"/>
    <path d="M 447.034,18.485 L 447.034,20.961 C 446.901,20.774 446.715,20.618 446.475,20.494 C 446.236,20.371 445.981,20.309 445.711,20.309 C 445.111,20.309 444.595,20.548 444.162,21.028 C 443.728,21.507 443.512,22.164 443.512,22.998 C 443.512,23.506 443.6,23.962 443.776,24.365 C 443.952,24.768 444.208,25.073 444.542,25.281 C 444.877,25.489 445.245,25.593 445.644,25.593 C 446.27,25.593 446.762,25.329 447.12,24.803 L 447.12,25.479 L 447.891,25.479 L 447.891,18.485 L 447.034,18.485 Z M 444.392,22.965 C 444.392,22.314 444.529,21.826 444.802,21.501 C 445.075,21.176 445.402,21.013 445.782,21.013 C 446.148,21.013 446.462,21.168 446.725,21.477 C 446.988,21.787 447.12,22.257 447.12,22.889 C 447.12,23.562 446.981,24.068 446.704,24.407 C 446.426,24.747 446.1,24.917 445.725,24.917 C 445.354,24.917 445.039,24.759 444.78,24.443 C 444.522,24.127 444.392,23.635 444.392,22.965 Z" fill-rule="nonzero" stroke-linejoin="round" stroke-linecap="round" stroke="none" stroke-width="0.375" fill="#000000" marker-start="none" marker-end="none" stroke-miterlimit="79.8403193612775"/>
    <path d="M 449.279,20.423 L 449.279,25.479 L 450.05,25.479 L 450.05,24.712 C 450.247,25.071 450.429,25.307 450.595,25.421 C 450.762,25.536 450.945,25.593 451.145,25.593 C 451.434,25.593 451.728,25.501 452.026,25.317 L 451.731,24.522 C 451.521,24.646 451.312,24.707 451.102,24.707 C 450.915,24.707 450.747,24.651 450.598,24.538 C 450.449,24.426 450.342,24.269 450.279,24.069 C 450.184,23.765 450.136,23.432 450.136,23.07 L 450.136,20.423 L 449.279,20.423 Z" fill-rule="nonzero" stroke-linejoin="round" stroke-linecap="round" stroke="none" stroke-width="0.375" fill="#000000" marker-start="none" marker-end="none" stroke-miterlimit="79.8403193612775"/>
    <path d="M 452.248,21.932 L 453.095,22.065 C 453.143,21.726 453.275,21.465 453.493,21.285 C 453.71,21.104 454.014,21.013 454.404,21.013 C 454.798,21.013 455.09,21.093 455.28,21.254 C 455.471,21.414 455.566,21.602 455.566,21.818 C 455.566,22.011 455.482,22.164 455.314,22.275 C 455.196,22.351 454.904,22.448 454.438,22.565 C 453.809,22.724 453.374,22.861 453.131,22.977 C 452.888,23.093 452.704,23.253 452.579,23.458 C 452.453,23.662 452.391,23.889 452.391,24.136 C 452.391,24.361 452.442,24.57 452.545,24.762 C 452.649,24.954 452.789,25.113 452.967,25.24 C 453.1,25.339 453.282,25.422 453.512,25.49 C 453.742,25.559 453.989,25.593 454.252,25.593 C 454.649,25.593 454.997,25.536 455.297,25.421 C 455.597,25.307 455.818,25.152 455.961,24.957 C 456.104,24.762 456.202,24.501 456.256,24.174 L 455.418,24.06 C 455.38,24.32 455.27,24.523 455.088,24.669 C 454.905,24.815 454.647,24.888 454.314,24.888 C 453.92,24.888 453.639,24.823 453.471,24.693 C 453.303,24.563 453.219,24.411 453.219,24.236 C 453.219,24.125 453.254,24.025 453.324,23.936 C 453.394,23.844 453.503,23.768 453.652,23.708 C 453.738,23.676 453.99,23.603 454.409,23.489 C 455.015,23.327 455.438,23.194 455.678,23.091 C 455.917,22.988 456.105,22.838 456.242,22.641 C 456.378,22.445 456.446,22.2 456.447,21.908 C 456.446,21.623 456.363,21.354 456.197,21.101 C 456.03,20.849 455.79,20.654 455.475,20.516 C 455.161,20.378 454.806,20.309 454.409,20.309 C 453.752,20.309 453.252,20.445 452.907,20.718 C 452.563,20.991 452.343,21.396 452.248,21.932 Z" fill-rule="nonzero" stroke-linejoin="round" stroke-linecap="round" stroke="none" stroke-width="0.375" fill="#000000" marker-start="none" marker-end="none" stroke-miterlimit="79.8403193612775"/>
    <path d="M 459.392,21.189 L 459.515,20.432 C 459.274,20.382 459.058,20.356 458.868,20.356 C 458.557,20.356 458.316,20.406 458.144,20.504 C 457.973,20.602 457.852,20.732 457.783,20.892 C 457.713,21.052 457.678,21.389 457.678,21.904 L 457.678,24.812 L 457.049,24.812 L 457.049,25.479 L 457.678,25.479 L 457.678,26.731 L 458.53,27.245 L 458.53,25.479 L 459.392,25.479 L 459.392,24.812 L 458.53,24.812 L 458.53,21.856 C 458.53,21.611 458.545,21.454 458.575,21.385 C 458.605,21.315 458.654,21.259 458.723,21.218 C 458.791,21.177 458.889,21.156 459.015,21.156 C 459.111,21.156 459.236,21.167 459.392,21.189 Z" fill-rule="nonzero" stroke-linejoin="round" stroke-linecap="round" stroke="none" stroke-width="0.375" fill="#000000" marker-start="none" marker-end="none" stroke-miterlimit="79.8403193612775"/>
    <path d="M 463.598,20.423 L 463.598,21.166 C 463.204,20.594 462.67,20.309 461.994,20.309 C 461.695,20.309 461.417,20.366 461.158,20.48 C 460.9,20.594 460.708,20.738 460.582,20.911 C 460.457,21.084 460.369,21.296 460.318,21.546 C 460.283,21.715 460.266,21.981 460.266,22.346 L 460.266,25.479 L 461.123,25.479 L 461.123,22.675 C 461.123,22.227 461.14,21.926 461.175,21.77 C 461.229,21.545 461.343,21.368 461.518,21.239 C 461.692,21.111 461.908,21.047 462.165,21.047 C 462.422,21.047 462.663,21.112 462.889,21.244 C 463.114,21.376 463.273,21.555 463.367,21.782 C 463.461,22.009 463.507,22.338 463.507,22.77 L 463.507,25.479 L 464.364,25.479 L 464.364,20.423 L 463.598,20.423 Z" fill-rule="nonzero" stroke-linejoin="round" stroke-linecap="round" stroke="none" stroke-width="0.375" fill="#000000" marker-start="none" marker-end="none" stroke-miterlimit="79.8403193612775"/>
    <path d="M 467.166,20.423 L 465.243,25.479 L 466.147,25.479 L 467.233,22.451 C 467.35,22.124 467.458,21.784 467.556,21.432 C 467.633,21.699 467.739,22.019 467.875,22.394 L 468.999,25.479 L 469.879,25.479 L 467.966,20.423 L 467.166,20.423 Z" fill-rule="nonzero" stroke-linejoin="round" stroke-linecap="round" stroke="none" stroke-width="0.375" fill="#000000" marker-start="none" marker-end="none" stroke-miterlimit="79.8403193612775"/>
    <path d="M 471.625,20.423 L 470.078,25.479 L 470.963,25.479 L 471.767,22.56 L 472.067,21.475 C 472.08,21.529 472.167,21.876 472.329,22.518 L 473.134,25.479 L 474.014,25.479 L 474.771,22.546 L 475.024,21.58 L 475.314,22.556 L 476.18,25.479 L 477.013,25.479 L 475.433,20.423 L 474.543,20.423 L 473.738,23.451 L 473.543,24.312 L 472.52,20.423 L 471.625,20.423 Z" fill-rule="nonzero" stroke-linejoin="round" stroke-linecap="round" stroke="none" stroke-width="0.375" fill="#000000" marker-start="none" marker-end="none" stroke-miterlimit="79.8403193612775"/>
    <path d="M 477.216,20.423 L 479.063,23.051 L 477.354,25.479 L 478.426,25.479 L 479.202,24.293 C 479.348,24.068 479.465,23.879 479.554,23.727 C 479.693,23.936 479.822,24.122 479.939,24.284 L 480.791,25.479 L 481.815,25.479 L 480.068,23.098 L 481.948,20.423 L 480.896,20.423 L 479.858,21.994 L 479.582,22.418 L 478.254,20.423 L 477.216,20.423 Z" fill-rule="nonzero" stroke-linejoin="round" stroke-linecap="round" stroke="none" stroke-width="0.375" fill="#000000" marker-start="none" marker-end="none" stroke-miterlimit="79.8403193612775"/>
    <path d="M 482.68,18.476 L 482.584,19.28 C 482.772,19.23 482.935,19.204 483.075,19.204 C 483.265,19.204 483.417,19.236 483.532,19.3 C 483.646,19.363 483.74,19.452 483.813,19.566 C 483.866,19.652 483.954,19.864 484.074,20.204 C 484.09,20.252 484.116,20.321 484.151,20.414 L 482.232,25.479 L 483.156,25.479 L 484.208,22.551 C 484.344,22.179 484.466,21.789 484.574,21.38 C 484.673,21.773 484.79,22.157 484.927,22.532 L 486.007,25.479 L 486.864,25.479 L 484.941,20.337 C 484.735,19.782 484.574,19.4 484.46,19.19 C 484.308,18.908 484.133,18.701 483.936,18.569 C 483.74,18.437 483.505,18.371 483.232,18.371 C 483.067,18.371 482.883,18.406 482.68,18.476 Z" fill-rule="nonzero" stroke-linejoin="round" stroke-linecap="round" stroke="none" stroke-width="0.375" fill="#000000" marker-start="none" marker-end="none" stroke-miterlimit="79.8403193612775"/>
    <path d="M 487.195,20.423 L 487.195,21.118 L 490.413,24.812 C 490.049,24.793 489.726,24.783 489.447,24.783 L 487.386,24.783 L 487.386,25.479 L 491.518,25.479 L 491.518,24.912 L 488.781,21.704 L 488.252,21.118 C 488.636,21.147 488.996,21.161 489.333,21.161 L 491.67,21.161 L 491.67,20.423 L 487.195,20.423 Z" fill-rule="nonzero" stroke-linejoin="round" stroke-linecap="round" stroke="none" stroke-width="0.375" fill="#000000" marker-start="none" marker-end="none" stroke-miterlimit="79.8403193612775"/>
    <path d="M 492.206,23.336 C 492.451,23.343 492.65,23.409 492.804,23.534 C 492.958,23.659 493.06,23.831 493.111,24.05 C 493.162,24.269 493.189,24.644 493.192,25.174 C 493.195,25.704 493.204,26.053 493.22,26.221 C 493.249,26.488 493.302,26.702 493.38,26.864 C 493.458,27.026 493.554,27.155 493.668,27.252 C 493.782,27.349 493.928,27.422 494.106,27.473 C 494.226,27.505 494.423,27.521 494.696,27.521 L 494.963,27.521 L 494.963,26.773 L 494.815,26.773 C 494.485,26.773 494.266,26.714 494.158,26.595 C 494.05,26.476 493.996,26.21 493.996,25.797 C 493.996,24.966 493.979,24.441 493.944,24.222 C 493.887,23.882 493.789,23.62 493.651,23.436 C 493.513,23.252 493.297,23.089 493.001,22.946 C 493.35,22.8 493.603,22.577 493.761,22.277 C 493.918,21.977 493.996,21.486 493.996,20.804 C 493.996,20.185 494.003,19.817 494.015,19.699 C 494.041,19.484 494.105,19.333 494.208,19.247 C 494.311,19.161 494.514,19.119 494.815,19.119 L 494.963,19.119 L 494.963,18.371 L 494.696,18.371 C 494.385,18.371 494.16,18.397 494.02,18.447 C 493.817,18.52 493.649,18.639 493.515,18.802 C 493.382,18.966 493.296,19.173 493.256,19.423 C 493.216,19.674 493.195,20.085 493.192,20.656 C 493.189,21.227 493.162,21.623 493.111,21.842 C 493.06,22.061 492.958,22.234 492.804,22.361 C 492.65,22.488 492.451,22.554 492.206,22.56 L 492.206,23.336 Z" fill-rule="nonzero" stroke-linejoin="round" stroke-linecap="round" stroke="none" stroke-width="0.375" fill="#000000" marker-start="none" marker-end="none" stroke-miterlimit="79.8403193612775"/>
    <path d="M 496.141,18.371 L 496.141,27.521 L 496.888,27.521 L 496.888,18.371 L 496.141,18.371 Z" fill-rule="nonzero" stroke-linejoin="round" stroke-linecap="round" stroke="none" stroke-width="0.375" fill="#000000" marker-start="none" marker-end="none" stroke-miterlimit="79.8403193612775"/>
    <path d="M 500.814,23.336 L 500.814,22.56 C 500.57,22.554 500.37,22.488 500.217,22.361 C 500.063,22.234 499.96,22.061 499.91,21.844 C 499.859,21.627 499.832,21.253 499.829,20.723 C 499.825,20.193 499.816,19.844 499.8,19.676 C 499.772,19.406 499.718,19.191 499.641,19.031 C 499.563,18.87 499.467,18.742 499.353,18.645 C 499.238,18.548 499.092,18.474 498.915,18.424 C 498.794,18.389 498.597,18.371 498.324,18.371 L 498.058,18.371 L 498.058,19.119 L 498.205,19.119 C 498.535,19.119 498.754,19.178 498.862,19.297 C 498.97,19.416 499.024,19.684 499.024,20.099 C 499.024,20.893 499.038,21.396 499.067,21.608 C 499.118,21.961 499.219,22.242 499.372,22.453 C 499.524,22.664 499.74,22.829 500.019,22.946 C 499.654,23.121 499.397,23.351 499.248,23.639 C 499.099,23.926 499.024,24.411 499.024,25.093 C 499.024,25.712 499.016,26.082 499,26.202 C 498.978,26.415 498.915,26.563 498.812,26.647 C 498.709,26.731 498.507,26.773 498.205,26.773 L 498.058,26.773 L 498.058,27.521 L 498.324,27.521 C 498.635,27.521 498.861,27.495 499,27.445 C 499.203,27.375 499.372,27.257 499.505,27.092 C 499.638,26.927 499.725,26.719 499.764,26.469 C 499.804,26.218 499.825,25.807 499.829,25.236 C 499.832,24.665 499.859,24.27 499.91,24.053 C 499.96,23.836 500.063,23.663 500.217,23.536 C 500.37,23.409 500.57,23.343 500.814,23.336 Z" fill-rule="nonzero" stroke-linejoin="round" stroke-linecap="round" stroke="none" stroke-width="0.375" fill="#000000" marker-start="none" marker-end="none" stroke-miterlimit="79.8403193612775"/>
    <path d="M 501.559,23.075 L 501.559,24.05 C 501.896,24.431 502.337,24.622 502.883,24.622 C 503.073,24.622 503.273,24.594 503.482,24.538 C 503.692,24.483 503.99,24.373 504.377,24.207 C 504.596,24.115 504.76,24.055 504.87,24.027 C 504.979,23.998 505.09,23.984 505.201,23.984 C 505.407,23.984 505.621,24.046 505.841,24.169 C 506.062,24.293 506.258,24.449 506.429,24.636 L 506.429,23.627 C 506.226,23.436 506.02,23.298 505.813,23.213 C 505.605,23.127 505.371,23.084 505.11,23.084 C 504.92,23.084 504.738,23.106 504.565,23.151 C 504.392,23.195 504.118,23.301 503.742,23.47 C 503.366,23.638 503.052,23.722 502.802,23.722 C 502.598,23.722 502.407,23.678 502.228,23.591 C 502.049,23.504 501.826,23.332 501.559,23.075 Z" fill-rule="nonzero" stroke-linejoin="round" stroke-linecap="round" stroke="none" stroke-width="0.375" fill="#000000" marker-start="none" marker-end="none" stroke-miterlimit="79.8403193612775"/>
   </g>
  </g>
  <g id="Spread_1" transform="translate(0 -45)">
   <g id="layer_1">
    <text xml:space="preserve" transform="translate(18 26.424) scale(1 -1)" fill="#000000" stroke="none" font-size="9.75" font-family="Arial" stroke-linejoin="round" stroke-linecap="round" stroke-width="0.375" stroke-miterlimit="79.8403193612775"><tspan x="0" y="0"> </tspan><tspan x="2.764" y="0">!</tspan><tspan x="5.528" y="0"></tspan><tspan x="8.83" y="0">#</tspan><tspan x="14.307" y="0">$</tspan><tspan x="19.784" y="0">%</tspan><tspan x="28.508" y="0">&amp;</tspan><tspan x="35.066" y="0"></tspan><tspan x="37.287" y="0">(</tspan><tspan x="40.589" y="0">)</tspan><tspan x="43.891" y="0">*</tspan><tspan x="47.74" y="0">+</tspan><tspan x="53.489" y="0">,</tspan><tspan x="56.253" y="0">-</tspan><tspan x="0" y="10.891">.</tspan><tspan x="2.764" y="10.891">/</tspan><tspan x="5.528" y="10.891">0</tspan><tspan x="11.005" y="10.891">1</tspan><tspan x="16.482" y="10.891">2</tspan><tspan x="21.959" y="10.891">3</tspan><tspan x="27.436" y="10.891">4</tspan><tspan x="32.913" y="10.891">5</tspan><tspan x="38.39" y="10.891">6</tspan><tspan x="43.867" y="10.891">7</tspan><tspan x="49.344" y="10.891">8</tspan><tspan x="54.821" y="10.891">9</tspan><tspan x="60.298" y="10.891">:</tspan><tspan x="0" y="21.782">;</tspan><tspan x="2.764" y="21.782">&lt;</tspan><tspan x="8.513" y="21.782">=</tspan><tspan x="14.262" y="21.782">&gt;</tspan><tspan x="20.011" y="21.782">?</tspan><tspan x="25.488" y="21.782">@</tspan><tspan x="35.441" y="21.782">A</tspan><tspan x="41.999" y="21.782">B</tspan><tspan x="48.557" y="21.782">C</tspan><tspan x="55.653" y="21.782">D</tspan><tspan x="0" y="32.673">E</tspan><tspan x="6.558" y="32.673">F</tspan><tspan x="12.569" y="32.673">G</tspan><tspan x="20.208" y="32.673">H</tspan><tspan x="27.304" y="32.673">I</tspan><tspan x="30.068" y="32.673">J</tspan><tspan x="34.998" y="32.673">K</tspan><tspan x="41.556" y="32.673">L</tspan><tspan x="47.033" y="32.673">M</tspan><tspan x="55.21" y="32.673">N</tspan><tspan x="0" y="43.564">O</tspan><tspan x="7.639" y="43.564">P</tspan><tspan x="14.197" y="43.564">Q</tspan><tspan x="21.836" y="43.564">R</tspan><tspan x="28.932" y="43.564">S</tspan><tspan x="35.49" y="43.564">T</tspan><tspan x="41.501" y="43.564">U</tspan><tspan x="48.597" y="43.564">V</tspan><tspan x="55.155" y="43.564">W</tspan><tspan x="0" y="54.455">X</tspan><tspan x="6.558" y="54.455">Y</tspan><tspan x="13.116" y="54.455">Z</tspan><tspan x="19.127" y="54.455">[</tspan><tspan x="21.891" y="54.455">\</tspan><tspan x="24.655" y="54.455">]</tspan><tspan x="27.419" y="54.455">^</tspan><tspan x="32.049" y="54.455">_</tspan><tspan x="37.526" y="54.455">`</tspan><tspan x="40.828" y="54.455">a</tspan><tspan x="46.305" y="54.455">b</tspan><tspan x="51.782" y="54.455">c</tspan><tspan x="56.712" y="54.455">d</tspan><tspan x="0" y="65.346">e</tspan><tspan x="5.477" y="65.346">f</tspan><tspan x="8.241" y="65.346">g</tspan><tspan x="13.718" y="65.346">h</tspan><tspan x="19.195" y="65.346">i</tspan><tspan x="21.416" y="65.346">j</tspan><tspan x="23.637" y="65.346">k</tspan><tspan x="28.567" y="65.346">l</tspan><tspan x="30.788" y="65.346">m</tspan><tspan x="38.965" y="65.346">n</tspan><tspan x="44.442" y="65.346">o</tspan><tspan x="49.919" y="65.346">p</tspan><tspan x="55.396" y="65.346">q</tspan><tspan x="60.873" y="65.346">r</tspan><tspan x="0" y="76.237">s</tspan><tspan x="4.93" y="76.237">t</tspan><tspan x="7.694" y="76.237">u</tspan><tspan x="13.171" y="76.237">v</tspan><tspan x="18.101" y="76.237">w</tspan><tspan x="25.197" y="76.237">x</tspan><tspan x="30.127" y="76.237">y</tspan><tspan x="35.057" y="76.237">z</tspan><tspan x="39.987" y="76.237">{</tspan><tspan x="43.298" y="76.237">|</tspan><tspan x="45.886" y="76.237">}</tspan><tspan x="49.197" y="76.237">~</tspan></text>
   </g>
  </g>
 </g>
</svg>
